<svg width="67" height="70" viewBox="0 0 67 70" fill="none" xmlns="http://www.w3.org/2000/svg">
<path d="M14.8606 68.9421C6.73208 69.0598 0.128759 62.5651 0.111712 54.4357L0.0304616 15.6881C0.0134149 7.55867 6.58909 0.873035 14.7176 0.755279L52.1386 0.21317C60.2671 0.0954137 66.8704 6.59013 66.8875 14.7195L66.9996 68.1867L14.8606 68.9421Z" fill="#F33A3A"/>
<path d="M11.4486 22.8453C5.36466 22.9334 0.422274 18.0723 0.409515 11.9877V11.9877C0.396756 5.90312 5.31846 0.899117 11.4024 0.81098L52.2101 0.219808C60.3386 0.102052 66.942 6.59676 66.959 14.7262L66.9743 22.0409L11.4486 22.8453Z" fill="#191919"/>
<path d="M23.2451 34.0799H18.8994V30.2287H23.2451V34.0799ZM26.4067 38.6988C25.8516 38.6988 25.2141 38.7075 24.4941 38.7249C23.7742 38.7335 23.3708 38.7379 23.2841 38.7379V52.8678C23.2841 54.2296 23.2494 55.0754 23.18 55.405C23.1193 55.7433 22.8591 56.4285 22.3993 57.4607C22.1738 58.0505 21.5363 58.8095 20.4867 59.7376C19.4458 60.6744 18.6999 61.1428 18.2488 61.1428C18.1794 60.952 18.019 60.6701 17.7674 60.2971C17.4291 59.794 16.9607 59.035 16.3622 58.0202C16.7612 57.7947 17.1255 57.5258 17.4552 57.2135C17.9322 56.7624 18.3182 56.242 18.6131 55.6522C18.7086 55.4613 18.8126 55.1144 18.9254 54.6113C19.0468 54.1082 19.1076 53.6745 19.1076 53.3102C19.1076 53.1888 19.1032 53.102 19.0945 53.05L18.9254 35.4331H26.2896C26.2896 36.2224 26.307 36.9857 26.3417 37.723C26.3503 37.9832 26.372 38.3085 26.4067 38.6988ZM50.2169 52.8678C49.8959 52.8678 49.2367 52.8635 48.2392 52.8548C47.2417 52.8461 46.5738 52.8418 46.2355 52.8418C46.2355 52.5729 46.2182 52.0915 46.1835 51.3976C46.1574 50.695 46.1444 49.9794 46.1444 49.2508H50.2169V52.8678ZM50.6462 40.0129C50.6462 40.8717 50.4771 41.622 50.1388 42.2638C49.8005 42.8971 49.3365 43.3785 48.7466 43.7081C48.365 43.9162 47.9183 44.055 47.4065 44.1244C46.9034 44.1851 46.1791 44.2155 45.2337 44.2155C44.8 44.2155 44.0583 44.2112 43.0088 44.2025C41.9592 44.1938 41.3477 44.1895 41.1742 44.1895C40.2895 44.1895 39.0014 44.1982 37.31 44.2155C35.6272 44.2328 34.6687 44.2415 34.4345 44.2415C34.2524 44.2415 34.1309 44.2849 34.0702 44.3716C34.0095 44.4497 33.9791 44.5668 33.9791 44.7229C33.9791 44.8097 33.9835 44.9051 33.9921 45.0092C34.0008 45.1133 34.0052 45.1696 34.0052 45.1783L34.0312 49.55C33.9271 50.4434 33.6539 51.2545 33.2115 51.9831C33.0727 52.2173 32.691 52.7247 32.0665 53.5054C31.9017 53.3319 31.2815 52.6293 30.2059 51.3976C29.7462 50.8685 29.4296 50.5128 29.2561 50.3307C29.5424 50.0531 29.7202 49.8146 29.7896 49.6151C29.911 49.2681 29.9717 48.6436 29.9717 47.7415L29.9457 40.6375H46.0013C46.3309 40.6375 46.5478 40.516 46.6519 40.2732C46.7039 40.1517 46.7299 39.9132 46.7299 39.5576C46.7299 39.1933 46.6388 38.9807 46.4567 38.92C46.2745 38.8506 45.6717 38.8159 44.6482 38.8159H29.9457L29.9717 35.407C30.2667 35.407 30.6613 35.4114 31.1557 35.4201C31.6588 35.4201 32.3918 35.4244 33.3546 35.4331C34.3261 35.4417 35.0287 35.4461 35.4624 35.4461H35.9828H36.4122H36.7635H37.0497H37.2709H37.4531H37.5962C37.9171 35.4461 38.0949 35.4244 38.1296 35.381V33.026H42.1761V35.355H50.6202C50.6202 35.8494 50.6245 36.5824 50.6332 37.5539C50.6419 38.5254 50.6462 39.345 50.6462 40.0129ZM44.9344 52.8678C44.6135 52.8678 43.9542 52.8635 42.9567 52.8548C41.9592 52.8461 41.2913 52.8418 40.953 52.8418C40.953 52.5729 40.9357 52.0915 40.901 51.3976C40.875 50.695 40.862 49.9794 40.862 49.2508H44.9344V52.8678Z" fill="white"/>
<circle cx="13.3333" cy="11.3333" r="6.33333" fill="white"/>
</svg>
