<svg width="272" height="48" viewBox="0 0 272 48" fill="none" xmlns="http://www.w3.org/2000/svg">
<path d="M23.5373 47.6387C10.9128 47.7363 0.638495 37.581 0.588887 24.9563V24.9563C0.539278 12.3315 10.7332 2.01801 23.3577 1.92041L248.921 0.176643C261.546 0.0790471 271.82 10.2343 271.87 22.8591V22.8591C271.919 35.4838 261.725 45.7974 249.101 45.8949L23.5373 47.6387Z" fill="#F33A3A"/>
<path d="M22.9759 47.6451C10.3859 47.7424 0.139582 37.6148 0.0901083 25.0245V25.0245C0.0406351 12.4342 10.2068 2.14885 22.7968 2.05152L143.236 1.12044L143.357 31.7141C143.389 39.9983 136.7 46.7659 128.416 46.8299L22.9759 47.6451Z" fill="#191919"/>
<path d="M160.391 15.3975H156.314V11.7842H160.391V15.3975ZM163.358 19.731C162.837 19.731 162.239 19.7391 161.563 19.7554C160.888 19.7635 160.509 19.7676 160.428 19.7676V33.0244C160.428 34.3021 160.396 35.0955 160.33 35.4048C160.273 35.7222 160.029 36.3651 159.598 37.3335C159.386 37.8869 158.788 38.599 157.804 39.4697C156.827 40.3486 156.127 40.7881 155.704 40.7881C155.639 40.609 155.488 40.3446 155.252 39.9946C154.935 39.5226 154.495 38.8105 153.934 37.8584C154.308 37.6468 154.65 37.3945 154.959 37.1016C155.407 36.6784 155.769 36.1901 156.046 35.6367C156.135 35.4577 156.233 35.1322 156.339 34.6602C156.453 34.1882 156.51 33.7812 156.51 33.4395C156.51 33.3255 156.506 33.2441 156.497 33.1953L156.339 16.667H163.248C163.248 17.4076 163.264 18.1237 163.297 18.8154C163.305 19.0596 163.325 19.3647 163.358 19.731ZM185.843 31.2178L183.243 33.7935C183.162 33.7935 182.8 33.4272 182.157 32.6948C181.815 32.3123 181.477 31.9258 181.143 31.5352C180.81 31.1771 180.553 30.9004 180.374 30.7051C180.033 30.3307 179.699 29.936 179.373 29.521C178.633 28.577 178.031 27.7876 177.567 27.1528C177.282 26.7541 176.997 26.3512 176.712 25.9443C176.493 25.6432 176.285 25.391 176.09 25.1875L176.114 26.5791C175.626 26.5791 175.239 26.5872 174.954 26.6035C174.67 26.6117 174.356 26.6198 174.015 26.6279C173.73 27.2057 173.168 28.223 172.33 29.6797C171.532 31.0794 170.869 32.2025 170.34 33.0488H166.226C166.226 33.0244 166.686 32.1903 167.606 30.5464C169.242 27.6248 170.092 26.103 170.157 25.981C171.077 24.3452 171.541 23.5273 171.549 23.5273L175.211 23.5518C175.162 23.446 174.926 23.0472 174.503 22.3555C174.088 21.6637 173.844 21.2324 173.77 21.0615C173.86 20.9801 174.096 20.8337 174.478 20.6221C174.869 20.4023 175.186 20.1785 175.431 19.9507H166.727C166.711 19.4461 166.698 18.8927 166.69 18.2905C166.682 17.6883 166.678 17.1553 166.678 16.6914L185.477 16.6426L185.501 19.9507L177.481 19.9873C177.823 20.5732 178.153 21.1348 178.47 21.6719C178.999 22.5589 179.451 23.2832 179.825 23.8447C180.362 24.6585 180.842 25.3177 181.265 25.8223C181.436 26.0257 181.681 26.3309 181.998 26.7378C182.625 27.5435 183.149 28.1904 183.573 28.6787C184.305 29.5251 184.801 30.0947 185.062 30.3877C185.249 30.5911 185.509 30.8678 185.843 31.2178ZM208.377 33.0244C208.076 33.0244 207.458 33.0203 206.522 33.0122C205.586 33.0041 204.959 33 204.642 33C204.642 32.7477 204.626 32.2961 204.593 31.645C204.569 30.9858 204.556 30.3145 204.556 29.6309H208.377V33.0244ZM208.78 20.9639C208.78 21.7695 208.621 22.4735 208.304 23.0757C207.987 23.6698 207.551 24.1214 206.998 24.4307C206.64 24.626 206.221 24.7562 205.741 24.8213C205.269 24.8783 204.589 24.9067 203.702 24.9067C203.295 24.9067 202.599 24.9027 201.615 24.8945C200.63 24.8864 200.056 24.8823 199.893 24.8823C199.063 24.8823 197.855 24.8905 196.268 24.9067C194.689 24.923 193.79 24.9312 193.57 24.9312C193.399 24.9312 193.285 24.9718 193.228 25.0532C193.171 25.1265 193.143 25.2363 193.143 25.3828C193.143 25.4642 193.147 25.5537 193.155 25.6514C193.163 25.749 193.167 25.8019 193.167 25.8101L193.192 29.9116C193.094 30.7498 192.838 31.5107 192.423 32.1943C192.293 32.4141 191.934 32.8901 191.348 33.6226C191.194 33.4598 190.612 32.8006 189.603 31.645C189.172 31.1486 188.875 30.8149 188.712 30.644C188.98 30.3836 189.147 30.1598 189.212 29.9727C189.326 29.6471 189.383 29.0612 189.383 28.2148L189.359 21.5498H204.422C204.731 21.5498 204.935 21.4359 205.033 21.208C205.081 21.0941 205.106 20.8703 205.106 20.5366C205.106 20.1948 205.02 19.9954 204.849 19.9385C204.679 19.8734 204.113 19.8408 203.153 19.8408H189.359L189.383 16.6426C189.66 16.6426 190.03 16.6466 190.494 16.6548C190.966 16.6548 191.654 16.6589 192.557 16.667C193.468 16.6751 194.128 16.6792 194.535 16.6792H195.023H195.426H195.755H196.024H196.231H196.402H196.536C196.838 16.6792 197.004 16.6589 197.037 16.6182V14.4087H200.833V16.5938H208.756C208.756 17.0576 208.76 17.7453 208.768 18.6567C208.776 19.5682 208.78 20.3372 208.78 20.9639ZM203.421 33.0244C203.12 33.0244 202.502 33.0203 201.566 33.0122C200.63 33.0041 200.003 33 199.686 33C199.686 32.7477 199.67 32.2961 199.637 31.645C199.613 30.9858 199.6 30.3145 199.6 29.6309H203.421V33.0244ZM231.986 31.2178L229.386 33.7935C229.304 33.7935 228.942 33.4272 228.299 32.6948C227.957 32.3123 227.62 31.9258 227.286 31.5352C226.952 31.1771 226.696 30.9004 226.517 30.7051C226.175 30.3307 225.841 29.936 225.516 29.521C224.775 28.577 224.173 27.7876 223.709 27.1528C223.425 26.7541 223.14 26.3512 222.855 25.9443C222.635 25.6432 222.428 25.391 222.232 25.1875L222.257 26.5791C221.768 26.5791 221.382 26.5872 221.097 26.6035C220.812 26.6117 220.499 26.6198 220.157 26.6279C219.872 27.2057 219.311 28.223 218.473 29.6797C217.675 31.0794 217.012 32.2025 216.483 33.0488H212.369C212.369 33.0244 212.829 32.1903 213.748 30.5464C215.384 27.6248 216.235 26.103 216.3 25.981C217.219 24.3452 217.683 23.5273 217.691 23.5273L221.353 23.5518C221.305 23.446 221.069 23.0472 220.645 22.3555C220.23 21.6637 219.986 21.2324 219.913 21.0615C220.002 20.9801 220.238 20.8337 220.621 20.6221C221.012 20.4023 221.329 20.1785 221.573 19.9507H212.869C212.853 19.4461 212.841 18.8927 212.833 18.2905C212.825 17.6883 212.821 17.1553 212.821 16.6914L231.619 16.6426L231.644 19.9507L223.624 19.9873C223.966 20.5732 224.295 21.1348 224.613 21.6719C225.142 22.5589 225.593 23.2832 225.968 23.8447C226.505 24.6585 226.985 25.3177 227.408 25.8223C227.579 26.0257 227.823 26.3309 228.14 26.7378C228.767 27.5435 229.292 28.1904 229.715 28.6787C230.448 29.5251 230.944 30.0947 231.204 30.3877C231.392 30.5911 231.652 30.8678 231.986 31.2178ZM253.995 33.0244C253.987 33.0488 253.551 33.061 252.689 33.061C251.826 33.0692 250.959 33.0773 250.089 33.0854C249.609 31.6694 249.133 30.2534 248.661 28.8374C248.001 26.8761 247.383 25.0736 246.805 23.4297C246.146 21.5498 245.71 20.3983 245.499 19.9751C245.458 19.9019 245.381 19.853 245.267 19.8286C245.161 19.8042 244.958 19.792 244.657 19.792C244.567 19.792 244.087 19.8001 243.216 19.8164C242.345 19.8327 241.483 19.8408 240.628 19.8408V33.0244H234.891L234.879 30.3633L236.856 30.3389L236.807 19.7676C236.368 19.7676 236.014 19.7798 235.745 19.8042C235.477 19.8286 235.334 19.8408 235.318 19.8408C235.237 19.8408 235.16 19.8408 235.086 19.8408C234.989 19.8164 234.911 19.8001 234.854 19.792V16.5327H246.89C247.574 16.5327 248.14 16.9071 248.587 17.6558C248.945 18.4777 249.161 18.9578 249.234 19.0962H249.491V16.5571H253.165V19.8164H249.405L253.995 33.0244Z" fill="white"/>
<path d="M23.3098 32.1206V17.4206H33.9568V20.2766H27.3418V23.1746H33.0118V26.0096H27.3418V29.2646H33.9568V32.1206H23.3098ZM45.0956 32.1206L42.2606 27.4796L39.3206 32.1206H35.2256L40.2236 24.6026L35.6456 17.4206H40.3496L42.8066 21.4526L45.3686 17.4206H49.4636L44.8436 24.3506L49.7996 32.1206H45.0956ZM55.2119 20.1086V24.5396H57.1859C58.7819 24.5396 59.5379 23.7626 59.5379 22.3136C59.5379 20.8856 58.7819 20.1086 57.1859 20.1086H55.2119ZM57.8999 27.2276H55.2119V32.1206H51.1799V17.4206H57.8999C61.6379 17.4206 63.7379 19.2476 63.7379 22.3136C63.7379 25.4006 61.6379 27.2276 57.8999 27.2276ZM65.2893 32.1206V17.4206H69.3213V29.0126H75.7053V32.1206H65.2893ZM83.0981 32.4356C78.8981 32.4356 76.1891 29.5586 76.1891 24.7916V24.7496C76.1891 19.9826 78.8981 17.1056 83.0981 17.1056C87.2771 17.1056 89.9861 19.9826 89.9861 24.7496V24.7916C89.9861 29.5586 87.2771 32.4356 83.0981 32.4356ZM83.0981 29.7686C84.7571 29.7686 85.7861 28.3196 85.7861 24.7916V24.7496C85.7861 21.2216 84.7571 19.7726 83.0981 19.7726C81.4181 19.7726 80.3891 21.2216 80.3891 24.7496V24.7916C80.3891 28.3196 81.4181 29.7686 83.0981 29.7686ZM95.7969 20.1086V24.0356H97.7289C99.2409 24.0356 99.8709 23.3846 99.8709 22.0616C99.8709 20.7596 99.2409 20.1086 97.7289 20.1086H95.7969ZM100.354 32.1206L97.6029 26.7236H95.7969V32.1206H91.7649V17.4206H98.3589C102.328 17.4206 104.092 19.3316 104.092 22.1036C104.092 23.9726 103.147 25.1906 101.278 25.9256L104.701 32.1206H100.354ZM106.161 32.1206V17.4206H116.808V20.2766H110.193V23.1746H115.863V26.0096H110.193V29.2646H116.808V32.1206H106.161Z" fill="white"/>
</svg>
