<svg width="132" height="132" viewBox="0 0 132 132" fill="none" xmlns="http://www.w3.org/2000/svg">
<path fill-rule="evenodd" clip-rule="evenodd" d="M23.375 1.06394e-05H108.625C111.695 -0.0029575 114.736 0.615132 117.574 1.8189C120.411 3.02268 122.989 4.7885 125.16 7.01532C127.331 9.24213 129.053 11.8862 130.227 14.7963C131.4 17.7063 132.003 20.8252 132 23.9744V108.026C132.003 111.175 131.4 114.294 130.227 117.204C129.053 120.114 127.331 122.758 125.16 124.985C122.989 127.211 120.411 128.977 117.574 130.181C114.736 131.385 111.695 132.003 108.625 132H23.375C20.3045 132.003 17.2637 131.385 14.4264 130.181C11.5891 128.977 9.01108 127.211 6.83994 124.985C4.66879 122.758 2.94711 120.114 1.77343 117.204C0.599754 114.294 -0.00288356 111.175 1.03734e-05 108.026V23.9744C-0.00288356 20.8252 0.599754 17.7063 1.77343 14.7963C2.94711 11.8862 4.66879 9.24213 6.83994 7.01532C9.01108 4.7885 11.5891 3.02268 14.4264 1.8189C17.2637 0.615132 20.3045 -0.0029575 23.375 1.06394e-05ZM112.311 92.8529C113.057 91.5611 113.52 90.1057 113.52 88.7988V43.4315C113.52 42.1245 113.057 40.6694 112.311 39.3777L85.3831 54.9244L112.311 39.3774C111.565 38.0853 110.536 36.957 109.405 36.3035L70.1153 13.62C67.852 12.313 64.148 12.313 61.8847 13.62L22.5953 36.3035C20.3317 37.6101 18.48 40.8179 18.48 43.4315V88.7988C18.48 90.1058 18.9431 91.5612 19.6891 92.8529L38.5698 81.9522L38.5698 81.9523L19.6891 92.8532C20.4348 94.1449 21.4638 95.2736 22.5953 95.9267L61.8847 118.61C64.148 119.917 67.852 119.917 70.1153 118.61L109.405 95.9267C110.536 95.2733 111.565 94.1449 112.311 92.8529Z" fill="white"/>
<path d="M97.56 64.5199H94.0398V61H90.5202V64.5199H87V68.0398H90.5202V71.56H94.0398V68.0398H97.56V64.5199Z" fill="white"/>
<path d="M110.76 64.5199H107.24V61H103.72V64.5199H100.2V68.0398H103.72V71.56H107.24V68.0398H110.76V64.5199Z" fill="white"/>
<path d="M67.68 97.36C50.2116 97.36 36 83.1484 36 65.68C36 48.2116 50.2116 34 67.68 34C78.9519 34 89.4643 40.0658 95.1146 49.8301L81.4043 57.7637C78.5764 52.8763 73.3172 49.84 67.68 49.84C58.9456 49.84 51.84 56.9456 51.84 65.68C51.84 74.4141 58.9456 81.52 67.68 81.52C73.3178 81.52 78.577 78.4837 81.4052 73.5953L95.1155 81.5287C89.4653 91.2939 78.9525 97.36 67.68 97.36Z" fill="white"/>
</svg>
