<svg width="132" height="132" viewBox="0 0 132 132" fill="none" xmlns="http://www.w3.org/2000/svg">
<path fill-rule="evenodd" clip-rule="evenodd" d="M108.9 0H23.1C10.3422 0 0 10.3422 0 23.1V108.9C0 121.658 10.3422 132 23.1 132H108.9C121.658 132 132 121.658 132 108.9V23.1C132 10.3422 121.658 0 108.9 0ZM22.36 83.8334C21.4266 83.8334 20.6333 83.5225 19.98 82.9004C19.3267 82.2623 19 81.5048 19 80.6277C19 79.7344 19.3267 78.969 19.98 78.3311C20.6333 77.693 21.4266 77.374 22.36 77.374C23.309 77.374 24.11 77.693 24.7633 78.3311C25.4323 78.969 25.7667 79.7344 25.7667 80.6277C25.7667 81.5048 25.4323 82.2623 24.7633 82.9004C24.11 83.5225 23.309 83.8334 22.36 83.8334ZM53.6045 83.307H59.6713V49H54.3279V71.1057C54.3279 73.275 54.4058 74.8141 54.5612 75.723H54.4679C54.2812 75.3403 53.8612 74.6387 53.2079 73.6177L37.761 49H31.2976V83.307H36.6644V60.8184C36.6644 58.4102 36.6022 56.8392 36.4778 56.1055H36.6178C36.8821 56.7911 37.2168 57.4532 37.6212 58.0912L53.6045 83.307ZM85.8054 83.307H67.0221V49H85.059V53.8328H72.5757V63.5458H84.079V68.3545H72.5757V78.4983H85.8054V83.307ZM102.887 53.8328H112.5V49H87.7432V53.8328H97.3331V83.307H102.887V53.8328Z" fill="white"/>
</svg>
