<svg width="132" height="132" viewBox="0 0 132 132" fill="none" xmlns="http://www.w3.org/2000/svg">
<path fill-rule="evenodd" clip-rule="evenodd" d="M108.625 1.06394e-05H23.375C20.3045 -0.0029575 17.2637 0.615132 14.4264 1.8189C11.5891 3.02268 9.01108 4.7885 6.83993 7.01532C4.66879 9.24213 2.94711 11.8862 1.77343 14.7963C0.599753 17.7063 -0.00288356 20.8252 1.03734e-05 23.9744V108.026C-0.00288356 111.175 0.599753 114.294 1.77343 117.204C2.94711 120.114 4.66879 122.758 6.83993 124.985C9.01108 127.211 11.5891 128.977 14.4264 130.181C17.2637 131.385 20.3045 132.003 23.375 132H108.625C111.695 132.003 114.736 131.385 117.574 130.181C120.411 128.977 122.989 127.211 125.16 124.985C127.331 122.758 129.053 120.114 130.227 117.204C131.4 114.294 132.003 111.175 132 108.026V23.9744C132.003 20.8252 131.4 17.7063 130.227 14.7963C129.053 11.8862 127.331 9.24213 125.16 7.01532C122.989 4.7885 120.411 3.02268 117.574 1.8189C114.736 0.615132 111.695 -0.0029575 108.625 1.06394e-05ZM70.4065 18.3671L113.633 61.5905L113.633 61.5942C116.122 64.0842 116.122 68.1228 113.633 70.6136L70.6084 113.633C68.1164 116.122 64.0806 116.122 61.592 113.633L18.3677 70.4094C15.8774 67.9197 15.8774 63.8823 18.3677 61.3908L48.0048 31.7534L59.2284 42.9792C58.0773 45.7356 58.6179 49.03 60.8624 51.2729C61.5958 52.0098 62.4422 52.559 63.3468 52.9284V80.11C62.4426 80.4809 61.5952 81.0342 60.8629 81.7653C57.8996 84.7281 57.8996 89.5284 60.8629 92.4958C63.8235 95.4583 68.6267 95.4583 71.5904 92.4958C74.5532 89.5282 74.5532 84.7279 71.5904 81.7653C70.9883 81.1657 70.3064 80.6883 69.5838 80.3306L69.5847 53.3993L79.8186 63.6336C78.6899 66.3794 79.2411 69.6538 81.4695 71.8841C84.4353 74.8488 89.2363 74.8488 92.2004 71.8841C95.1642 68.9203 95.1642 64.1192 92.2004 61.1562C90.0806 59.0325 87.0176 58.4414 84.3628 59.3563L73.3894 48.3825C74.3055 45.7267 73.7106 42.667 71.5908 40.5445C69.482 38.4352 66.4482 37.836 63.8014 38.7297L52.4162 27.344L61.3918 18.3671C63.8821 15.8776 67.9193 15.8776 70.4065 18.3671Z" fill="#F0F0F0"/>
</svg>
