<svg width="132" height="132" viewBox="0 0 132 132" fill="none" xmlns="http://www.w3.org/2000/svg">
<path fill-rule="evenodd" clip-rule="evenodd" d="M108.625 1.06394e-05H23.375C20.3045 -0.0029575 17.2637 0.615132 14.4264 1.8189C11.5891 3.02268 9.01108 4.7885 6.83993 7.01532C4.66879 9.24213 2.94711 11.8862 1.77343 14.7963C0.599753 17.7063 -0.00288356 20.8252 1.03734e-05 23.9744V108.026C-0.00288356 111.175 0.599753 114.294 1.77343 117.204C2.94711 120.114 4.66879 122.758 6.83993 124.985C9.01108 127.211 11.5891 128.977 14.4264 130.181C17.2637 131.385 20.3045 132.003 23.375 132H108.625C111.695 132.003 114.736 131.385 117.574 130.181C120.411 128.977 122.989 127.211 125.16 124.985C127.331 122.758 129.053 120.114 130.227 117.204C131.4 114.294 132.003 111.175 132 108.026V23.9744C132.003 20.8252 131.4 17.7063 130.227 14.7963C129.053 11.8862 127.331 9.24213 125.16 7.01532C122.989 4.7885 120.411 3.02268 117.574 1.8189C114.736 0.615132 111.695 -0.0029575 108.625 1.06394e-05ZM56.9206 83.5685C51.0101 82.889 54.4631 80.8809 54.4631 80.8809C40.5693 84.7631 62.9141 92.7835 80.6032 85.2022C77.7059 84.0756 75.6314 82.7748 75.6314 82.7748C67.7406 84.2682 64.081 84.3854 56.9206 83.5685ZM52.3016 70.9878C52.3016 70.9878 48.4287 73.8546 54.3436 74.4664C61.9925 75.2555 68.0331 75.3201 78.4856 73.3074C78.4856 73.3074 79.9313 74.7731 82.2046 75.5746C60.8174 81.8285 36.9959 76.0678 52.3016 70.9878ZM69.3787 63.7397C69.3787 63.7397 74.8825 59.224 70.5239 54.2059C55.7491 37.1817 86.6833 29.4558 86.6833 29.4558C67.8223 40.3944 70.3465 43.9006 74.7594 50.0301L74.7603 50.0313C74.958 50.306 75.1596 50.586 75.3632 50.8722C80.4459 58.0265 69.3787 63.7397 69.3787 63.7397ZM93.9192 88.1983C93.9192 88.1983 96.4745 90.3038 91.1049 91.9327C80.8945 95.0258 48.6082 95.9598 39.6391 92.0559C36.415 90.6533 42.4612 88.7069 44.3631 88.2984C46.3465 87.8683 47.48 87.9485 47.48 87.9485C43.8945 85.4226 24.3044 92.9081 37.5293 95.0519C73.5953 100.901 103.274 92.4181 93.9192 88.1983ZM50.3079 66.0548C39.7008 64.6383 56.1237 60.7376 56.1237 60.7376C56.1237 60.7376 49.746 60.3075 41.9022 64.0991C32.6273 68.5856 64.8445 70.626 81.5217 66.2399C83.2555 65.056 85.6521 64.0297 85.6521 64.0297C85.6521 64.0297 78.8275 65.2487 72.031 65.822C63.7147 66.5188 54.7866 66.6545 50.3079 66.0548ZM85.5844 77.205C102.537 68.3955 94.699 59.9296 89.2279 61.0702C87.8869 61.3493 87.289 61.5911 87.289 61.5911C87.289 61.5911 87.7868 60.8113 88.7376 60.4737C99.5613 56.6685 107.885 71.6968 85.2436 77.6489C85.2436 77.6492 85.5059 77.4146 85.5844 77.205ZM66.4583 34.8344C84.7521 20.3921 75.3632 11 75.3632 11C77.891 20.955 71.0991 26.2731 64.4611 31.4706L64.4611 31.4707C61.1513 34.0623 57.8797 36.6239 55.8209 39.7154C51.605 46.0453 57.8891 52.8465 66.4522 60.5724C65.6951 58.8613 64.5276 57.1986 63.3456 55.5153C59.3142 49.774 55.1144 43.793 66.4583 34.8344ZM57.7896 101.077C74.0624 102.118 99.0513 100.499 99.6431 92.7988C99.6431 92.7988 98.5055 95.7178 86.1945 98.0359C72.3052 100.65 55.1748 100.345 45.0146 98.6694L45.0149 98.6696C45.0461 98.6946 47.1738 100.396 57.7896 101.077ZM40.1462 118.48H37.6541C37.7312 120.801 39.6238 122.214 42.5954 122.214C45.6612 122.214 47.6052 120.698 47.6052 118.3C47.6052 116.416 46.5261 115.355 44.0512 114.824L42.5526 114.507C41.131 114.181 40.5315 113.753 40.5315 112.991C40.5315 112.075 41.3879 111.467 42.6639 111.467C43.957 111.467 44.8733 112.1 44.959 113.145H47.3825C47.3397 110.91 45.5327 109.428 42.6553 109.428C39.8978 109.428 37.9282 110.936 37.9282 113.214C37.9282 115.021 39.05 116.177 41.328 116.665L42.9379 117.016C44.428 117.35 45.0189 117.795 45.0189 118.6C45.0189 119.508 44.0769 120.167 42.6982 120.167C41.328 120.167 40.2661 119.499 40.1462 118.48ZM54.1136 122L56.46 113.556H56.5371L58.8836 122H61.3242L64.6041 109.643H61.9237L59.9711 118.592H59.9026L57.5904 109.643H55.4067L53.0945 118.592H53.026L51.082 109.643H48.4016L51.6729 122H54.1136ZM66 122H68.5862V109.643H66V122ZM70.6415 122H73.1164V113.907H73.1935L78.974 122H81.1149V109.643H78.64V117.692H78.5715L72.7996 109.643H70.6415V122ZM88.7452 122.214C92.1878 122.214 94.226 120.176 94.226 116.81V115.414H89.0192V117.299H91.7082L91.6997 117.495C91.6483 119.028 90.4751 120.065 88.788 120.065C86.7327 120.065 85.431 118.429 85.431 115.748C85.431 113.119 86.6556 111.569 88.6938 111.569C90.0897 111.569 91.143 112.34 91.5198 113.633H94.1146C93.7464 111.133 91.5712 109.428 88.6852 109.428C85.0542 109.428 82.7934 111.826 82.7934 115.783C82.7934 119.799 85.0542 122.214 88.7452 122.214Z" fill="white"/>
</svg>
