<svg width="132" height="132" viewBox="0 0 132 132" fill="none" xmlns="http://www.w3.org/2000/svg">
<path fill-rule="evenodd" clip-rule="evenodd" d="M23.375 1.06394e-05H108.625C111.695 -0.0029575 114.736 0.615132 117.574 1.8189C120.411 3.02268 122.989 4.7885 125.16 7.01532C127.331 9.24213 129.053 11.8862 130.227 14.7963C131.4 17.7063 132.003 20.8252 132 23.9744V108.026C132.003 111.175 131.4 114.294 130.227 117.204C129.053 120.114 127.331 122.758 125.16 124.985C122.989 127.211 120.411 128.977 117.574 130.181C114.736 131.385 111.695 132.003 108.625 132H23.375C20.3045 132.003 17.2637 131.385 14.4264 130.181C11.5891 128.977 9.01108 127.211 6.83993 124.985C4.66879 122.758 2.94711 120.114 1.77343 117.204C0.599753 114.294 -0.00288356 111.175 1.03734e-05 108.026V23.9744C-0.00288356 20.8252 0.599753 17.7063 1.77343 14.7963C2.94711 11.8862 4.66879 9.24213 6.83993 7.01532C9.01108 4.7885 11.5891 3.02268 14.4264 1.8189C17.2637 0.615132 20.3045 -0.0029575 23.375 1.06394e-05ZM53.82 90.655C53.82 90.655 50.367 92.663 56.2775 93.3425C63.4379 94.1594 67.0975 94.0423 74.9883 92.5488C74.9883 92.5488 77.0628 93.8496 79.9601 94.9763C62.271 102.558 39.9262 94.5372 53.82 90.655ZM53.7005 84.2405C47.7856 83.6287 51.6585 80.7618 51.6585 80.7618C36.3528 85.8418 60.1743 91.6025 81.5615 85.3486C79.2882 84.5471 77.8425 83.0814 77.8425 83.0814C67.39 85.0941 61.3494 85.0296 53.7005 84.2405ZM69.8808 63.9799C74.2394 68.9981 68.7356 73.5138 68.7356 73.5138C68.7356 73.5138 79.8028 67.8005 74.7201 60.6462C74.5162 60.3596 74.3144 60.0793 74.1163 59.8042C69.7034 53.6746 67.1792 50.1685 86.0402 39.2298C86.0402 39.2298 55.106 46.9557 69.8808 63.9799ZM90.4618 101.707C95.8314 100.078 93.2761 97.9724 93.2761 97.9724C102.631 102.192 72.9522 110.675 36.8862 104.826C23.6613 102.682 43.2514 95.1966 46.8369 97.7225C46.8369 97.7225 45.7034 97.6424 43.72 98.0725C41.8181 98.4809 35.7719 100.427 38.996 101.83C47.9651 105.734 80.2514 104.8 90.4618 101.707ZM55.4806 70.5116C55.4806 70.5116 39.0577 74.4124 49.6648 75.8289C54.1435 76.4285 63.0716 76.2928 71.3879 75.596C78.1844 75.0227 85.009 73.8037 85.009 73.8037C85.009 73.8037 82.6124 74.8301 80.8786 76.014C64.2014 80.4001 31.9842 78.3596 41.2591 73.8731C49.1029 70.0815 55.4806 70.5116 55.4806 70.5116ZM88.5848 70.8442C94.0559 69.7037 101.894 78.1695 84.9413 86.979C84.8628 87.1887 84.6005 87.4232 84.6005 87.423C107.242 81.4708 98.9182 66.4425 88.0945 70.2477C87.1437 70.5853 86.6459 71.3652 86.6459 71.3652C86.6459 71.3652 87.2438 71.1233 88.5848 70.8442ZM74.7201 20.774C74.7201 20.774 84.109 30.1661 65.8152 44.6084C54.4713 53.567 58.6711 59.548 62.7025 65.2893L62.7025 65.2894C63.8845 66.9727 65.052 68.6354 65.8091 70.3464C57.246 62.6205 50.9619 55.8193 55.1778 49.4894C57.2366 46.3979 60.5082 43.8363 63.818 41.2447C70.456 36.0471 77.2479 30.729 74.7201 20.774ZM99 102.573C98.4082 110.273 73.4193 111.892 57.1465 110.851C46.5307 110.17 44.403 108.469 44.3718 108.444L44.3715 108.443C54.5317 110.119 71.6621 110.424 85.5514 107.81C97.8624 105.492 99 102.573 99 102.573Z" fill="white"/>
</svg>
