<svg width="92" height="97" viewBox="0 0 92 97" fill="none" xmlns="http://www.w3.org/2000/svg">
<mask id="path-1-inside-1_163_62" fill="white">
<path fill-rule="evenodd" clip-rule="evenodd" d="M0 90.1271C0 93.9229 3.0771 97 6.8729 97C10.6687 97 13.7458 93.9229 13.7458 90.1271V54.5251C13.7458 32.0033 32.0033 13.7458 54.525 13.7458H84.3229C88.1187 13.7458 91.1958 10.6687 91.1958 6.87291C91.1958 3.07712 88.1187 1.23978e-05 84.3229 1.23978e-05H54.525C24.4117 1.23978e-05 0 24.4117 0 54.5251V90.1271ZM32.99 59.6386V57.3476C32.99 43.9358 43.8624 33.0634 57.2742 33.0634H75.602C76.3611 33.0634 76.9766 33.6788 76.9766 34.4379V59.6386C76.9766 71.7851 67.1298 81.6319 54.9833 81.6319C42.8367 81.6319 32.99 71.7851 32.99 59.6386ZM91.6388 59.6386C91.6388 79.8828 75.2275 96.2941 54.9833 96.2941C34.739 96.2941 18.3278 79.8828 18.3278 59.6386V57.3476C18.3278 35.8381 35.7647 18.4012 57.2742 18.4012H76.9766H90.2642C91.0233 18.4012 91.6388 19.0166 91.6388 19.7757V33.0634V59.6386Z"/>
</mask>
<path d="M6.8729 101C0.867962 101 -4 96.132 -4 90.1271H4C4 91.7138 5.28624 93 6.8729 93V101ZM17.7458 90.1271C17.7458 96.132 12.8778 101 6.8729 101V93C8.45956 93 9.7458 91.7138 9.7458 90.1271H17.7458ZM17.7458 54.5251V90.1271H9.7458V54.5251H17.7458ZM54.525 17.7458C34.2124 17.7458 17.7458 34.2125 17.7458 54.5251H9.7458C9.7458 29.7942 29.7942 9.74582 54.525 9.74582V17.7458ZM84.3229 17.7458H54.525V9.74582H84.3229V17.7458ZM95.1958 6.87291C95.1958 12.8779 90.3278 17.7458 84.3229 17.7458V9.74582C85.9095 9.74582 87.1958 8.45957 87.1958 6.87291H95.1958ZM84.3229 -3.99999C90.3278 -3.99999 95.1958 0.867976 95.1958 6.87291H87.1958C87.1958 5.28625 85.9095 4.00001 84.3229 4.00001V-3.99999ZM54.525 -3.99999H84.3229V4.00001H54.525V-3.99999ZM-4 54.5251C-4 22.2026 22.2026 -3.99999 54.525 -3.99999V4.00001C26.6208 4.00001 4 26.6209 4 54.5251H-4ZM-4 90.1271V54.5251H4V90.1271H-4ZM36.99 57.3476V59.6386H28.99V57.3476H36.99ZM57.2742 37.0634C46.0716 37.0634 36.99 46.1449 36.99 57.3476H28.99C28.99 41.7267 41.6533 29.0634 57.2742 29.0634V37.0634ZM75.602 37.0634H57.2742V29.0634H75.602V37.0634ZM72.9766 34.4379C72.9766 35.8879 74.152 37.0634 75.602 37.0634V29.0634C78.5703 29.0634 80.9766 31.4696 80.9766 34.4379H72.9766ZM72.9766 59.6386V34.4379H80.9766V59.6386H72.9766ZM54.9833 77.6319C64.9207 77.6319 72.9766 69.576 72.9766 59.6386H80.9766C80.9766 73.9943 69.339 85.6319 54.9833 85.6319V77.6319ZM36.99 59.6386C36.99 69.576 45.0458 77.6319 54.9833 77.6319V85.6319C40.6276 85.6319 28.99 73.9943 28.99 59.6386H36.99ZM54.9833 92.2941C73.0184 92.2941 87.6388 77.6737 87.6388 59.6386H95.6388C95.6388 82.092 77.4367 100.294 54.9833 100.294V92.2941ZM22.3278 59.6386C22.3278 77.6737 36.9481 92.2941 54.9833 92.2941V100.294C32.5299 100.294 14.3278 82.092 14.3278 59.6386H22.3278ZM22.3278 57.3476V59.6386H14.3278V57.3476H22.3278ZM57.2742 22.4012C37.9738 22.4012 22.3278 38.0472 22.3278 57.3476H14.3278C14.3278 33.6289 33.5556 14.4012 57.2742 14.4012V22.4012ZM76.9766 22.4012H57.2742V14.4012H76.9766V22.4012ZM90.2642 22.4012H76.9766V14.4012H90.2642V22.4012ZM87.6388 19.7757C87.6388 21.2257 88.8142 22.4012 90.2642 22.4012V14.4012C93.2325 14.4012 95.6388 16.8074 95.6388 19.7757H87.6388ZM87.6388 33.0634V19.7757H95.6388V33.0634H87.6388ZM87.6388 59.6386V33.0634H95.6388V59.6386H87.6388Z" fill="#A9A9A9" mask="url(#path-1-inside-1_163_62)"/>
</svg>
