<svg width="132" height="132" viewBox="0 0 132 132" fill="none" xmlns="http://www.w3.org/2000/svg">
<path fill-rule="evenodd" clip-rule="evenodd" d="M23.375 1.06394e-05H108.625C111.695 -0.0029575 114.736 0.615132 117.574 1.8189C120.411 3.02268 122.989 4.7885 125.16 7.01532C127.331 9.24213 129.053 11.8862 130.227 14.7963C131.4 17.7063 132.003 20.8252 132 23.9744V108.026C132.003 111.175 131.4 114.294 130.227 117.204C129.053 120.114 127.331 122.758 125.16 124.985C122.989 127.211 120.411 128.977 117.574 130.181C114.736 131.385 111.695 132.003 108.625 132H23.375C20.3045 132.003 17.2637 131.385 14.4264 130.181C11.5891 128.977 9.01108 127.211 6.83993 124.985C4.66879 122.758 2.94711 120.114 1.77343 117.204C0.599753 114.294 -0.00288356 111.175 1.03734e-05 108.026V23.9744C-0.00288356 20.8252 0.599753 17.7063 1.77343 14.7963C2.94711 11.8862 4.66879 9.24213 6.83993 7.01532C9.01108 4.7885 11.5891 3.02268 14.4264 1.8189C17.2637 0.615132 20.3045 -0.0029575 23.375 1.06394e-05ZM34.9421 59.879H30.4708L27.9375 72.914H31.1388C34.168 72.914 36.4004 72.3782 37.7736 71.321C39.1149 70.2883 40.0508 68.4493 40.5557 65.8556C41.005 63.5389 40.873 61.9045 40.1739 61.1293C39.7525 60.6624 38.5124 59.879 34.9421 59.879ZM21.8986 50.5683H38.1405C43.4853 50.5683 47.4868 52.0463 50.0332 54.9613C51.3745 56.4967 52.2346 58.3386 52.6103 60.4708L56.2874 41.5513C56.4332 40.8014 57.09 40.2598 57.8543 40.2598H66.2339C66.7106 40.2598 67.1623 40.4729 67.4656 40.8408C67.7689 41.2084 67.8915 41.6926 67.8008 42.1605L66.1666 50.5681H71.6956C76.854 50.5681 80.3867 51.5095 82.4957 53.4464C83.9401 54.7739 84.7411 56.5908 84.8932 58.8726L86.2562 51.8598C86.402 51.1099 87.0588 50.5683 87.8228 50.5683H104.064C109.41 50.5683 113.411 52.0463 115.957 54.9611C118.528 57.9043 119.331 61.9739 118.343 67.0562C117.945 69.1067 117.258 71.0132 116.303 72.723C115.348 74.4321 114.088 76.012 112.558 77.4195C110.708 79.15 108.617 80.4019 106.345 81.1401C104.136 81.8597 101.318 82.2247 97.9709 82.2247H92.0522L90.3 91.2414C90.1542 91.9913 89.4971 92.5329 88.7331 92.5329H80.287C79.8103 92.5329 79.3585 92.3201 79.0553 91.9522C78.7523 91.5843 78.6294 91.1004 78.7204 90.6325L80.4077 81.9509C80.151 82.1245 79.8425 82.2245 79.5142 82.2245H71.0015C70.5248 82.2245 70.0731 82.0117 69.7699 81.6438C69.4666 81.2759 69.3437 80.792 69.4347 80.324L72.7682 63.1687C73.0962 61.4821 72.8975 60.7293 72.7464 60.5667C72.7253 60.5438 72.2026 60.0118 69.7119 60.0118H64.3305L60.265 80.933C60.1192 81.6829 59.4621 82.2245 58.6981 82.2245H50.3185C49.8418 82.2245 49.3901 82.0117 49.0868 81.6438C48.7835 81.2759 48.6606 80.792 48.7516 80.324L50.1524 73.1169C49.2278 74.6753 48.0456 76.1211 46.6337 77.4201C44.7835 79.1503 42.6931 80.4019 40.4211 81.1401C38.2118 81.8597 35.3941 82.2247 32.047 82.2247H26.1283L24.3758 91.2414C24.23 91.9913 23.5732 92.5329 22.8089 92.5329H14.3628C13.8861 92.5329 13.4344 92.3201 13.1311 91.9522C12.8281 91.5843 12.7052 91.1004 12.7962 90.6325L20.332 51.8598C20.4778 51.1099 21.1346 50.5683 21.8986 50.5683ZM100.866 59.879H96.3947L93.8617 72.914H97.0627C100.092 72.914 102.324 72.3782 103.698 71.321C105.039 70.2883 105.975 68.4493 106.48 65.8554C106.929 63.5389 106.797 61.9045 106.098 61.1293C105.676 60.6624 104.436 59.879 100.866 59.879Z" fill="white"/>
</svg>
