<svg width="132" height="132" viewBox="0 0 132 132" fill="none" xmlns="http://www.w3.org/2000/svg">
<path fill-rule="evenodd" clip-rule="evenodd" d="M108.9 0H23.1C10.3422 0 0 10.3422 0 23.1V108.9C0 121.658 10.3422 132 23.1 132H108.9C121.658 132 132 121.658 132 108.9V23.1C132 10.3422 121.658 0 108.9 0ZM100.52 88.066L100.509 88.0657C100.354 87.2549 98.8033 86.2976 97.6648 85.5945C97.2781 85.3557 96.9389 85.1463 96.718 84.9818C94.9577 83.7241 93.0866 82.4114 91.2168 81.2627C90.6106 80.8961 89.7392 80.5889 88.9017 80.2936L88.9015 80.2935C88.3671 80.1051 87.8466 79.9215 87.4176 79.7306C86.9773 79.5521 86.3774 79.3737 85.7296 79.1812L85.7295 79.1811C84.1927 78.7242 82.3869 78.1874 81.8056 77.3795C80.314 75.4519 79.272 73.1209 78.2312 70.7927L78.2311 70.7927C78.1202 70.5446 78.0094 70.2967 77.898 70.0492C77.3484 68.7974 76.7358 67.5214 76.1198 66.2384L76.1196 66.2379L76.1193 66.2374C75.4429 64.8283 74.7624 63.4109 74.1569 62.008C73.8898 61.4302 73.6869 60.8841 73.4873 60.3466C73.2333 59.6629 72.9845 58.993 72.615 58.2889C68.599 50.5761 62.6539 44.1224 55.4456 39.5832C53.0774 38.1048 50.4365 36.7393 47.5195 35.8077C46.6293 35.543 45.6427 35.497 44.6461 35.4505C43.7966 35.4108 42.9398 35.3708 42.1293 35.1948H40.9723C40.3056 35.0099 39.7131 34.4784 39.1619 33.984C38.8943 33.744 38.6364 33.5127 38.3845 33.334C36.6787 32.1867 34.9729 31.4219 32.9376 30.6005C32.2223 30.2744 30.1845 29.4973 29.4693 30.1102C29.0313 30.2082 28.8093 30.3837 28.7007 30.8212C28.2603 31.4782 28.6451 32.4514 28.9202 33.0643C29.4667 34.2208 30.156 35.0671 30.8626 35.9347L30.8627 35.9348C31.2248 36.3795 31.5915 36.8297 31.9459 37.3302C32.1122 37.5631 32.2853 37.8012 32.4613 38.0433L32.4614 38.0434C33.2767 39.1646 34.1542 40.3713 34.6989 41.5407C35.4643 43.1778 36.0091 44.9079 36.5519 46.6319C37.0248 48.1338 37.4963 49.6311 38.1108 51.0579C38.6065 52.2063 39.3751 53.5181 40.0903 54.5575C40.3153 54.862 40.6078 55.1362 40.9038 55.4137C41.4062 55.8846 41.9185 56.3649 42.1281 57.019C42.6622 57.9042 41.6806 60.4389 41.0832 61.9815C40.9428 62.3443 40.8235 62.6522 40.7503 62.8708C39.3195 67.356 39.5957 73.5904 41.2462 77.4739C41.3051 77.6105 41.3636 77.7494 41.4226 77.8893C42.0235 79.3154 42.6698 80.8494 44.2716 81.2468C44.2968 81.2156 44.3091 81.1959 44.3172 81.183C44.3235 81.1729 44.3272 81.167 44.3324 81.1629C44.3399 81.157 44.3505 81.1549 44.3765 81.15C44.4 81.1455 44.4361 81.1386 44.4939 81.1242C44.5744 80.4945 44.6428 79.8696 44.7103 79.2534C44.965 76.9264 45.2061 74.7249 46.033 72.8662C46.4292 71.9047 47.0802 71.1275 47.7144 70.3704C48.0537 69.9652 48.3882 69.5658 48.6763 69.1471C49.0238 69.3534 49.1514 69.824 49.2826 70.3083C49.3587 70.5891 49.4361 70.8745 49.5582 71.1156L49.6849 71.4169C50.3624 73.0294 51.094 74.7704 51.924 76.3657C53.7409 79.8653 55.7762 83.2571 58.0864 86.3192C58.8572 87.4126 59.9575 88.6164 60.9478 89.6006C61.0986 89.7315 61.2558 89.8435 61.4106 89.9537C61.7083 90.1657 61.9973 90.3714 62.2146 90.694H62.3232V90.8595C61.278 90.4792 60.4752 89.6592 59.6917 88.859L59.6917 88.859C59.2381 88.3957 58.791 87.939 58.307 87.5781C55.8315 85.7173 52.859 82.9274 51.1531 80.2479L48.8958 75.7087V75.5861C48.6867 75.8649 48.6552 76.1431 48.6174 76.4771C48.5957 76.6689 48.5719 76.8791 48.5112 77.1183C48.307 77.8988 48.2061 78.7103 48.1086 79.4946C47.8644 81.4586 47.6415 83.2512 45.8715 83.9546C43.0519 85.1044 40.9736 82.0952 40.0917 80.7283C37.2855 76.1781 36.5145 68.5218 38.4968 62.3414C38.65 61.865 38.7563 61.3559 38.8623 60.8485C39.0609 59.8975 39.2583 58.9523 39.761 58.2385C39.6524 57.5871 39.278 57.252 38.9096 56.9221C38.7213 56.7536 38.5346 56.5864 38.3856 56.3791C37.6148 55.3409 36.9673 54.136 36.3505 52.9873C35.4678 51.2738 34.7771 49.305 34.1081 47.3983L34.108 47.398C33.9012 46.8086 33.6965 46.2252 33.4889 45.657C33.2953 45.1635 33.1678 44.6696 33.0421 44.1826L33.0421 44.1826C32.9172 43.6985 32.794 43.2212 32.6094 42.758C32.0862 41.6344 31.2215 40.5108 30.4193 39.4683L30.419 39.4679C30.2061 39.1912 29.9976 38.9203 29.801 38.6566C29.5854 38.3456 29.2975 37.9844 28.9762 37.5813C27.4321 35.6438 25.117 32.7391 26.3473 29.7964C28.66 24.1749 36.7502 28.4408 39.8868 30.4093C40.2003 30.6097 40.5317 30.9004 40.8739 31.2006C41.3733 31.6387 41.8958 32.097 42.4192 32.3241L46.5463 32.5447C46.7716 32.5973 46.9957 32.649 47.2185 32.7005C49.5412 33.2368 51.7197 33.7397 53.5769 34.7879C63.0423 40.3127 69.207 45.9452 74.8759 55.2428C75.6435 56.4927 76.1683 57.809 76.7028 59.1494C77.01 59.92 77.3205 60.6986 77.6821 61.4772L82.194 70.993C82.3946 71.392 82.5822 71.8039 82.77 72.2167L82.77 72.2167C83.2522 73.276 83.7367 74.3404 84.4511 75.2049C84.7077 75.5695 85.2818 75.7639 85.8322 75.9504C86.1074 76.0436 86.3766 76.1348 86.5973 76.2443C87.3072 76.6071 88.0761 76.9369 88.8512 77.2694L88.8516 77.2695C90.059 77.7875 91.2818 78.312 92.3207 78.978C95.5128 80.9465 98.5965 83.2987 101.402 85.705C101.969 86.2087 102.438 86.8251 102.907 87.4409C103.304 87.9611 103.7 88.4807 104.153 88.9315V89.4216L101.51 90.1879C100.551 90.4327 99.6473 90.5288 98.75 90.6241C97.8458 90.7202 96.9483 90.8156 96.0086 91.0617L95.7537 91.1343C94.646 91.4502 93.3335 91.8245 92.2121 91.9382L92.3205 92.0608C92.851 93.5603 95.1049 94.8496 96.953 95.9068L96.9534 95.907C97.5978 96.2756 98.1929 96.616 98.6482 96.9272C100.794 98.4569 102.776 100.318 104.371 102.451L106.024 104.036C106.209 104.301 106.331 104.603 106.45 104.9C106.579 105.219 106.704 105.532 106.904 105.786V105.952C106.427 105.783 106.102 105.447 105.778 105.111C105.578 104.904 105.378 104.697 105.142 104.53C104.624 104.178 104.105 103.797 103.587 103.415C102.895 102.906 102.202 102.396 101.51 101.958C100.444 101.289 99.2923 100.761 98.1349 100.232L98.1349 100.232L98.1348 100.232C97.0219 99.7222 95.9036 99.2103 94.8515 98.5674L91.3302 96.0507C90.2854 95.286 89.1284 93.8112 88.4685 92.7167C88.3016 92.4559 88.197 92.1748 88.0964 91.9045C87.9642 91.5495 87.839 91.2132 87.589 90.9661C87.6701 90.1927 88.4264 89.9962 89.1474 89.8088C89.393 89.745 89.6345 89.6823 89.8439 89.5981C92.7029 88.3954 96.1139 87.9442 100.509 88.0657C100.511 88.0756 100.513 88.0855 100.514 88.0954L100.52 88.066ZM44.3987 40.5394C43.6351 40.5326 42.8836 40.6237 42.1441 40.8127V40.9352H42.2525C42.5212 41.4692 42.9129 41.9014 43.3024 42.3312C43.5513 42.606 43.7994 42.8797 44.0139 43.1784L45.2806 45.8041L45.3893 45.6816C46.1601 45.1348 46.5461 44.2596 46.5461 42.9481C46.3624 42.7354 46.264 42.5225 46.1656 42.3095C46.087 42.1394 46.0084 41.9693 45.8864 41.7994C45.6862 41.4686 45.3451 41.2374 45.0091 41.0096L45.0091 41.0096C44.7899 40.8611 44.573 40.7141 44.3987 40.5419V40.5394ZM52.1525 113.48H49.6605C49.7375 115.801 51.6301 117.214 54.6017 117.214C57.6675 117.214 59.6115 115.698 59.6115 113.3C59.6115 111.416 58.5325 110.355 56.0575 109.824L54.5589 109.507C53.1373 109.181 52.5379 108.753 52.5379 107.991C52.5379 107.075 53.3942 106.467 54.6702 106.467C55.9633 106.467 56.8797 107.1 56.9653 108.145H59.3888C59.346 105.91 57.5391 104.428 54.6617 104.428C51.9041 104.428 49.9345 105.936 49.9345 108.214C49.9345 110.021 51.0563 111.177 53.3343 111.665L54.9443 112.016C56.4343 112.35 57.0252 112.795 57.0252 113.6C57.0252 114.508 56.0832 115.167 54.7045 115.167C53.3343 115.167 52.2724 114.499 52.1525 113.48ZM60.819 110.826C60.819 114.791 63.114 117.214 66.7793 117.214C67.5586 117.214 68.2779 117.103 68.9373 116.872L69.8194 118.165H72.3286L70.7614 115.801C72.0374 114.748 72.7311 113.001 72.7311 110.826C72.7311 106.895 70.436 104.428 66.7793 104.428C63.114 104.428 60.819 106.895 60.819 110.826ZM67.6614 114.953C67.3873 115.03 67.0962 115.073 66.7793 115.073C64.7497 115.073 63.4566 113.412 63.4566 110.826C63.4566 108.231 64.7497 106.561 66.7793 106.561C68.8003 106.561 70.0934 108.231 70.0934 110.826C70.0934 112.016 69.768 113.001 69.1857 113.669L68.6462 112.932H66.3083L67.6614 114.953ZM82.3995 117V114.859H76.9958V104.643H74.4096V117H82.3995Z" fill="white"/>
</svg>
