<svg width="216" height="41" viewBox="0 0 216 41" fill="none" xmlns="http://www.w3.org/2000/svg">
<path d="M8.61701 0.616866V40H0.740382V0.616866H8.61701ZM29.5804 20.1959L29.4116 0.616866H36.2192V40H28.5677L23.6166 18.6206L23.7854 40H16.9778V0.616866H25.0232L29.5804 20.1959ZM56.2947 40H48.4181V7.64957H43.6359V0.616866H61.077V7.64957H56.2947V40ZM84.2174 21.3774C86.5054 22.015 87.6493 23.7029 87.6493 26.4409V40H79.7727V26.4972C79.7727 25.5595 79.3039 25.0907 78.3662 25.0907H76.397V40H68.5204V0.616866H80.2791C85.1551 0.616866 87.5931 3.05487 87.5931 7.93088V15.5262C87.5931 18.6018 86.4679 20.5522 84.2174 21.3774ZM79.7165 8.88732C79.7165 7.94963 79.2476 7.48079 78.3099 7.48079H76.397V18.3955H78.3099C79.2476 18.3955 79.7165 17.9267 79.7165 16.989V8.88732ZM115.327 33.0236C115.327 37.8996 112.889 40.3376 108.013 40.3376H102.949C98.0732 40.3376 95.6352 37.8996 95.6352 33.0236V7.59331C95.6352 2.7173 98.0732 0.279298 102.949 0.279298H108.013C112.889 0.279298 115.327 2.7173 115.327 7.59331V33.0236ZM107.45 8.43723C107.45 7.49954 106.981 7.03069 106.044 7.03069H104.918C103.981 7.03069 103.512 7.49954 103.512 8.43723V32.1796C103.512 33.1173 103.981 33.5862 104.918 33.5862H106.044C106.981 33.5862 107.45 33.1173 107.45 32.1796V8.43723ZM131.401 26.3284V40H123.524V0.616866H135.058C139.934 0.616866 142.372 3.05487 142.372 7.93088V19.0144C142.372 23.8904 139.934 26.3284 135.058 26.3284H131.401ZM134.495 8.7748C134.495 7.83711 134.027 7.36826 133.089 7.36826H131.401V19.577H133.089C134.027 19.577 134.495 19.1082 134.495 18.1705V8.7748ZM150.037 0.616866H157.914V32.9673H163.597V40H150.037V0.616866ZM185.963 0.616866L191.139 40H183.319L182.7 34.2613H177.749L177.186 40H170.041L175.217 0.616866H185.963ZM180.224 10.1813L178.48 27.3974H182.025L180.224 10.1813ZM205.589 13.9509L208.402 0.616866H215.885L209.246 25.9909V40H201.369V26.5535L194.73 0.616866H202.944L205.589 13.9509Z" fill="#CE9C62"/>
</svg>
