<svg width="617" height="617" viewBox="0 0 617 617" fill="none" xmlns="http://www.w3.org/2000/svg">
<circle cx="308.5" cy="308.5" r="308.5" fill="white"/>
<mask id="mask0_89_7" style="mask-type:luminance" maskUnits="userSpaceOnUse" x="204" y="101" width="82" height="230">
<path d="M204.333 101.083H285.667V331H204.333V101.083Z" fill="white"/>
</mask>
<g mask="url(#mask0_89_7)">
<path d="M228.88 179.776C235.323 172.406 243.62 164.536 251.432 155.807C254.839 152.005 258.354 146.969 261.985 140.693C267.526 131.13 271.094 120.875 272.693 109.917C273.104 107.104 273.511 104.313 273.912 101.542C273.932 101.401 274.016 101.323 274.156 101.302C274.302 101.286 274.401 101.344 274.453 101.479C278.693 112.089 282.042 121.604 282.151 133.693C282.182 136.974 282.344 140.333 282 143.469C279.974 161.599 271.266 175.885 262.521 191.38C256.24 202.51 252.583 214.87 251.542 228.464C250.266 245.104 250.943 260.115 257.563 274.844C259.828 279.885 262.714 285.688 266.214 292.25C272.891 304.76 279.474 317.385 285.235 330.339C285.323 330.547 285.276 330.719 285.094 330.849C284.912 330.979 284.735 330.974 284.568 330.828C283.177 329.557 281.745 328.25 280.224 327.104C268.36 318.208 258.13 311.203 247.078 303.245C225.979 288.047 205.761 266.276 205.057 238.62C204.485 216.406 214.787 195.911 228.88 179.776Z" fill="#38220F"/>
</g>
<path d="M300.271 317.932C288.901 307.443 280.906 294.875 278.859 279.354C276.557 261.844 281.031 243.703 289.604 228.391C294.677 219.339 300.63 210.849 306.578 202.349C314.693 190.771 322.359 177.849 323.859 163.802C325.51 148.313 320.854 131.573 313.583 117.906C313.5 117.75 313.526 117.609 313.661 117.49C313.797 117.37 313.937 117.365 314.083 117.464C331.989 130.25 344.64 147.38 347.323 169.62C349.541 188.042 341.781 205.286 328.297 217.589C323.146 222.281 317.578 227.094 313.13 232.057C300.021 246.719 290.625 263.948 292.135 284.297C293.104 297.323 297.109 309.339 304.146 320.349C304.229 320.474 304.219 320.594 304.114 320.703C304.01 320.813 303.89 320.828 303.76 320.75C302.359 319.958 301.416 319 300.271 317.932Z" fill="#38220F"/>
<path d="M327.62 324.104C316.333 313.823 309.516 300.214 312.177 284.698C316 262.438 334.724 250.74 351.604 239.031C363.464 230.807 374.667 218.589 374.703 203.286C374.708 203.094 374.807 202.979 375 202.943C375.193 202.906 375.328 202.974 375.401 203.156C377.745 209.099 379.552 216.193 378.917 222.573C376.729 244.599 358.177 254.99 343.917 268.552C342.651 269.755 340.547 272.089 337.609 275.552C331.386 282.88 326.886 291.589 326.073 301.26C325.38 309.464 327.495 318.448 330.729 326.078C330.787 326.203 330.766 326.313 330.656 326.406C330.552 326.495 330.438 326.505 330.323 326.432C329.323 325.813 328.328 324.75 327.62 324.104Z" fill="#38220F"/>
<mask id="mask1_89_7" style="mask-type:luminance" maskUnits="userSpaceOnUse" x="158" y="295" width="340" height="203">
<path d="M158.807 295H497.667V497.083H158.807V295Z" fill="white"/>
</mask>
<g mask="url(#mask1_89_7)">
<path d="M427.125 350.901C443.396 336.609 469.198 337.667 484.292 353.135C494.635 363.745 499.13 379.182 495.062 394.042C490.338 411.323 476.963 425.302 462.562 434.927C444.094 447.26 422.271 454.995 400.068 458.031C397.542 458.38 395.016 458.708 392.489 459.026C388.797 459.484 385.255 458.693 382.182 461.536C359.766 482.276 330.557 495.828 299.797 496.958C288.724 497.359 279.057 496.885 268.391 494.729C237.573 488.51 210.062 469.958 190.891 445.307C174.005 423.594 163.776 399.156 160.208 371.995C159.849 369.266 159.614 366.135 159.5 362.609C159.224 353.771 159.021 343.719 158.88 332.448C158.833 328.656 158.969 325.214 159.297 322.109C160.536 310.177 174.125 305.323 184.26 302.536C194.323 299.776 204.536 297.74 214.896 296.438C216.802 296.193 218.005 295.724 219.469 297.38C221.979 300.224 224.495 302.974 227.026 305.635C227.109 305.724 227.13 305.828 227.088 305.938C227.042 306.052 226.963 306.115 226.844 306.125C215.833 307.255 205.062 309.141 194.531 311.771C190.318 312.823 186.323 314.38 182.536 316.438C179.88 317.88 177.802 319.724 179.083 322.865C181.062 327.698 197.437 331.505 202.562 332.448C215.239 334.781 227.932 336.198 240.766 337.286C252.141 338.255 263.807 338.865 275.766 339.125C287.729 339.385 298.672 339.724 309.807 339.344C315.224 339.161 320.646 339.016 326.062 338.906C334.328 338.734 342.859 337.943 351.156 337.156C363.375 335.995 375.594 334.568 387.625 332.094C393.338 330.917 401.786 328.865 406.406 325.292C410.266 322.297 407.672 318.167 404 316.417C399.484 314.271 394.875 312.677 390.172 311.635C380.854 309.578 371.297 308.016 361.484 306.948C356.286 306.38 349.604 306.172 343.693 305.568C343.505 305.547 343.354 305.458 343.245 305.307C343.135 305.151 343.099 304.979 343.141 304.792L345.297 295.365C345.333 295.198 345.437 295.115 345.614 295.115C352.891 295.26 361.901 295.99 367.443 296.552C381.052 297.922 394.656 300.203 407.724 304.656C413.614 306.667 421.073 310.391 424.542 315.365C427.026 318.917 427.864 323.401 427.76 327.766C427.63 333.177 427.588 338.599 427.63 344.021C427.646 346.307 427.432 348.573 426.979 350.818C426.943 350.99 426.989 351.021 427.125 350.901ZM467.656 361.401C462.224 357.943 454.812 356.625 448.599 358.156C436.656 361.12 428.448 371.297 425.323 382.807C424.396 386.229 423.458 389.651 422.516 393.073C417.443 411.526 408.667 428.839 397.208 444.177C396.724 444.828 396.88 445.089 397.682 444.948C412.646 442.411 427.062 437.474 440.927 430.125C456.552 421.849 481.021 403.099 479.724 382.917C479.151 374.005 475.255 366.229 467.656 361.401Z" fill="#38220F"/>
</g>
</svg>
