<svg width="500" height="500" viewBox="0 0 500 500" fill="none" xmlns="http://www.w3.org/2000/svg">
<mask id="mask0_127_16" style="mask-type:luminance" maskUnits="userSpaceOnUse" x="145" y="42" width="82" height="230">
<path d="M145.333 42.0833H226.667V272H145.333V42.0833Z" fill="white"/>
</mask>
<g mask="url(#mask0_127_16)">
<path d="M169.88 120.776C176.323 113.406 184.62 105.536 192.432 96.8073C195.838 93.0052 199.354 87.9687 202.984 81.6927C208.526 72.1302 212.094 61.875 213.693 50.9166C214.104 48.1041 214.51 45.3125 214.911 42.5416C214.932 42.401 215.016 42.3229 215.156 42.3021C215.302 42.2864 215.401 42.3437 215.453 42.4791C219.693 53.0885 223.042 62.6041 223.151 74.6927C223.182 77.9739 223.344 81.3333 223 84.4687C220.974 102.599 212.266 116.885 203.521 132.38C197.239 143.51 193.583 155.87 192.542 169.464C191.266 186.104 191.943 201.115 198.562 215.844C200.828 220.885 203.713 226.687 207.213 233.25C213.891 245.76 220.474 258.385 226.234 271.339C226.323 271.547 226.276 271.719 226.094 271.849C225.911 271.979 225.734 271.974 225.568 271.828C224.177 270.557 222.745 269.25 221.224 268.104C209.359 259.208 199.13 252.203 188.078 244.245C166.979 229.047 146.76 207.276 146.057 179.62C145.484 157.406 155.786 136.911 169.88 120.776Z" fill="#967259"/>
</g>
<path d="M241.271 258.932C229.901 248.443 221.906 235.875 219.859 220.354C217.557 202.844 222.031 184.703 230.604 169.391C235.677 160.339 241.63 151.849 247.578 143.349C255.693 131.771 263.359 118.849 264.859 104.802C266.51 89.3125 261.854 72.5729 254.583 58.9062C254.5 58.75 254.526 58.6094 254.661 58.4896C254.797 58.3698 254.937 58.3646 255.083 58.4635C272.989 71.25 285.64 88.3802 288.323 110.62C290.541 129.042 282.781 146.286 269.297 158.589C264.146 163.281 258.578 168.094 254.13 173.057C241.021 187.719 231.625 204.948 233.135 225.297C234.104 238.323 238.109 250.339 245.146 261.349C245.229 261.474 245.219 261.594 245.114 261.703C245.01 261.813 244.89 261.828 244.76 261.75C243.359 260.958 242.416 260 241.271 258.932Z" fill="#967259"/>
<path d="M268.62 265.104C257.333 254.823 250.516 241.214 253.177 225.698C257 203.438 275.724 191.74 292.604 180.031C304.464 171.807 315.667 159.589 315.703 144.286C315.708 144.094 315.807 143.979 316 143.943C316.193 143.906 316.328 143.974 316.401 144.156C318.745 150.099 320.552 157.193 319.917 163.573C317.729 185.599 299.177 195.99 284.917 209.552C283.651 210.755 281.547 213.089 278.609 216.552C272.386 223.88 267.886 232.589 267.073 242.26C266.38 250.464 268.495 259.448 271.729 267.078C271.787 267.203 271.766 267.313 271.656 267.406C271.552 267.495 271.438 267.505 271.323 267.432C270.323 266.813 269.328 265.75 268.62 265.104Z" fill="#967259"/>
<mask id="mask1_127_16" style="mask-type:luminance" maskUnits="userSpaceOnUse" x="99" y="236" width="340" height="203">
<path d="M99.8074 236H438.667V438.083H99.8074V236Z" fill="white"/>
</mask>
<g mask="url(#mask1_127_16)">
<path d="M368.125 291.901C384.396 277.609 410.198 278.667 425.292 294.135C435.636 304.745 440.13 320.182 436.063 335.042C431.339 352.323 417.964 366.302 403.563 375.927C385.094 388.26 363.271 395.995 341.068 399.031C338.542 399.38 336.016 399.708 333.49 400.026C329.797 400.484 326.255 399.693 323.182 402.537C300.766 423.276 271.557 436.828 240.797 437.958C229.724 438.359 220.057 437.885 209.391 435.729C178.573 429.51 151.063 410.958 131.891 386.307C115.005 364.594 104.776 340.156 101.208 312.995C100.849 310.266 100.615 307.135 100.5 303.609C100.224 294.771 100.021 284.719 99.8804 273.448C99.8335 269.656 99.9689 266.214 100.297 263.109C101.537 251.177 115.125 246.323 125.261 243.536C135.323 240.776 145.537 238.74 155.896 237.438C157.802 237.193 159.005 236.724 160.469 238.38C162.979 241.224 165.495 243.974 168.026 246.635C168.11 246.724 168.13 246.828 168.089 246.938C168.042 247.052 167.964 247.115 167.844 247.125C156.833 248.255 146.063 250.141 135.531 252.771C131.318 253.823 127.323 255.38 123.537 257.438C120.88 258.88 118.802 260.724 120.083 263.865C122.063 268.698 138.438 272.505 143.563 273.448C156.24 275.781 168.932 277.198 181.766 278.287C193.141 279.255 204.807 279.865 216.766 280.125C228.729 280.385 239.672 280.724 250.807 280.344C256.224 280.162 261.646 280.016 267.063 279.906C275.328 279.734 283.86 278.943 292.156 278.156C304.375 276.995 316.594 275.568 328.625 273.094C334.339 271.917 342.787 269.865 347.406 266.292C351.266 263.297 348.672 259.167 345 257.417C340.485 255.271 335.875 253.677 331.172 252.635C321.854 250.578 312.297 249.016 302.485 247.948C297.287 247.38 290.604 247.172 284.693 246.568C284.505 246.547 284.354 246.458 284.245 246.307C284.136 246.151 284.099 245.979 284.141 245.792L286.297 236.365C286.333 236.198 286.438 236.115 286.615 236.115C293.891 236.26 302.901 236.99 308.443 237.552C322.052 238.922 335.656 241.203 348.724 245.656C354.615 247.667 362.073 251.391 365.542 256.365C368.026 259.917 368.865 264.401 368.761 268.766C368.63 274.177 368.589 279.599 368.63 285.021C368.646 287.307 368.432 289.573 367.979 291.818C367.943 291.99 367.99 292.021 368.125 291.901ZM408.656 302.401C403.224 298.943 395.813 297.625 389.599 299.156C377.656 302.12 369.448 312.297 366.323 323.807C365.396 327.229 364.458 330.651 363.516 334.073C358.443 352.526 349.667 369.839 338.208 385.177C337.724 385.828 337.88 386.089 338.682 385.948C353.646 383.412 368.063 378.474 381.927 371.125C397.552 362.849 422.021 344.099 420.724 323.917C420.151 315.005 416.255 307.229 408.656 302.401Z" fill="#967259"/>
</g>
</svg>
