<svg width="38" height="38" viewBox="0 0 38 38" fill="none" xmlns="http://www.w3.org/2000/svg">
<g clip-path="url(#clip0_157_67)">
<rect width="38" height="38" fill="#101823"/>
<path d="M19.0016 0C8.50507 0 0 8.50646 0 19.0037C0 29.4946 8.50507 38.0005 19.0016 38.0005C29.4997 38.0005 38 29.4946 38 19.0037C38 8.50594 29.4997 0 19.0016 0ZM27.3104 24.5605C28.0339 25.3075 27.8104 26.6997 26.8073 27.6722C25.8048 28.6448 24.4062 28.831 23.6811 28.084L18.9454 23.2081L14.0676 27.9434C13.3221 28.6668 11.9298 28.4402 10.9571 27.4393C9.98448 26.4384 9.79982 25.0399 10.5453 24.315L15.4232 19.5797L10.6875 14.7022C9.96402 13.9568 10.1912 12.563 11.1921 11.5904C12.1915 10.6194 13.5933 10.4343 14.3152 11.1786L19.0509 16.0556L23.9303 11.3224C24.6774 10.5974 26.0697 10.824 27.0408 11.8249C28.015 12.8258 28.1981 14.2259 27.4526 14.9508L22.5763 19.6846L27.3104 24.5605Z" fill="#D9D9D9"/>
</g>
<defs>
<clipPath id="clip0_157_67">
<rect width="38" height="38" fill="white"/>
</clipPath>
</defs>
</svg>
