<svg width="189" height="29" viewBox="0 0 189 29" fill="none" xmlns="http://www.w3.org/2000/svg">
<path d="M0 14.3802V0L23.1913 29H11.5957L0 14.3802Z" fill="#ECE7E1"/>
<path d="M30.9616 19.2934H19.605L34.8468 0V14.3802L30.9616 19.2934Z" fill="#ECE7E1"/>
<path d="M45.37 8.85C45.37 8.08091 45.5255 7.36909 45.8364 6.71455C46.1637 6.06 46.5973 5.49545 47.1373 5.02091C47.6937 4.54636 48.3318 4.17 49.0518 3.89182C49.7882 3.61364 50.5655 3.47454 51.3837 3.47454C52.66 3.47454 53.7646 3.70364 54.6973 4.16182C55.6464 4.60364 56.3582 5.11909 56.8328 5.70818C56.9473 5.85545 56.9391 5.98636 56.8082 6.10091L55.1146 7.86818C55.0491 7.93364 54.9673 7.96636 54.8691 7.96636C54.7873 7.96636 54.7137 7.92545 54.6482 7.84364C54.5009 7.68 54.3128 7.51636 54.0837 7.35273C53.8709 7.18909 53.6173 7.04182 53.3228 6.91091C53.0446 6.76364 52.7418 6.64909 52.4146 6.56727C52.0873 6.48545 51.7518 6.44454 51.4082 6.44454C50.9991 6.44454 50.6228 6.51 50.2791 6.64091C49.9518 6.75545 49.6737 6.91091 49.4446 7.10727C49.2155 7.30364 49.0355 7.53273 48.9046 7.79454C48.7737 8.05636 48.7082 8.33455 48.7082 8.62909C48.7082 9.10364 48.8637 9.51273 49.1746 9.85636C49.4855 10.2 49.9518 10.4373 50.5737 10.5682L52.9791 11.0345C53.7646 11.1818 54.4518 11.4191 55.0409 11.7464C55.6464 12.0573 56.1455 12.4336 56.5382 12.8755C56.9473 13.3173 57.2582 13.8164 57.4709 14.3727C57.6837 14.9127 57.79 15.4855 57.79 16.0909C57.79 16.7455 57.6509 17.3918 57.3728 18.03C57.1109 18.6682 56.71 19.2409 56.17 19.7482C55.6464 20.2555 55 20.6645 54.2309 20.9755C53.4618 21.27 52.5782 21.4173 51.58 21.4173C50.8764 21.4173 50.2137 21.3436 49.5918 21.1964C48.9864 21.0491 48.43 20.8609 47.9228 20.6318C47.4318 20.3864 46.9982 20.1245 46.6218 19.8464C46.2455 19.5518 45.9346 19.2655 45.6891 18.9873C45.5746 18.8727 45.5746 18.7418 45.6891 18.5945L47.2355 16.6064C47.2846 16.5245 47.35 16.4836 47.4318 16.4836C47.53 16.4673 47.6118 16.4918 47.6773 16.5573C47.9064 16.77 48.16 16.9909 48.4382 17.22C48.7164 17.4327 49.0191 17.6291 49.3464 17.8091C49.6737 17.9891 50.0255 18.1364 50.4018 18.2509C50.7782 18.3655 51.1791 18.4227 51.6046 18.4227C52.5046 18.4227 53.1918 18.2264 53.6664 17.8336C54.1409 17.4409 54.3782 16.9336 54.3782 16.3118C54.3782 15.8209 54.1982 15.3955 53.8382 15.0355C53.4946 14.6591 52.9791 14.4055 52.2918 14.2745L49.8864 13.7836C48.5118 13.5055 47.4155 12.9409 46.5973 12.09C45.7791 11.2391 45.37 10.1591 45.37 8.85ZM60.2904 20.6564V4.06364C60.2904 3.98182 60.3149 3.91636 60.364 3.86727C60.4295 3.80182 60.5031 3.76909 60.5849 3.76909H73.5449C73.6268 3.76909 73.6922 3.80182 73.7413 3.86727C73.8068 3.91636 73.8395 3.98182 73.8395 4.06364V7.67182C73.8395 7.90091 73.7659 8.10545 73.6186 8.28545L70.0349 12.9736C69.8222 13.2355 69.5522 13.3664 69.2249 13.3664H66.1077C66.0095 13.3664 65.9359 13.3336 65.8868 13.2682C65.854 13.1864 65.8704 13.1045 65.9359 13.0227L70.6486 6.88636H63.4322V20.6564C63.4322 20.8527 63.3259 20.9509 63.1131 20.9509H60.5849C60.5031 20.9509 60.4295 20.9264 60.364 20.8773C60.3149 20.8118 60.2904 20.7382 60.2904 20.6564ZM76.6929 3.81818H79.2211C79.4338 3.81818 79.5402 3.91636 79.5402 4.11273V20.7055C79.5402 20.9018 79.4338 21 79.2211 21H76.6929C76.6111 21 76.5374 20.9755 76.472 20.9264C76.4229 20.8609 76.3984 20.7873 76.3984 20.7055V4.11273C76.3984 4.03091 76.4229 3.96545 76.472 3.91636C76.5374 3.85091 76.6111 3.81818 76.6929 3.81818ZM87.2097 12.2373L93.3706 4.21091C93.5833 3.94909 93.8533 3.81818 94.1806 3.81818H97.2979C97.396 3.81818 97.4615 3.85909 97.4942 3.94091C97.5433 4.00636 97.5433 4.08 97.4942 4.16182L91.1615 12.4091L97.4697 20.6564C97.5351 20.7382 97.5433 20.82 97.4942 20.9018C97.4615 20.9673 97.396 21 97.2979 21H94.1806C93.8533 21 93.5833 20.8691 93.3706 20.6073L87.2097 12.6055C87.1279 12.4745 87.1279 12.3518 87.2097 12.2373ZM83.086 4.11273C83.086 4.03091 83.1106 3.96545 83.1597 3.91636C83.2251 3.85091 83.2988 3.81818 83.3806 3.81818H85.9088C86.1215 3.81818 86.2279 3.91636 86.2279 4.11273V20.7055C86.2279 20.9018 86.1215 21 85.9088 21H83.3806C83.2988 21 83.2251 20.9755 83.1597 20.9264C83.1106 20.8609 83.086 20.7873 83.086 20.7055V4.11273ZM99.7282 3.81818H111.093C111.191 3.81818 111.256 3.85909 111.289 3.94091C111.338 4.00636 111.33 4.08 111.265 4.16182L109.448 6.54273C109.236 6.80455 108.966 6.93545 108.638 6.93545H102.576V10.8627H108.712C108.908 10.8627 109.006 10.9609 109.006 11.1573V13.6609C109.006 13.8736 108.908 13.98 108.712 13.98H102.576V17.8827H110.332C110.414 17.8827 110.479 17.9155 110.528 17.9809C110.594 18.03 110.626 18.0955 110.626 18.1773V20.7055C110.626 20.9018 110.528 21 110.332 21H99.7282C99.6464 21 99.5728 20.9755 99.5073 20.9264C99.4582 20.8609 99.4337 20.7873 99.4337 20.7055V4.11273C99.4337 4.03091 99.4582 3.96545 99.5073 3.91636C99.5728 3.85091 99.6464 3.81818 99.7282 3.81818ZM120.327 3.76909H123.444C123.771 3.76909 124.041 3.9 124.254 4.16182L133.09 15.6491V4.06364C133.09 3.98182 133.115 3.91636 133.164 3.86727C133.23 3.80182 133.303 3.76909 133.385 3.76909H135.717C136.044 3.76909 136.314 3.9 136.527 4.16182L145.339 15.6491V4.06364C145.339 3.98182 145.371 3.91636 145.437 3.86727C145.502 3.80182 145.576 3.76909 145.658 3.76909H148.186C148.268 3.76909 148.333 3.80182 148.382 3.86727C148.448 3.91636 148.48 3.98182 148.48 4.06364V20.6564C148.48 20.8527 148.382 20.9509 148.186 20.9509H145.854C145.527 20.9509 145.257 20.82 145.044 20.5582L136.208 9.07091V20.6564C136.208 20.8527 136.11 20.9509 135.913 20.9509H133.581C133.254 20.9509 132.984 20.82 132.771 20.5582L120.155 4.11273C120.09 4.04727 120.081 3.97364 120.13 3.89182C120.18 3.81 120.245 3.76909 120.327 3.76909ZM152.319 3.81818H154.847C155.06 3.81818 155.166 3.91636 155.166 4.11273V20.7055C155.166 20.9018 155.06 21 154.847 21H152.319C152.237 21 152.163 20.9755 152.098 20.9264C152.049 20.8609 152.024 20.7873 152.024 20.7055V4.11273C152.024 4.03091 152.049 3.96545 152.098 3.91636C152.163 3.85091 152.237 3.81818 152.319 3.81818ZM162.836 12.2373L168.996 4.21091C169.209 3.94909 169.479 3.81818 169.806 3.81818H172.924C173.022 3.81818 173.087 3.85909 173.12 3.94091C173.169 4.00636 173.169 4.08 173.12 4.16182L166.787 12.4091L173.096 20.6564C173.161 20.7382 173.169 20.82 173.12 20.9018C173.087 20.9673 173.022 21 172.924 21H169.806C169.479 21 169.209 20.8691 168.996 20.6073L162.836 12.6055C162.754 12.4745 162.754 12.3518 162.836 12.2373ZM158.712 4.11273C158.712 4.03091 158.736 3.96545 158.786 3.91636C158.851 3.85091 158.925 3.81818 159.006 3.81818H161.535C161.747 3.81818 161.854 3.91636 161.854 4.11273V20.7055C161.854 20.9018 161.747 21 161.535 21H159.006C158.925 21 158.851 20.9755 158.786 20.9264C158.736 20.8609 158.712 20.7873 158.712 20.7055V4.11273ZM175.354 3.81818H177.882C178.095 3.81818 178.201 3.91636 178.201 4.11273V20.7055C178.201 20.9018 178.095 21 177.882 21H175.354C175.272 21 175.199 20.9755 175.133 20.9264C175.084 20.8609 175.06 20.7873 175.06 20.7055V4.11273C175.06 4.03091 175.084 3.96545 175.133 3.91636C175.199 3.85091 175.272 3.81818 175.354 3.81818Z" fill="#ECE7E1"/>
</svg>
