<svg width="127" height="70" viewBox="0 0 127 70" fill="none" xmlns="http://www.w3.org/2000/svg">
<path d="M14.8764 69.887C6.80998 69.9494 0.245199 63.4607 0.213528 55.3942L0.0572328 15.5862C0.0255615 7.51962 6.539 0.929769 14.6054 0.867358L112.105 0.112994C120.171 0.0505834 126.736 6.53925 126.768 14.6058L126.982 69.0196L14.8764 69.887Z" fill="#F33A3A"/>
<path d="M11.9774 23.2052C5.81531 23.2529 0.800379 18.2961 0.776185 12.1339V12.1339C0.75199 5.97169 5.72771 0.937596 11.8898 0.889919L112.307 0.112983C120.373 0.0505724 126.938 6.53924 126.97 14.6058L127 22.3152L11.9774 23.2052Z" fill="white"/>
<path d="M19.3963 34.5881H15.0842V30.7665H19.3963V34.5881ZM22.5336 39.1713C21.9827 39.1713 21.3501 39.1799 20.6357 39.1971C19.9213 39.2057 19.5211 39.21 19.435 39.21V53.2309C19.435 54.5822 19.4006 55.4214 19.3317 55.7485C19.2715 56.0841 19.0133 56.7641 18.5571 57.7883C18.3333 58.3736 17.7007 59.1267 16.6592 60.0477C15.6264 60.9772 14.8862 61.442 14.4386 61.442C14.3698 61.2527 14.2105 60.9729 13.9609 60.6028C13.6253 60.1036 13.1605 59.3505 12.5666 58.3435C12.9625 58.1197 13.324 57.8529 13.6511 57.543C14.1245 57.0955 14.5075 56.579 14.8001 55.9938C14.8948 55.8044 14.9981 55.4601 15.11 54.9609C15.2305 54.4617 15.2907 54.0314 15.2907 53.6699C15.2907 53.5494 15.2864 53.4633 15.2778 53.4116L15.11 35.9308H22.4174C22.4174 36.714 22.4346 37.4714 22.469 38.203C22.4776 38.4612 22.4991 38.784 22.5336 39.1713ZM46.3148 51.3201L43.5648 54.0443C43.4788 54.0443 43.0958 53.6569 42.4158 52.8823C42.0543 52.4778 41.6971 52.0689 41.3442 51.6558C40.9913 51.2771 40.7202 50.9845 40.5309 50.7779C40.1694 50.382 39.8165 49.9645 39.4722 49.5256C38.689 48.5272 38.052 47.6923 37.5614 47.0209C37.2602 46.5992 36.9589 46.1731 36.6577 45.7428C36.4253 45.4243 36.2058 45.1575 35.9993 44.9423L36.0251 46.4141C35.5087 46.4141 35.0998 46.4227 34.7986 46.4399C34.4973 46.4486 34.166 46.4572 33.8045 46.4658C33.5032 47.0769 32.9093 48.1527 32.0228 49.6934C31.1793 51.1738 30.4778 52.3616 29.9184 53.2567H25.5675C25.5675 53.2309 26.0538 52.3487 27.0264 50.6101C28.7564 47.5201 29.6559 45.9106 29.7247 45.7815C30.6973 44.0515 31.1879 43.1865 31.1965 43.1865L35.0697 43.2123C35.0181 43.1004 34.7685 42.6787 34.3209 41.9471C33.8819 41.2155 33.6237 40.7593 33.5463 40.5786C33.6409 40.4925 33.8905 40.3376 34.2951 40.1138C34.7082 39.8814 35.0439 39.6447 35.3021 39.4037H26.0969C26.0796 38.8701 26.0667 38.2848 26.0581 37.6479C26.0495 37.0109 26.0452 36.4472 26.0452 35.9566L45.9275 35.9049L45.9533 39.4037L37.4711 39.4424C37.8326 40.0621 38.1811 40.656 38.5168 41.2241C39.0763 42.1622 39.554 42.9283 39.9499 43.5222C40.518 44.3829 41.0258 45.08 41.4733 45.6137C41.6541 45.8288 41.9123 46.1516 42.248 46.582C42.9107 47.4341 43.4659 48.1183 43.9134 48.6347C44.6881 49.5299 45.2131 50.1324 45.4885 50.4422C45.6865 50.6574 45.9619 50.95 46.3148 51.3201ZM70.1477 53.2309C69.8292 53.2309 69.1751 53.2266 68.1853 53.218C67.1955 53.2094 66.5327 53.2051 66.1971 53.2051C66.1971 52.9383 66.1798 52.4606 66.1454 51.772C66.1196 51.0748 66.1067 50.3648 66.1067 49.6418H70.1477V53.2309ZM70.5737 40.4753C70.5737 41.3274 70.4059 42.0719 70.0702 42.7088C69.7345 43.3371 69.2741 43.8148 68.6888 44.1419C68.3101 44.3484 67.8668 44.4861 67.359 44.555C66.8598 44.6153 66.1411 44.6454 65.2029 44.6454C64.7726 44.6454 64.0367 44.6411 62.9952 44.6325C61.9538 44.6239 61.347 44.6196 61.1748 44.6196C60.2969 44.6196 59.0188 44.6282 57.3404 44.6454C55.6706 44.6626 54.7196 44.6712 54.4872 44.6712C54.3064 44.6712 54.1859 44.7142 54.1257 44.8003C54.0654 44.8778 54.0353 44.994 54.0353 45.1489C54.0353 45.235 54.0396 45.3296 54.0482 45.4329C54.0568 45.5362 54.0611 45.5922 54.0611 45.6008L54.087 49.9387C53.9837 50.8252 53.7125 51.63 53.2736 52.353C53.1359 52.5854 52.7572 53.0889 52.1375 53.8635C51.9739 53.6914 51.3585 52.9942 50.2912 51.772C49.8351 51.247 49.5209 50.8941 49.3488 50.7133C49.6328 50.4379 49.8093 50.2012 49.8781 50.0033C49.9986 49.659 50.0589 49.0393 50.0589 48.1441L50.033 41.095H65.9647C66.2917 41.095 66.5069 40.9745 66.6102 40.7335C66.6618 40.613 66.6877 40.3763 66.6877 40.0234C66.6877 39.6619 66.5973 39.451 66.4165 39.3908C66.2358 39.3219 65.6376 39.2875 64.622 39.2875H50.033L50.0589 35.9049C50.3515 35.9049 50.7431 35.9092 51.2337 35.9178C51.7329 35.9178 52.4602 35.9221 53.4156 35.9308C54.3796 35.9394 55.0768 35.9437 55.5071 35.9437H56.0235H56.4496H56.7982H57.0822H57.3017H57.4824H57.6244C57.9429 35.9437 58.1193 35.9221 58.1538 35.8791V33.5423H62.169V35.8533H70.5479C70.5479 36.3439 70.5522 37.0712 70.5608 38.0352C70.5694 38.9992 70.5737 39.8125 70.5737 40.4753ZM64.906 53.2309C64.5875 53.2309 63.9334 53.2266 62.9436 53.218C61.9538 53.2094 61.291 53.2051 60.9554 53.2051C60.9554 52.9383 60.9382 52.4606 60.9037 51.772C60.8779 51.0748 60.865 50.3648 60.865 49.6418H64.906V53.2309ZM95.1167 51.3201L92.3668 54.0443C92.2807 54.0443 91.8977 53.6569 91.2177 52.8823C90.8562 52.4778 90.499 52.0689 90.1461 51.6558C89.7932 51.2771 89.5221 50.9845 89.3328 50.7779C88.9713 50.382 88.6184 49.9645 88.2741 49.5256C87.4909 48.5272 86.8539 47.6923 86.3633 47.0209C86.0621 46.5992 85.7609 46.1731 85.4596 45.7428C85.2272 45.4243 85.0077 45.1575 84.8012 44.9423L84.827 46.4141C84.3106 46.4141 83.9017 46.4227 83.6005 46.4399C83.2992 46.4486 82.9679 46.4572 82.6064 46.4658C82.3051 47.0769 81.7112 48.1527 80.8247 49.6934C79.9812 51.1738 79.2798 52.3616 78.7203 53.2567H74.3694C74.3694 53.2309 74.8557 52.3487 75.8283 50.6101C77.5583 47.5201 78.4578 45.9106 78.5266 45.7815C79.4992 44.0515 79.9898 43.1865 79.9984 43.1865L83.8716 43.2123C83.82 43.1004 83.5704 42.6787 83.1228 41.9471C82.6838 41.2155 82.4256 40.7593 82.3482 40.5786C82.4428 40.4925 82.6924 40.3376 83.097 40.1138C83.5101 39.8814 83.8458 39.6447 84.104 39.4037H74.8988C74.8816 38.8701 74.8686 38.2848 74.86 37.6479C74.8514 37.0109 74.8471 36.4472 74.8471 35.9566L94.7294 35.9049L94.7552 39.4037L86.273 39.4424C86.6345 40.0621 86.9831 40.656 87.3187 41.2241C87.8782 42.1622 88.3559 42.9283 88.7518 43.5222C89.3199 44.3829 89.8277 45.08 90.2752 45.6137C90.456 45.8288 90.7142 46.1516 91.0499 46.582C91.7126 47.4341 92.2678 48.1183 92.7153 48.6347C93.49 49.5299 94.015 50.1324 94.2904 50.4422C94.4884 50.6574 94.7638 50.95 95.1167 51.3201ZM118.394 53.2309C118.386 53.2567 117.925 53.2696 117.013 53.2696C116.101 53.2782 115.184 53.2868 114.263 53.2955C113.755 51.7978 113.252 50.3002 112.753 48.8026C112.055 46.7283 111.401 44.8218 110.79 43.0832C110.093 41.095 109.632 39.8771 109.409 39.4295C109.366 39.3521 109.284 39.3004 109.163 39.2746C109.051 39.2488 108.836 39.2359 108.518 39.2359C108.423 39.2359 107.915 39.2445 106.994 39.2617C106.073 39.2789 105.161 39.2875 104.257 39.2875V53.2309H98.1894L98.1765 50.4164L100.268 50.3906L100.216 39.21C99.7516 39.21 99.3772 39.2229 99.0932 39.2488C98.8091 39.2746 98.6585 39.2875 98.6413 39.2875C98.5552 39.2875 98.4734 39.2875 98.396 39.2875C98.2927 39.2617 98.2109 39.2445 98.1507 39.2359V35.7887H110.88C111.603 35.7887 112.202 36.1847 112.675 36.9765C113.054 37.8458 113.282 38.3536 113.359 38.5H113.63V35.8146H117.517V39.2617H113.54L118.394 53.2309Z" fill="#191919"/>
<path d="M14.8621 15.6313V6.74077H20.6664V7.61712H15.9163V10.6399H20.0949V11.5036H15.9163V14.755H20.6664V15.6313H14.8621ZM35.2305 15.6313L32.7538 11.8465L30.2899 15.6313H29.1214L32.1823 11.0717L29.2992 6.74077H30.5058L32.8046 10.2716L35.1035 6.74077H36.272L33.3762 11.0463L36.4371 15.6313H35.2305ZM46.0416 7.59172V11.2242H48.2007C49.7375 11.2242 50.3726 10.4748 50.3726 9.40794C50.3726 8.34107 49.7375 7.59172 48.2007 7.59172H46.0416ZM48.1626 12.0751H46.0416V15.6313H44.9874V6.74077H48.1626C50.4615 6.74077 51.4775 7.82034 51.4775 9.40794C51.4775 10.9955 50.4615 12.0751 48.1626 12.0751ZM60.2051 15.6313V6.74077H61.2593V14.755H65.8316V15.6313H60.2051ZM77.4292 15.8219C74.9779 15.8219 73.5428 14.0437 73.5428 11.1988V11.1734C73.5428 8.32837 74.9779 6.55025 77.4292 6.55025C79.8805 6.55025 81.3157 8.32837 81.3157 11.1734V11.1988C81.3157 14.0437 79.8805 15.8219 77.4292 15.8219ZM77.4292 14.9709C79.1184 14.9709 80.2361 13.7135 80.2361 11.1988V11.1734C80.2361 8.65859 79.1184 7.40121 77.4292 7.40121C75.74 7.40121 74.6223 8.65859 74.6223 11.1734V11.1988C74.6223 13.7135 75.74 14.9709 77.4292 14.9709ZM91.2853 7.59172V10.9193H93.5715C94.8542 10.9193 95.4385 10.2589 95.4385 9.25553C95.4385 8.25216 94.8542 7.59172 93.5715 7.59172H91.2853ZM95.6925 15.6313L93.3683 11.7703H91.2853V15.6313H90.2311V6.74077H93.5334C95.6163 6.74077 96.5435 7.84574 96.5435 9.30633C96.5435 10.6272 95.7052 11.3766 94.4605 11.6433L96.8864 15.6313H95.6925ZM105.622 15.6313V6.74077H111.427V7.61712H106.677V10.6399H110.855V11.5036H106.677V14.755H111.427V15.6313H105.622Z" fill="black"/>
</svg>
