<svg width="92" height="100" viewBox="0 0 92 100" fill="none" xmlns="http://www.w3.org/2000/svg">
<circle cx="58" cy="52" r="33" fill="#555853"/>
<path fill-rule="evenodd" clip-rule="evenodd" d="M0 90.1271C0 93.9229 3.0771 97 6.8729 97C10.6687 97 13.7458 93.9229 13.7458 90.1271V54.5251C13.7458 32.0033 32.0033 13.7458 54.525 13.7458H84.3229C88.1187 13.7458 91.1958 10.6687 91.1958 6.8729C91.1958 3.0771 88.1187 0 84.3229 0H54.525C24.4117 0 0 24.4117 0 54.5251V90.1271ZM31.3278 59.6386V57.3476C31.3278 43.0178 42.9444 31.4011 57.2742 31.4011H77.2642C78.0233 31.4011 78.6388 32.0166 78.6388 32.7757V59.6385C78.6388 72.7031 68.0478 83.2941 54.9833 83.2941C41.9187 83.2941 31.3278 72.7031 31.3278 59.6386ZM91.6388 59.6385C91.6388 79.8828 75.2275 96.2941 54.9833 96.2941C34.739 96.2941 18.3278 79.8828 18.3278 59.6386V57.3476C18.3278 35.8381 35.7647 18.4011 57.2742 18.4011H78.6388H90.2642C91.0233 18.4011 91.6388 19.0166 91.6388 19.7757V31.4011V59.6385Z" fill="#8EC861"/>
<path d="M6.87278 93L6.87278 54.525C6.87277 28.2075 28.2074 6.87289 54.5249 6.87289H84.3228" stroke="#8EC861" stroke-width="13.7458" stroke-linecap="round"/>
<circle cx="55" cy="57" r="11" fill="white"/>
</svg>
