<svg width="132" height="132" viewBox="0 0 132 132" fill="none" xmlns="http://www.w3.org/2000/svg">
<path fill-rule="evenodd" clip-rule="evenodd" d="M23.1 0H108.9C121.658 0 132 10.3423 132 23.1001V108.9C132 121.658 121.658 132 108.9 132H23.1C10.3422 132 0 121.658 0 108.9V23.1001C0 10.3423 10.3422 0 23.1 0ZM85.5487 65.5415C89.7235 66.6799 92.9668 68.8191 95.2095 71.9246C97.4524 75.03 98.5565 78.8254 98.5565 83.3105C98.5565 91.4189 96.0723 97.4917 91.1038 101.597C86.1008 105.635 78.7515 107.739 68.9872 107.808H33V25H65.2606C75.5773 25 81.6499 27.6226 87.0323 31.5212C92.4148 35.4202 95.106 41.1133 95.106 48.5315C95.106 52.8098 94.14 56.4673 92.2422 59.5037C89.068 64.2649 85.5487 65.5415 85.5487 65.5415ZM68.3661 38.8015H53.702V57.7783H68.3661C73.6106 57.7783 77.8546 53.5344 77.8546 48.2898C77.8546 43.0452 73.6106 38.8015 68.3661 38.8015ZM53.702 94.0068H70.9537C76.6814 94.0068 81.3048 89.3833 81.3048 83.6558C81.3048 77.9282 76.6814 73.3047 70.9537 73.3047H53.702V94.0068Z" fill="white"/>
</svg>
