<svg width="132" height="132" viewBox="0 0 132 132" fill="none" xmlns="http://www.w3.org/2000/svg">
<path fill-rule="evenodd" clip-rule="evenodd" d="M23.375 1.06394e-05H108.625C111.695 -0.0029575 114.736 0.615132 117.574 1.8189C120.411 3.02268 122.989 4.7885 125.16 7.01532C127.331 9.24213 129.053 11.8862 130.227 14.7963C131.4 17.7063 132.003 20.8252 132 23.9744V108.026C132.003 111.175 131.4 114.294 130.227 117.204C129.053 120.114 127.331 122.758 125.16 124.985C122.989 127.212 120.411 128.977 117.574 130.181C114.736 131.385 111.695 132.003 108.625 132H23.375C20.3045 132.003 17.2637 131.385 14.4264 130.181C11.5891 128.977 9.01108 127.212 6.83993 124.985C4.66879 122.758 2.94711 120.114 1.77343 117.204C0.599753 114.294 -0.00288356 111.175 1.03734e-05 108.026V23.9744C-0.00288356 20.8252 0.599753 17.7063 1.77343 14.7963C2.94711 11.8862 4.66879 9.24213 6.83993 7.01532C9.01108 4.7885 11.5891 3.02268 14.4264 1.8189C17.2637 0.615132 20.3045 -0.0029575 23.375 1.06394e-05ZM32.3104 54.4155L33.6092 68.9091H65.9934H66.0434H83.8408L82.1581 87.7064L65.993 92.0695V92.0705L65.9798 92.074L49.8383 87.7155L48.8063 76.1562H34.2568L36.2872 98.9135L65.9766 107.155L66.0434 107.137V107.134L95.706 98.9135L95.9238 96.4647L99.3302 58.3074L99.6837 54.4155L102.3 25.08H66.0434H65.9934H29.7L31.0174 39.5737L65.9934 39.5737L66.0434 39.5737L86.4163 39.5737L85.0975 54.4155H66.0434H65.9934H32.3104Z" fill="white"/>
</svg>
