<svg width="132" height="132" viewBox="0 0 132 132" fill="none" xmlns="http://www.w3.org/2000/svg">
<path fill-rule="evenodd" clip-rule="evenodd" d="M23.375 1.06394e-05H108.625C111.695 -0.0029575 114.736 0.615132 117.574 1.8189C120.411 3.02268 122.989 4.7885 125.16 7.01532C127.331 9.24213 129.053 11.8862 130.227 14.7963C131.4 17.7063 132.003 20.8252 132 23.9744V108.026C132.003 111.175 131.4 114.294 130.227 117.204C129.053 120.114 127.331 122.758 125.16 124.985C122.989 127.211 120.411 128.977 117.574 130.181C114.736 131.385 111.695 132.003 108.625 132H23.375C20.3045 132.003 17.2637 131.385 14.4264 130.181C11.5891 128.977 9.01108 127.211 6.83993 124.985C4.66879 122.758 2.94711 120.114 1.77343 117.204C0.599753 114.294 -0.00288356 111.175 1.03734e-05 108.026V23.9744C-0.00288356 20.8252 0.599753 17.7063 1.77343 14.7963C2.94711 11.8862 4.66879 9.24213 6.83993 7.01532C9.01108 4.7885 11.5891 3.02268 14.4264 1.8189C17.2637 0.615132 20.3045 -0.0029575 23.375 1.06394e-05ZM65.8141 21.78C42.934 21.78 44.3628 31.7022 44.3628 31.7022L44.3883 41.9814H66.2222V45.0677H35.716C35.716 45.0677 21.0751 43.4073 21.0751 66.4935C21.0751 89.5796 33.854 88.7609 33.854 88.7609H41.4806V78.0481C41.4806 78.0481 41.0695 65.2691 54.0554 65.2691H75.7107C75.7107 65.2691 87.8775 65.4658 87.8775 53.5105V33.7427C87.8775 33.7427 89.7247 21.78 65.8141 21.78ZM53.7748 28.6924C55.9472 28.6923 57.7029 30.4481 57.7029 32.6204C57.7029 34.7927 55.9472 36.5485 53.7748 36.5485C51.6025 36.5485 49.8468 34.7927 49.8468 32.6204C49.8468 30.4481 51.6025 28.6924 53.7748 28.6924ZM87.9151 101.516C87.9151 101.516 89.3439 111.439 66.4638 111.439C42.5532 111.439 44.4004 99.4758 44.4004 99.4758V79.708C44.4004 67.7527 56.5672 67.9494 56.5672 67.9494H78.2225C91.2085 67.9494 90.7974 55.1704 90.7974 55.1704V44.4576H98.4239C98.4239 44.4576 111.203 43.6389 111.203 66.725C111.203 89.8112 96.5619 88.1508 96.5619 88.1508H66.0557V91.2371H87.8896L87.9151 101.516ZM74.575 100.598C74.575 102.77 76.3308 104.526 78.5031 104.526C80.6754 104.526 82.4311 102.77 82.4311 100.598C82.4311 98.4258 80.6754 96.6701 78.5031 96.6701C76.3308 96.6701 74.575 98.4258 74.575 100.598Z" fill="white"/>
</svg>
