<svg width="132" height="132" viewBox="0 0 132 132" fill="none" xmlns="http://www.w3.org/2000/svg">
<path d="M107.952 71.3303C107.807 71.3303 107.674 71.4241 107.606 71.6206C106.731 74.1192 105.548 75.6054 104.574 75.6054C104.014 75.6054 103.788 74.9819 103.788 74.004C103.788 71.5569 105.253 66.3676 105.992 64.0017C106.077 63.7153 106.133 63.4592 106.133 63.2414C106.133 62.5537 105.757 62.2163 104.826 62.2163C103.822 62.2163 102.742 62.6092 101.691 64.4501C101.328 62.8271 100.23 62.118 98.697 62.118C96.9245 62.118 95.212 63.2584 93.8027 65.1078C92.3933 66.957 90.736 67.5636 89.4891 67.2645C90.3859 65.0692 90.719 63.4291 90.719 62.2121C90.719 60.3029 89.7751 59.1499 88.2505 59.1499C85.9314 59.1499 84.5948 61.3621 84.5948 63.6898C84.5948 65.4878 85.4103 67.337 87.2043 68.234C85.7009 71.6335 83.5057 74.7086 82.6729 74.7086C81.5967 74.7086 81.2804 69.4427 81.3402 65.6756C81.3786 63.5145 81.5581 63.4036 81.5581 62.7502C81.5581 62.3743 81.3147 62.118 80.3367 62.118C78.056 62.118 77.3513 64.0486 77.2446 66.2652C77.2101 67.1075 77.0782 67.943 76.8516 68.7551C75.8992 72.1546 73.9346 74.7342 72.6534 74.7342C72.0596 74.7342 71.8974 74.1404 71.8974 73.3633C71.8974 70.9162 73.2683 67.8581 73.2683 65.2486C73.2683 63.3311 72.427 62.1183 70.8426 62.1183C68.9762 62.1183 66.5077 64.339 64.1716 68.4988C64.9402 65.3128 65.2565 62.2291 62.9799 62.2291C62.486 62.2365 62.0012 62.3625 61.5662 62.5965C61.4204 62.6651 61.2985 62.7758 61.2163 62.9143C61.1341 63.0528 61.0953 63.2128 61.105 63.3737C61.3228 66.7649 58.3717 75.4517 55.5742 75.4517C55.066 75.4517 54.8183 74.9007 54.8183 74.0125C54.8183 71.561 56.2789 66.3846 57.0135 64.0144C57.1073 63.7068 57.1588 63.442 57.1588 63.2115C57.1588 62.5623 56.7572 62.2291 55.8475 62.2291C54.8482 62.2291 53.7635 62.6092 52.7172 64.4501C52.3498 62.8271 51.2522 62.118 49.7189 62.118C47.2035 62.118 44.3932 64.779 43.1589 68.2469C41.506 72.8765 38.1748 77.348 33.6904 77.348C29.6203 77.348 27.4721 73.9612 27.4721 68.6097C27.4721 60.8838 33.1438 54.5716 37.3506 54.5716C39.3621 54.5716 40.3231 55.8528 40.3231 57.8174C40.3231 60.1962 38.9948 61.3023 38.9948 62.2077C38.9948 62.4854 39.2255 62.7587 39.6824 62.7587C41.5104 62.7587 43.6628 60.6105 43.6628 57.6808C43.6628 54.7508 41.284 52.6069 37.0773 52.6069C30.1244 52.6069 23.1287 59.6026 23.1287 68.5671C23.1287 75.6995 26.6478 80.0001 32.7336 80.0001C36.8849 80.0001 40.511 76.7715 42.467 73.0044C42.6892 76.1264 44.107 77.758 46.2681 77.758C48.19 77.758 49.7445 76.6135 50.9318 74.6019C51.3889 76.7073 52.6017 77.7366 54.1778 77.7366C55.9842 77.7366 57.4961 76.5921 58.9353 74.4652C58.9141 76.1352 59.2942 77.7069 60.7419 77.7069C61.4252 77.7069 62.241 77.5486 62.3863 76.9507C63.9109 70.647 67.6778 65.5005 68.8311 65.5005C69.1727 65.5005 69.2666 65.8295 69.2666 66.218C69.2666 67.9308 68.0579 71.4414 68.0579 73.6837C68.0579 76.105 69.0873 77.7069 71.2142 77.7069C73.5718 77.7069 75.9675 74.8195 77.5648 70.6001C78.0647 74.5421 79.1453 77.7237 80.8364 77.7237C82.9119 77.7237 86.5976 73.3547 88.8314 68.7293C89.7068 68.8404 91.0222 68.8105 92.2864 67.9179C91.7483 69.2803 91.4324 70.771 91.4324 72.2613C91.4324 76.5536 93.4822 77.758 95.246 77.758C97.1637 77.758 98.7184 76.6135 99.9099 74.6019C100.303 76.417 101.307 77.7322 103.152 77.7322C106.039 77.7322 108.546 74.7811 108.546 72.3595C108.546 71.7191 108.272 71.3303 107.952 71.3303ZM48.0278 75.379C46.8617 75.379 46.4048 74.2046 46.4048 72.4536C46.4048 69.4128 48.4847 64.3346 50.6842 64.3346C51.6452 64.3346 52.0082 65.4665 52.0082 66.8502C52.0082 69.938 50.0309 75.379 48.0278 75.379ZM87.9644 66.3036C87.2682 65.475 87.0163 64.3475 87.0163 63.3438C87.0163 62.1054 87.469 61.0589 88.0113 61.0589C88.5538 61.0589 88.7203 61.5928 88.7203 62.3359C88.7203 63.5786 88.2761 65.3938 87.9644 66.3036ZM97.0057 75.379C95.84 75.379 95.3829 74.0295 95.3829 72.4536C95.3829 69.5195 97.4628 64.3346 99.6794 64.3346C100.64 64.3346 100.982 65.4579 100.982 66.8502C100.982 69.938 99.0387 75.379 97.0057 75.379Z" fill="white"/>
<path fill-rule="evenodd" clip-rule="evenodd" d="M23.1 0H108.9C121.658 0 132 10.3422 132 23.1V108.9C132 121.658 121.658 132 108.9 132H23.1C10.3422 132 0 121.658 0 108.9V23.1C0 10.3422 10.3422 0 23.1 0ZM121 65.5C121 95.5995 96.5995 120 66.5 120C36.4005 120 12 95.5995 12 65.5C12 35.4005 36.4005 11 66.5 11C96.5995 11 121 35.4005 121 65.5Z" fill="white"/>
</svg>
