<svg width="132" height="132" viewBox="0 0 132 132" fill="none" xmlns="http://www.w3.org/2000/svg">
<path fill-rule="evenodd" clip-rule="evenodd" d="M108.625 1.06394e-05H23.375C20.3045 -0.0029575 17.2637 0.615132 14.4264 1.8189C11.5891 3.02268 9.01108 4.7885 6.83993 7.01532C4.66879 9.24213 2.94711 11.8862 1.77343 14.7963C0.599754 17.7063 -0.00288356 20.8252 1.03734e-05 23.9744V108.026C-0.00288356 111.175 0.599754 114.294 1.77343 117.204C2.94711 120.114 4.66879 122.758 6.83993 124.985C9.01108 127.211 11.5891 128.977 14.4264 130.181C17.2637 131.385 20.3045 132.003 23.375 132H108.625C111.695 132.003 114.736 131.385 117.574 130.181C120.411 128.977 122.989 127.211 125.16 124.985C127.331 122.758 129.053 120.114 130.227 117.204C131.4 114.294 132.003 111.175 132 108.026V23.9744C132.003 20.8252 131.4 17.7063 130.227 14.7963C129.053 11.8862 127.331 9.24213 125.16 7.01532C122.989 4.7885 120.411 3.02268 117.574 1.8189C114.736 0.615132 111.695 -0.0029575 108.625 1.06394e-05ZM67.1002 92.51C67.1002 100.104 60.9441 106.26 53.3502 106.26C45.7563 106.26 39.6002 100.104 39.6002 92.51C39.6002 84.9161 45.7563 78.76 53.3502 78.76C45.7563 78.76 39.6002 72.6039 39.6002 65.01C39.6002 57.4161 45.7563 51.26 53.3502 51.26C45.7563 51.26 39.6002 45.1039 39.6002 37.51C39.6002 29.9161 45.7563 23.76 53.3502 23.76H67.1002V51.26V78.76V92.51ZM67.1002 23.76H80.8502C88.4441 23.76 94.6002 29.9161 94.6002 37.51C94.6002 45.1039 88.4441 51.26 80.8502 51.26H67.1002V23.76ZM80.8502 51.26C88.4441 51.26 94.6002 57.4161 94.6002 65.01C94.6002 72.6039 88.4441 78.76 80.8502 78.76C73.2563 78.76 67.1002 72.6039 67.1002 65.01C67.1002 57.4161 73.2563 51.26 80.8502 51.26Z" fill="white"/>
</svg>
