<svg width="132" height="132" viewBox="0 0 132 132" fill="none" xmlns="http://www.w3.org/2000/svg">
<g clip-path="url(#clip0_286_180)">
<path fill-rule="evenodd" clip-rule="evenodd" d="M108.625 1.06394e-05H23.375C20.3045 -0.0029575 17.2637 0.615132 14.4264 1.8189C11.5891 3.02268 9.01108 4.7885 6.83993 7.01532C4.66879 9.24213 2.94711 11.8862 1.77343 14.7963C0.599753 17.7063 -0.00288356 20.8252 1.03734e-05 23.9744V108.026C-0.00288356 111.175 0.599753 114.294 1.77343 117.204C2.94711 120.114 4.66879 122.758 6.83993 124.985C9.01108 127.211 11.5891 128.977 14.4264 130.181C17.2637 131.385 20.3045 132.003 23.375 132H108.625C111.695 132.003 114.736 131.385 117.574 130.181C120.411 128.977 122.989 127.211 125.16 124.985C127.331 122.758 129.053 120.114 130.227 117.204C131.4 114.294 132.003 111.175 132 108.026V23.9744C132.003 20.8252 131.4 17.7063 130.227 14.7963C129.053 11.8862 127.331 9.24213 125.16 7.01532C122.989 4.7885 120.411 3.02268 117.574 1.8189C114.736 0.615132 111.695 -0.0029575 108.625 1.06394e-05ZM101.131 110.817C95.0127 110.817 91.5535 107.626 88.8946 103.285L78.8144 109.141C82.456 116.336 89.8983 121.826 101.418 121.826C113.199 121.826 121.972 115.707 121.972 104.54C121.972 94.181 116.022 89.5736 105.483 85.0541L102.382 83.7257C97.0598 81.421 94.755 79.9145 94.755 76.1934C94.755 73.1825 97.0577 70.8777 100.691 70.8777C104.253 70.8777 106.547 72.38 108.674 76.1934L118.333 69.9915C114.247 62.8048 108.577 60.06 100.691 60.06C89.6133 60.06 82.5251 67.1419 82.5251 76.4448C82.5251 86.5438 88.4714 91.321 97.4222 95.1343L100.523 96.4648C106.18 98.9393 109.554 100.446 109.554 104.699C109.554 108.248 106.27 110.817 101.131 110.817ZM53.0598 110.74C48.7981 110.74 47.0255 107.817 45.0769 104.36L34.98 110.473C37.9049 116.663 43.6563 121.803 53.5878 121.803C64.5794 121.803 72.1097 115.957 72.1097 103.113V60.7682H59.7059V102.945C59.7059 109.145 57.135 110.74 53.0598 110.74Z" fill="white"/>
</g>
<defs>
<clipPath id="clip0_286_180">
<rect width="132" height="132" fill="white"/>
</clipPath>
</defs>
</svg>
