<svg width="132" height="132" viewBox="0 0 132 132" fill="none" xmlns="http://www.w3.org/2000/svg">
<path fill-rule="evenodd" clip-rule="evenodd" d="M23.1 0H108.9C121.658 0 132 10.3422 132 23.1V108.9C132 121.658 121.658 132 108.9 132H23.1C10.3422 132 0 121.658 0 108.9V23.1C0 10.3422 10.3422 0 23.1 0ZM29.7 37.731V93.5837C29.7 93.9835 29.9288 94.1834 30.3864 94.1834H39.9097C40.3672 94.1834 40.596 93.9549 40.596 93.4981V74.4807H45.658C52.5788 74.4807 58.3271 72.9102 62.9029 69.7692C67.4786 66.6282 69.7665 61.8311 69.7665 55.3777C69.7665 50.1808 67.9076 45.8119 64.1898 42.2712C60.5292 38.7304 54.7523 36.96 46.8591 36.96C40.167 36.96 34.6475 37.0171 30.3006 37.1313C29.9002 37.1313 29.7 37.3312 29.7 37.731ZM40.596 66.257V45.1837H41.6256H43.942C44.9144 45.1266 45.8867 45.0981 46.8591 45.0981C50.8057 45.0981 53.8085 46.0118 55.8676 47.8393C57.9839 49.6668 59.0421 52.2653 59.0421 55.6347C59.0421 59.461 57.8409 62.2308 55.4386 63.9441C53.0936 65.6003 50.0049 66.4283 46.1727 66.4283C43.2557 66.4283 41.3968 66.3712 40.596 66.257ZM89.6617 59.3182C93.1507 59.3182 96.4967 60.3177 99.6998 62.3165C100.215 62.6591 100.472 62.4878 100.472 61.8025V54.6924C100.472 54.1213 100.329 53.7501 100.043 53.5788C97.5263 52.3224 93.9515 51.6942 89.3185 51.6942C84.3424 51.6942 80.5102 52.8935 77.8219 55.292C75.1336 57.6906 73.7895 60.6603 73.7895 64.2011C73.7895 67.285 74.6761 69.8549 76.4492 71.9108C78.2795 73.9096 81.4825 75.7942 86.0583 77.5646C88.5749 78.5355 90.2623 79.4492 91.1202 80.3059C91.9782 81.1054 92.4071 82.1048 92.4071 83.3041C92.4071 84.4463 91.8638 85.3886 90.777 86.131C89.7475 86.8163 88.2318 87.159 86.2299 87.159C81.9973 87.159 78.0221 85.7883 74.3043 83.0471C74.1899 82.9329 74.0469 82.9329 73.8753 83.0471C73.7609 83.1042 73.7037 83.247 73.7037 83.4754V91.4421C73.7037 91.899 73.8753 92.1846 74.2185 92.2988C77.4215 94.1263 81.5397 95.04 86.573 95.04C91.6064 95.04 95.5816 93.8693 98.4986 91.5278C101.473 89.1292 102.96 85.9882 102.96 82.1048C102.96 78.9067 101.988 76.3082 100.043 74.3094C98.1554 72.2535 94.838 70.3118 90.0907 68.4843C87.5168 67.4563 85.8295 66.5711 85.0287 65.8287C84.228 65.0292 83.8276 64.1154 83.8276 63.0875C83.8276 62.0595 84.2852 61.1743 85.2003 60.4319C86.1727 59.6895 87.6598 59.3182 89.6617 59.3182Z" fill="white"/>
</svg>
