<svg width="128" height="70" viewBox="0 0 128 70" fill="none" xmlns="http://www.w3.org/2000/svg">
<path d="M15.17 69.8849C6.94153 69.9486 0.244845 63.3295 0.212511 55.1009L0.0583928 15.8798C0.0260586 7.65112 6.67033 0.928925 14.8988 0.865313L111.916 0.115299C120.145 0.051687 126.841 6.67075 126.874 14.8994L127.086 69.0197L15.17 69.8849Z" fill="#F33A3A"/>
<path d="M11.9781 23.2052C5.816 23.2529 0.801049 18.2961 0.776835 12.1339V12.1339C0.752621 5.97169 5.72832 0.937628 11.8904 0.889991L112.118 0.115158C120.347 0.0515463 127.043 6.67061 127.076 14.8992L127.105 22.3152L11.9781 23.2052Z" fill="#191919"/>
<path d="M18.4892 34.2144H14.0905V30.3161H18.4892V34.2144ZM21.6895 38.8897C21.1276 38.8897 20.4823 38.8985 19.7536 38.9161C19.0248 38.9249 18.6165 38.9292 18.5287 38.9292V53.2318C18.5287 54.6102 18.4936 55.4663 18.4234 55.7999C18.3619 56.1423 18.0985 56.836 17.6332 57.8808C17.4049 58.4778 16.7596 59.2461 15.6972 60.1855C14.6436 61.1337 13.8885 61.6079 13.432 61.6079C13.3617 61.4147 13.1993 61.1293 12.9447 60.7518C12.6023 60.2426 12.1282 59.4743 11.5223 58.4471C11.9262 58.2188 12.295 57.9466 12.6286 57.6305C13.1115 57.174 13.5022 56.6472 13.8007 56.0501C13.8973 55.857 14.0027 55.5058 14.1168 54.9966C14.2397 54.4873 14.3012 54.0483 14.3012 53.6796C14.3012 53.5566 14.2968 53.4688 14.288 53.4162L14.1168 35.5841H21.571C21.571 36.3831 21.5886 37.1557 21.6237 37.902C21.6325 38.1654 21.6544 38.4946 21.6895 38.8897ZM45.9485 51.2826L43.1433 54.0615C43.0555 54.0615 42.6648 53.6664 41.9712 52.8762C41.6025 52.4635 41.2381 52.0465 40.8781 51.6251C40.5181 51.2387 40.2416 50.9402 40.0484 50.7295C39.6796 50.3256 39.3197 49.8998 38.9685 49.452C38.1695 48.4335 37.5198 47.5819 37.0193 46.897C36.712 46.4668 36.4047 46.0322 36.0974 45.5932C35.8604 45.2684 35.6365 44.9962 35.4258 44.7767L35.4521 46.2781C34.9253 46.2781 34.5083 46.2868 34.201 46.3044C33.8937 46.3132 33.5556 46.322 33.1869 46.3307C32.8796 46.9541 32.2738 48.0516 31.3694 49.6232C30.509 51.1334 29.7934 52.345 29.2227 53.2581H24.7845C24.7845 53.2318 25.2805 52.3318 26.2727 50.5583C28.0374 47.4063 28.9549 45.7644 29.0252 45.6327C30.0173 43.868 30.5178 42.9856 30.5266 42.9856L34.4775 43.0119C34.4248 42.8978 34.1702 42.4676 33.7137 41.7213C33.2659 40.975 33.0025 40.5096 32.9235 40.3253C33.0201 40.2375 33.2747 40.0794 33.6873 39.8511C34.1088 39.6141 34.4512 39.3726 34.7146 39.1268H25.3244C25.3069 38.5824 25.2937 37.9854 25.2849 37.3357C25.2761 36.686 25.2718 36.1109 25.2718 35.6104L45.5534 35.5577L45.5798 39.1268L36.9271 39.1663C37.2959 39.7985 37.6515 40.4043 37.9939 40.9838C38.5646 41.9408 39.0519 42.7222 39.4558 43.328C40.0352 44.206 40.5533 44.9172 41.0098 45.4615C41.1942 45.681 41.4576 46.0103 41.8 46.4493C42.4761 47.3185 43.0424 48.0165 43.4989 48.5433C44.2891 49.4564 44.8247 50.071 45.1057 50.3871C45.3076 50.6066 45.5886 50.9051 45.9485 51.2826ZM70.2602 53.2318C69.9354 53.2318 69.2681 53.2274 68.2584 53.2186C67.2487 53.2098 66.5726 53.2054 66.2302 53.2054C66.2302 52.9333 66.2127 52.446 66.1775 51.7436C66.1512 51.0324 66.138 50.3081 66.138 49.5705H70.2602V53.2318ZM70.6948 40.2199C70.6948 41.0891 70.5236 41.8486 70.1812 42.4983C69.8388 43.1392 69.3691 43.6265 68.772 43.9602C68.3857 44.1709 67.9335 44.3114 67.4155 44.3816C66.9063 44.4431 66.1732 44.4738 65.2161 44.4738C64.7771 44.4738 64.0265 44.4694 62.9641 44.4606C61.9017 44.4518 61.2827 44.4474 61.1071 44.4474C60.2116 44.4474 58.9077 44.4562 57.1957 44.4738C55.4923 44.4913 54.5222 44.5001 54.2851 44.5001C54.1007 44.5001 53.9778 44.544 53.9163 44.6318C53.8549 44.7108 53.8242 44.8294 53.8242 44.9874C53.8242 45.0752 53.8285 45.1718 53.8373 45.2771C53.8461 45.3825 53.8505 45.4396 53.8505 45.4484L53.8768 49.8735C53.7715 50.7778 53.4949 51.5987 53.0471 52.3362C52.9066 52.5733 52.5203 53.0869 51.8882 53.8771C51.7214 53.7015 51.0936 52.9903 50.0049 51.7436C49.5395 51.208 49.2191 50.848 49.0435 50.6636C49.3332 50.3827 49.5132 50.1412 49.5834 49.9393C49.7064 49.5881 49.7678 48.9559 49.7678 48.0428L49.7415 40.8521H65.9932C66.3268 40.8521 66.5463 40.7291 66.6517 40.4833C66.7043 40.3604 66.7307 40.1189 66.7307 39.759C66.7307 39.3902 66.6385 39.1751 66.4541 39.1136C66.2697 39.0434 65.6595 39.0083 64.6235 39.0083H49.7415L49.7678 35.5577C50.0663 35.5577 50.4658 35.5621 50.9663 35.5709C51.4755 35.5709 52.2174 35.5753 53.192 35.5841C54.1753 35.5929 54.8865 35.5973 55.3255 35.5973H55.8523H56.2869H56.6425H56.9323H57.1561H57.3405H57.4854C57.8102 35.5973 57.9902 35.5753 58.0254 35.5314V33.1476H62.1212V35.5051H70.6685C70.6685 36.0055 70.6729 36.7474 70.6817 37.7308C70.6904 38.7141 70.6948 39.5438 70.6948 40.2199ZM64.9132 53.2318C64.5884 53.2318 63.9211 53.2274 62.9114 53.2186C61.9017 53.2098 61.2256 53.2054 60.8832 53.2054C60.8832 52.9333 60.8657 52.446 60.8306 51.7436C60.8042 51.0324 60.791 50.3081 60.791 49.5705H64.9132V53.2318ZM95.7309 51.2826L92.9257 54.0615C92.8379 54.0615 92.4472 53.6664 91.7535 52.8762C91.3848 52.4635 91.0204 52.0465 90.6604 51.6251C90.3005 51.2387 90.0239 50.9402 89.8307 50.7295C89.462 50.3256 89.102 49.8998 88.7508 49.452C87.9518 48.4335 87.3021 47.5819 86.8016 46.897C86.4943 46.4668 86.1871 46.0322 85.8798 45.5932C85.6427 45.2684 85.4188 44.9962 85.2081 44.7767L85.2344 46.2781C84.7076 46.2781 84.2906 46.2868 83.9833 46.3044C83.676 46.3132 83.338 46.322 82.9692 46.3307C82.6619 46.9541 82.0561 48.0516 81.1517 49.6232C80.2913 51.1334 79.5757 52.345 79.0051 53.2581H74.5668C74.5668 53.2318 75.0629 52.3318 76.055 50.5583C77.8198 47.4063 78.7373 45.7644 78.8075 45.6327C79.7996 43.868 80.3001 42.9856 80.3089 42.9856L84.2599 43.0119C84.2072 42.8978 83.9526 42.4676 83.496 41.7213C83.0482 40.975 82.7848 40.5096 82.7058 40.3253C82.8024 40.2375 83.057 40.0794 83.4697 39.8511C83.8911 39.6141 84.2335 39.3726 84.4969 39.1268H75.1068C75.0892 38.5824 75.076 37.9854 75.0672 37.3357C75.0585 36.686 75.0541 36.1109 75.0541 35.6104L95.3358 35.5577L95.3621 39.1268L86.7095 39.1663C87.0782 39.7985 87.4338 40.4043 87.7762 40.9838C88.3469 41.9408 88.8342 42.7222 89.2381 43.328C89.8176 44.206 90.3356 44.9172 90.7921 45.4615C90.9765 45.681 91.2399 46.0103 91.5823 46.4493C92.2584 47.3185 92.8247 48.0165 93.2813 48.5433C94.0714 49.4564 94.607 50.071 94.888 50.3871C95.0899 50.6066 95.3709 50.9051 95.7309 51.2826ZM119.476 53.2318C119.467 53.2581 118.998 53.2713 118.067 53.2713C117.136 53.2801 116.201 53.2889 115.262 53.2976C114.744 51.7699 114.23 50.2422 113.721 48.7145C113.01 46.5985 112.343 44.6538 111.719 42.8802C111.008 40.8521 110.538 39.6097 110.31 39.1531C110.266 39.0741 110.183 39.0214 110.06 38.9951C109.946 38.9688 109.726 38.9556 109.401 38.9556C109.305 38.9556 108.787 38.9644 107.847 38.9819C106.908 38.9995 105.977 39.0083 105.055 39.0083V53.2318H98.8653L98.8521 50.3607L100.986 50.3344L100.933 38.9292C100.459 38.9292 100.077 38.9424 99.7872 38.9688C99.4975 38.9951 99.3438 39.0083 99.3262 39.0083C99.2384 39.0083 99.155 39.0083 99.076 39.0083C98.9707 38.9819 98.8872 38.9644 98.8258 38.9556V35.4392H111.811C112.549 35.4392 113.159 35.8431 113.642 36.6508C114.028 37.5376 114.261 38.0556 114.34 38.2049H114.617V35.4656H118.581V38.9819H114.524L119.476 53.2318Z" fill="white"/>
<path d="M14.3474 16.6312V7.56204H20.2683V8.456H15.4227V11.5395H19.6852V12.4205H15.4227V15.7373H20.2683V16.6312H14.3474ZM35.1249 16.6312L32.5985 12.7703L30.0851 16.6312H28.8931L32.0155 11.98L29.0745 7.56204H30.3053L32.6503 11.1638L34.9954 7.56204H36.1873L33.2334 11.9541L36.3558 16.6312H35.1249ZM46.1532 8.43009V12.1355H48.3557C49.9234 12.1355 50.5712 11.3711 50.5712 10.2828C50.5712 9.19449 49.9234 8.43009 48.3557 8.43009H46.1532ZM48.3169 13.0035H46.1532V16.6312H45.0779V7.56204H48.3169C50.6619 7.56204 51.6984 8.66329 51.6984 10.2828C51.6984 11.9023 50.6619 13.0035 48.3169 13.0035ZM60.6013 16.6312V7.56204H61.6766V15.7373H66.3408V16.6312H60.6013ZM78.1714 16.8256C75.6709 16.8256 74.2069 15.0117 74.2069 12.1096V12.0837C74.2069 9.18153 75.6709 7.3677 78.1714 7.3677C80.6719 7.3677 82.1359 9.18153 82.1359 12.0837V12.1096C82.1359 15.0117 80.6719 16.8256 78.1714 16.8256ZM78.1714 15.9575C79.8945 15.9575 81.0347 14.6749 81.0347 12.1096V12.0837C81.0347 9.51839 79.8945 8.23575 78.1714 8.23575C76.4483 8.23575 75.3081 9.51839 75.3081 12.0837V12.1096C75.3081 14.6749 76.4483 15.9575 78.1714 15.9575ZM92.3059 8.43009V11.8246H94.638C95.9465 11.8246 96.5425 11.1508 96.5425 10.1273C96.5425 9.1038 95.9465 8.43009 94.638 8.43009H92.3059ZM96.8016 16.6312L94.4307 12.6926H92.3059V16.6312H91.2305V7.56204H94.5991C96.7239 7.56204 97.6697 8.68921 97.6697 10.1791C97.6697 11.5266 96.8146 12.291 95.5449 12.563L98.0195 16.6312H96.8016ZM106.931 16.6312V7.56204H112.852V8.456H108.006V11.5395H112.269V12.4205H108.006V15.7373H112.852V16.6312H106.931Z" fill="white"/>
</svg>
