<svg width="146" height="49" viewBox="0 0 146 49" fill="none" xmlns="http://www.w3.org/2000/svg">
<g filter="url(#filter0_d_182_2)">
<path d="M7.20173 21.8341V40.0849H13.5806V43.9241H2.77192V0.80731H12.99V4.64647H7.20173V20.5347H11.3953V21.8341H7.20173ZM25.8445 42.6837C24.5845 43.9044 22.9504 44.5147 20.9422 44.5147C17.5165 44.5147 15.8036 42.6837 15.8036 39.0218C15.8036 34.0998 16.0202 30.3197 16.4533 27.6815H20.7059C19.4459 30.0834 18.5009 32.2097 17.8709 34.0604C17.2408 35.8717 16.9258 37.2892 16.9258 38.313C16.9258 39.1399 17.2212 39.7108 17.8118 40.0258C18.4024 40.3409 19.4459 40.4984 20.9422 40.4984C21.8478 40.4984 22.4779 40.2621 22.8322 39.7896C23.1866 39.3171 23.3638 38.6477 23.3638 37.7814C23.3638 36.0882 23.0488 34.1588 22.4188 31.9931C21.7888 29.8275 20.8438 26.953 19.5837 23.3698C18.2056 19.5897 17.1818 16.5184 16.5124 14.1558C15.843 11.7538 15.5083 9.58817 15.5083 7.65874C15.5083 5.17805 16.1383 3.32738 17.3984 2.10672C18.6978 0.846687 20.3516 0.216671 22.3597 0.216671C25.3917 0.216671 26.9077 2.04766 26.9077 5.70963C26.9077 10.1985 26.6911 13.7817 26.258 16.4593H22.3597C23.7379 13.1517 24.6435 10.8285 25.0767 9.48973C25.5492 8.15094 25.7854 7.08779 25.7854 6.30027C25.7854 5.51275 25.5295 4.98117 25.0176 4.70554C24.5057 4.39053 23.6198 4.23303 22.3597 4.23303C21.4541 4.23303 20.8241 4.46928 20.4697 4.94179C20.1153 5.41431 19.9381 6.0837 19.9381 6.94997C19.9381 8.40689 20.2531 10.2772 20.8831 12.5611C21.5525 14.8449 22.5369 17.9556 23.8363 21.8932C25.2145 26.067 26.2186 29.2959 26.8486 31.5797C27.4786 33.8635 27.7936 35.7535 27.7936 37.2498C27.7936 39.6518 27.1439 41.4631 25.8445 42.6837ZM42.7315 0.80731V4.64647H37.8292V43.9241H33.3994V4.64647H28.4971V0.80731H42.7315ZM54.2707 20.6528V0.80731H58.7005V43.9241H54.2707V21.8341H49.2503V43.9241H44.8205V0.80731H49.2503V20.6528H54.2707ZM66.6926 21.8341V40.0849H73.0715V43.9241H62.2628V0.80731H72.4809V4.64647H66.6926V20.5347H70.8862V21.8341H66.6926ZM88.7773 0.80731V4.64647H83.8749V43.9241H79.4451V4.64647H74.5428V0.80731H88.7773ZM95.296 0.80731V43.9241H90.8662V0.80731H95.296ZM114.394 36.482V43.9241H105.18C103.054 43.9241 101.459 43.3925 100.396 42.3293C99.3725 41.2662 98.8606 39.4943 98.8606 37.0136V8.19032C98.8606 5.47337 99.5103 3.46519 100.81 2.16578C102.109 0.866375 103.802 0.216671 105.889 0.216671C108.016 0.216671 109.591 0.748247 110.614 1.8114C111.678 2.87455 112.209 4.64647 112.209 7.12716V34.2966C112.209 36.5411 111.697 38.3917 110.673 39.8487C109.689 41.3056 108.37 42.1325 106.716 42.3293V42.92C108.212 42.8806 109.551 42.4081 110.732 41.5024C111.953 40.5968 113.174 38.9233 114.394 36.482ZM107.13 5.23712C106.736 4.56772 106.185 4.23303 105.476 4.23303C104.649 4.23303 104.078 4.50866 103.763 5.05992C103.448 5.61119 103.29 6.45777 103.29 7.59968V35.0054C103.29 36.9348 103.507 38.2342 103.94 38.9036C104.413 39.573 105.062 39.9077 105.889 39.9077C106.598 39.9077 107.09 39.514 107.366 38.7264C107.641 37.9389 107.779 36.7576 107.779 35.1826V9.13534C107.779 7.20592 107.563 5.90651 107.13 5.23712ZM125.377 37.1317V0.80731H129.807V36.5411C129.807 39.258 129.157 41.2662 127.858 42.5656C126.559 43.865 124.865 44.5147 122.779 44.5147C120.652 44.5147 119.058 43.9831 117.994 42.92C116.971 41.8568 116.459 40.0849 116.459 37.6042V0.80731H120.888V35.596C120.888 37.5255 121.105 38.8249 121.538 39.4943C122.011 40.1637 122.66 40.4984 123.487 40.4984C124.196 40.4984 124.688 40.2227 124.964 39.6715C125.24 39.1202 125.377 38.2736 125.377 37.1317ZM137.76 21.8341V40.0849H144.139V43.9241H133.33V0.80731H143.548V4.64647H137.76V20.5347H141.953V21.8341H137.76Z" fill="white"/>
</g>
<defs>
<filter id="filter0_d_182_2" x="0.943391" y="0.216675" width="145.024" height="47.9553" filterUnits="userSpaceOnUse" color-interpolation-filters="sRGB">
<feFlood flood-opacity="0" result="BackgroundImageFix"/>
<feColorMatrix in="SourceAlpha" type="matrix" values="0 0 0 0 0 0 0 0 0 0 0 0 0 0 0 0 0 0 127 0" result="hardAlpha"/>
<feOffset dy="1.82858"/>
<feGaussianBlur stdDeviation="0.914291"/>
<feComposite in2="hardAlpha" operator="out"/>
<feColorMatrix type="matrix" values="0 0 0 0 0 0 0 0 0 0 0 0 0 0 0 0 0 0 0.25 0"/>
<feBlend mode="normal" in2="BackgroundImageFix" result="effect1_dropShadow_182_2"/>
<feBlend mode="normal" in="SourceGraphic" in2="effect1_dropShadow_182_2" result="shape"/>
</filter>
</defs>
</svg>
