<svg width="146" height="49" viewBox="0 0 146 49" fill="none" xmlns="http://www.w3.org/2000/svg">
<g filter="url(#filter0_d_122_25)">
<path d="M7.20173 21.91V40.1608H13.5806V44H2.77192V0.883237H12.99V4.7224H7.20173V20.6106H11.3953V21.91H7.20173ZM25.8445 42.7597C24.5845 43.9803 22.9504 44.5906 20.9422 44.5906C17.5165 44.5906 15.8036 42.7597 15.8036 39.0977C15.8036 34.1757 16.0202 30.3956 16.4533 27.7574H20.7059C19.4459 30.1593 18.5009 32.2856 17.8709 34.1363C17.2408 35.9476 16.9258 37.3651 16.9258 38.3889C16.9258 39.2158 17.2212 39.7868 17.8118 40.1018C18.4024 40.4168 19.4459 40.5743 20.9422 40.5743C21.8478 40.5743 22.4779 40.338 22.8322 39.8655C23.1866 39.393 23.3638 38.7236 23.3638 37.8573C23.3638 36.1642 23.0488 34.2347 22.4188 32.0691C21.7888 29.9034 20.8438 27.0289 19.5837 23.4457C18.2056 19.6656 17.1818 16.5943 16.5124 14.2317C15.843 11.8298 15.5083 9.66409 15.5083 7.73467C15.5083 5.25398 16.1383 3.4033 17.3984 2.18265C18.6978 0.922615 20.3516 0.292598 22.3597 0.292598C25.3917 0.292598 26.9077 2.12358 26.9077 5.78556C26.9077 10.2744 26.6911 13.8576 26.258 16.5352H22.3597C23.7379 13.2276 24.6435 10.9044 25.0767 9.56565C25.5492 8.22687 25.7854 7.16372 25.7854 6.3762C25.7854 5.58867 25.5295 5.0571 25.0176 4.78147C24.5057 4.46646 23.6198 4.30895 22.3597 4.30895C21.4541 4.30895 20.8241 4.54521 20.4697 5.01772C20.1153 5.49023 19.9381 6.15963 19.9381 7.0259C19.9381 8.48281 20.2531 10.3532 20.8831 12.637C21.5525 14.9208 22.5369 18.0315 23.8363 21.9691C25.2145 26.143 26.2186 29.3718 26.8486 31.6556C27.4786 33.9394 27.7936 35.8295 27.7936 37.3258C27.7936 39.7277 27.1439 41.539 25.8445 42.7597ZM42.7315 0.883237V4.7224H37.8292V44H33.3994V4.7224H28.4971V0.883237H42.7315ZM54.2707 20.7288V0.883237H58.7005V44H54.2707V21.91H49.2503V44H44.8205V0.883237H49.2503V20.7288H54.2707ZM66.6926 21.91V40.1608H73.0715V44H62.2628V0.883237H72.4809V4.7224H66.6926V20.6106H70.8862V21.91H66.6926ZM88.7773 0.883237V4.7224H83.8749V44H79.4451V4.7224H74.5428V0.883237H88.7773ZM95.296 0.883237V44H90.8662V0.883237H95.296ZM114.394 36.5579V44H105.18C103.054 44 101.459 43.4684 100.396 42.4053C99.3725 41.3421 98.8606 39.5702 98.8606 37.0895V8.26624C98.8606 5.5493 99.5103 3.54112 100.81 2.24171C102.109 0.942302 103.802 0.292598 105.889 0.292598C108.016 0.292598 109.591 0.824174 110.614 1.88733C111.678 2.95048 112.209 4.7224 112.209 7.20309V34.3726C112.209 36.617 111.697 38.4677 110.673 39.9246C109.689 41.3815 108.37 42.2084 106.716 42.4053V42.9959C108.212 42.9565 109.551 42.484 110.732 41.5784C111.953 40.6727 113.174 38.9992 114.394 36.5579ZM107.13 5.31304C106.736 4.64365 106.185 4.30895 105.476 4.30895C104.649 4.30895 104.078 4.58459 103.763 5.13585C103.448 5.68712 103.29 6.5337 103.29 7.67561V35.0813C103.29 37.0108 103.507 38.3102 103.94 38.9796C104.413 39.6489 105.062 39.9836 105.889 39.9836C106.598 39.9836 107.09 39.5899 107.366 38.8024C107.641 38.0148 107.779 36.8336 107.779 35.2585V9.21127C107.779 7.28185 107.563 5.98244 107.13 5.31304ZM125.377 37.2076V0.883237H129.807V36.617C129.807 39.3339 129.157 41.3421 127.858 42.6415C126.559 43.9409 124.865 44.5906 122.779 44.5906C120.652 44.5906 119.058 44.0591 117.994 42.9959C116.971 41.9328 116.459 40.1608 116.459 37.6801V0.883237H120.888V35.672C120.888 37.6014 121.105 38.9008 121.538 39.5702C122.011 40.2396 122.66 40.5743 123.487 40.5743C124.196 40.5743 124.688 40.2987 124.964 39.7474C125.24 39.1961 125.377 38.3495 125.377 37.2076ZM137.76 21.91V40.1608H144.139V44H133.33V0.883237H143.548V4.7224H137.76V20.6106H141.953V21.91H137.76Z" fill="black"/>
</g>
<defs>
<filter id="filter0_d_122_25" x="0.943391" y="0.292603" width="145.024" height="47.9553" filterUnits="userSpaceOnUse" color-interpolation-filters="sRGB">
<feFlood flood-opacity="0" result="BackgroundImageFix"/>
<feColorMatrix in="SourceAlpha" type="matrix" values="0 0 0 0 0 0 0 0 0 0 0 0 0 0 0 0 0 0 127 0" result="hardAlpha"/>
<feOffset dy="1.82858"/>
<feGaussianBlur stdDeviation="0.914291"/>
<feComposite in2="hardAlpha" operator="out"/>
<feColorMatrix type="matrix" values="0 0 0 0 0 0 0 0 0 0 0 0 0 0 0 0 0 0 0.25 0"/>
<feBlend mode="normal" in2="BackgroundImageFix" result="effect1_dropShadow_122_25"/>
<feBlend mode="normal" in="SourceGraphic" in2="effect1_dropShadow_122_25" result="shape"/>
</filter>
</defs>
</svg>
