<svg width="263" height="88" viewBox="0 0 263 88" fill="none" xmlns="http://www.w3.org/2000/svg">
<path d="M66.2755 36.4883C76.6159 29.8565 76.5663 24.12 68.6163 21.0986C75.7228 21.9467 88.6408 28.9067 68.9678 42.6572L84.8507 79.0488C80.8203 76.5022 76.4911 74.3861 71.9278 72.7637L60.8448 47.2773C53.1989 50.9246 43.6938 54.4935 35.1192 58.1689L28.8604 72.5576C24.3395 74.1163 20.0438 76.1589 16.0352 78.623L22.252 64.3789C14.0003 69.1271 9.49348 74.2027 13.9444 79.9648C10.4164 82.3233 7.13193 85.0174 4.13581 88.001C2.29852 85.8348 0.918673 83.6039 0.336004 81.1182H0.303777C0.287375 80.9948 0.271641 80.8716 0.255926 80.749C0.107857 80.0103 0.0300348 79.249 0.0313163 78.46C-0.357102 71.7065 2.49549 65.5223 26.3663 54.291L26.3194 54.3936L39.2979 48.5576L39.2882 48.582C43.8773 46.6594 48.9912 44.6043 54.6866 42.4023C55.8718 41.9009 57.0004 41.3993 58.0723 40.9023L50.3507 23.1475L42.2657 41.7344L29.4132 47.9688L50.3507 0L66.2755 36.4883ZM67.8721 6.89648C67.183 11.1714 68.9481 15.0986 72.128 16.0879L72.1241 16.1025C68.7733 15.3464 65.1622 18.0498 63.7022 22.3213L63.6456 22.3057C64.5342 17.7889 62.6707 13.5628 59.2657 12.6494C59.1999 12.6318 59.1316 12.6184 59.0655 12.6035L59.0694 12.5889C59.1342 12.609 59.1997 12.6317 59.2657 12.6494C62.5693 13.5339 66.175 10.9926 67.7471 6.86328L67.8721 6.89648Z" fill="white"/>
<path d="M111.923 43.9906C115.723 43.9906 118.959 45.3136 121.629 47.9596C124.299 50.6056 125.634 53.8049 125.634 57.5574C125.634 61.334 124.311 64.5453 121.665 67.1914C119.019 69.8374 115.82 71.1604 112.067 71.1604H112.031L90.8147 71.1243V61.3461H112.067C113.101 61.3461 113.991 60.9852 114.737 60.2636C115.483 59.5179 115.856 58.6158 115.856 57.5574C115.856 56.499 115.483 55.609 114.737 54.8874C113.991 54.1417 113.101 53.7688 112.067 53.7688H102.505C98.7528 53.7688 95.5415 52.4458 92.8714 49.7998C90.2254 47.1538 88.9023 43.9545 88.9023 40.2019C88.9023 36.4253 90.2254 33.214 92.8714 30.568C95.5174 27.922 98.7287 26.599 102.505 26.599L123.722 26.6351V36.4133H102.469C101.435 36.4133 100.545 36.7862 99.7991 37.5319C99.0775 38.2535 98.7167 39.1435 98.7167 40.2019C98.7167 41.2603 99.0775 42.1624 99.7991 42.9081C100.545 43.6297 101.435 43.9906 102.469 43.9906H111.923Z" fill="white"/>
<path d="M128.881 36.4133V26.6351H170.953V36.4133H154.824V71.1604H145.01V36.4133H128.881Z" fill="white"/>
<path d="M211.365 40.2019C211.365 42.4871 210.824 44.64 209.741 46.6606C208.683 48.6572 207.204 50.2809 205.303 51.5317L212.448 71.1604H202.525L196.174 53.7688H184.015V71.1604H174.2V26.599H197.798C201.551 26.599 204.75 27.922 207.396 30.568C210.042 33.214 211.365 36.4253 211.365 40.2019ZM200.468 42.872C201.214 42.1263 201.587 41.2363 201.587 40.2019C201.587 39.1676 201.214 38.2776 200.468 37.5319C199.723 36.7862 198.833 36.4133 197.798 36.4133H184.015V43.9906H197.798C198.833 43.9906 199.723 43.6177 200.468 42.872Z" fill="white"/>
<path d="M215.695 71.1604L239.257 26.4907L262.818 71.1604H250.947L239.22 48.14L227.169 71.1604H215.695Z" fill="white"/>
<path d="M93.2002 16.2435L101.768 0L110.336 16.2435H106.019L101.755 7.87246L97.3726 16.2435H93.2002Z" fill="white"/>
<path d="M117.211 0.0393623C118.278 0.0306151 119.306 0.2318 120.295 0.642918C121.292 1.05404 122.175 1.64447 122.945 2.41422C123.715 3.18397 124.301 4.06307 124.703 5.0515C125.114 6.03118 125.32 7.06335 125.32 8.148C125.32 9.2414 125.106 10.2911 124.677 11.297C124.248 12.2942 123.671 13.1558 122.945 13.8818C122.219 14.599 121.353 15.172 120.347 15.6006C119.35 16.0292 118.305 16.2435 117.211 16.2435H111.491V0.0393623H117.211ZM120.426 11.3626C121.309 10.4704 121.751 9.39884 121.751 8.148C121.751 6.89715 121.309 5.83 120.426 4.94653C119.542 4.05432 118.475 3.60821 117.224 3.60821H115.059V12.6878H117.224C118.475 12.6878 119.542 12.2461 120.426 11.3626Z" fill="white"/>
</svg>
