<svg width="263" height="88" viewBox="0 0 263 88" fill="none" xmlns="http://www.w3.org/2000/svg">
<path d="M66.2755 36.4883C76.6162 29.8565 76.5665 24.12 68.6163 21.0986C75.7229 21.9466 88.6412 28.9065 68.9679 42.6572L84.8507 79.0488C80.8203 76.5022 76.4912 74.3861 71.9278 72.7637L60.8448 47.2773C53.1989 50.9247 43.6938 54.4935 35.1193 58.1689L28.8605 72.5586C24.3395 74.1173 20.0438 76.1598 16.0353 78.624L22.2521 64.3789C14.0005 69.127 9.49384 74.2028 13.9445 79.9648C10.4165 82.3234 7.13195 85.0174 4.13586 88.001C2.29876 85.835 0.919674 83.6037 0.337029 81.1182H0.303826C0.287426 80.9948 0.272663 80.8716 0.256951 80.749C0.108383 80.0079 0.029556 79.244 0.0313648 78.4521C-0.35444 71.7017 2.5048 65.5173 26.3673 54.29L26.3204 54.3936L39.298 48.5576L39.2882 48.582C43.8774 46.6594 48.9912 44.6043 54.6866 42.4023C55.8718 41.9009 57.0004 41.3993 58.0724 40.9023L50.3507 23.1475L42.2657 41.7354L29.4132 47.9697L50.3507 0L66.2755 36.4883ZM67.8722 6.89648C67.1831 11.1714 68.9482 15.0985 72.128 16.0879L72.1241 16.1025C68.7734 15.3464 65.1622 18.0498 63.7023 22.3213L63.6456 22.3057C64.5343 17.7888 62.6709 13.5627 59.2657 12.6494C59.1999 12.6318 59.1316 12.6184 59.0655 12.6035L59.0695 12.5889C59.1343 12.609 59.1998 12.6317 59.2657 12.6494C62.5694 13.534 66.175 10.9927 67.7472 6.86328L67.8722 6.89648Z" fill="black"/>
<path d="M111.924 43.9906C115.724 43.9906 118.96 45.3136 121.63 47.9596C124.3 50.6056 125.635 53.8049 125.635 57.5574C125.635 61.334 124.312 64.5453 121.666 67.1914C119.02 69.8374 115.821 71.1604 112.068 71.1604H112.032L90.8157 71.1243V61.3461H112.068C113.102 61.3461 113.992 60.9852 114.738 60.2636C115.484 59.5179 115.857 58.6158 115.857 57.5574C115.857 56.499 115.484 55.609 114.738 54.8874C113.992 54.1417 113.102 53.7688 112.068 53.7688H102.506C98.7537 53.7688 95.5424 52.4458 92.8724 49.7998C90.2263 47.1538 88.9033 43.9545 88.9033 40.2019C88.9033 36.4253 90.2263 33.214 92.8724 30.568C95.5184 27.922 98.7297 26.599 102.506 26.599L123.723 26.6351V36.4133H102.47C101.436 36.4133 100.546 36.7862 99.8001 37.5319C99.0785 38.2535 98.7177 39.1435 98.7177 40.2019C98.7177 41.2603 99.0785 42.1624 99.8001 42.9081C100.546 43.6297 101.436 43.9906 102.47 43.9906H111.924Z" fill="black"/>
<path d="M128.882 36.4133V26.6351H170.954V36.4133H154.825V71.1604H145.011V36.4133H128.882Z" fill="black"/>
<path d="M211.366 40.2019C211.366 42.4871 210.825 44.64 209.742 46.6606C208.684 48.6572 207.205 50.2809 205.304 51.5317L212.448 71.1604H202.526L196.175 53.7688H184.016V71.1604H174.201V26.599H197.799C201.552 26.599 204.751 27.922 207.397 30.568C210.043 33.214 211.366 36.4253 211.366 40.2019ZM200.469 42.872C201.215 42.1263 201.588 41.2363 201.588 40.2019C201.588 39.1676 201.215 38.2776 200.469 37.5319C199.724 36.7862 198.834 36.4133 197.799 36.4133H184.016V43.9906H197.799C198.834 43.9906 199.724 43.6177 200.469 42.872Z" fill="black"/>
<path d="M215.696 71.1604L239.257 26.4907L262.819 71.1604H250.948L239.221 48.14L227.17 71.1604H215.696Z" fill="black"/>
<path d="M93.2002 16.2435L101.768 0L110.336 16.2435H106.019L101.755 7.87246L97.3726 16.2435H93.2002Z" fill="black"/>
<path d="M117.211 0.0393623C118.278 0.0306151 119.306 0.2318 120.295 0.642918C121.292 1.05404 122.175 1.64447 122.945 2.41422C123.715 3.18397 124.301 4.06307 124.703 5.0515C125.114 6.03118 125.32 7.06335 125.32 8.148C125.32 9.2414 125.106 10.2911 124.677 11.297C124.248 12.2942 123.671 13.1558 122.945 13.8818C122.219 14.599 121.353 15.172 120.347 15.6006C119.35 16.0292 118.305 16.2435 117.211 16.2435H111.491V0.0393623H117.211ZM120.426 11.3626C121.309 10.4704 121.751 9.39884 121.751 8.148C121.751 6.89715 121.309 5.83 120.426 4.94653C119.542 4.05432 118.475 3.60821 117.224 3.60821H115.059V12.6878H117.224C118.475 12.6878 119.542 12.2461 120.426 11.3626Z" fill="black"/>
</svg>
