<svg width="171" height="171" viewBox="0 0 171 171" fill="none" xmlns="http://www.w3.org/2000/svg">
<rect width="171" height="171" rx="39" fill="black"/>
<path d="M89.501 114.799C114.721 114.799 137.086 127.02 151 145.862C133.357 134.22 112.221 127.442 89.501 127.442C66.7804 127.442 45.6434 134.221 28 145.864C41.9139 127.021 64.2797 114.799 89.501 114.799Z" fill="white"/>
<path d="M108.465 69.792C120.592 62.0145 120.533 55.2875 111.21 51.7441C119.544 52.7387 134.694 60.9002 111.622 77.0264L130.249 119.705C125.523 116.719 120.446 114.238 115.094 112.335L102.094 82.4443C93.1277 86.7216 81.981 90.9075 71.9255 95.2178L64.5867 112.092C59.2849 113.919 54.2475 116.315 49.5466 119.204L56.8367 102.501C47.1603 108.069 41.8738 114.021 47.0915 120.778C42.9547 123.544 39.1038 126.703 35.5906 130.201C33.4369 127.662 31.8196 125.046 31.1365 122.132H31.0964C31.0761 121.979 31.0573 121.826 31.0378 121.674C30.868 120.818 30.7772 119.937 30.7781 119.023C30.3195 111.099 33.6563 103.845 61.6658 90.667L61.6091 90.792L76.8259 83.9482L76.8152 83.9746C82.1972 81.7198 88.1954 79.3099 94.8747 76.7275C96.2639 76.1398 97.587 75.5522 98.8435 74.9697L89.7878 54.1465L80.3054 75.9473L65.2341 83.2578L89.7888 27L108.465 69.792ZM110.336 35.0889C109.528 40.1021 111.599 44.7078 115.328 45.8682L115.324 45.8838C111.394 44.9977 107.159 48.1683 105.447 53.1777L105.382 53.1602C106.424 47.864 104.239 42.9086 100.247 41.8359C104.12 42.8703 108.347 39.8909 110.19 35.0498L110.336 35.0889ZM100.244 41.835L100.247 41.8359L100.239 41.834C100.24 41.8343 100.243 41.8347 100.244 41.835ZM100.239 41.834C100.163 41.8139 100.085 41.7974 100.009 41.7803L100.013 41.7646C100.088 41.7878 100.163 41.8135 100.239 41.834Z" fill="white"/>
</svg>
