<svg width="728" height="248" viewBox="0 0 728 248" fill="none" xmlns="http://www.w3.org/2000/svg">
<rect y="204.725" width="727.356" height="43.2752" rx="9.98658" fill="#CCCCCC"/>
<path d="M9.93723 173.339C8.07263 173.339 6.4932 172.845 5.19895 171.858C3.90469 170.871 2.91755 169.467 2.23752 167.646C1.57943 165.825 1.25038 163.665 1.25038 161.164C1.25038 158.641 1.57943 156.47 2.23752 154.649C2.91755 152.828 3.90469 151.424 5.19895 150.437C6.4932 149.428 8.07263 148.923 9.93723 148.923C11.9993 148.923 13.7542 149.603 15.202 150.964C16.6498 152.302 17.615 154.177 18.0976 156.59L15.0704 156.788C14.6974 155.099 14.0503 153.826 13.129 152.971C12.2296 152.115 11.1657 151.687 9.93723 151.687C8.68685 151.687 7.6339 152.06 6.77837 152.806C5.94479 153.53 5.30863 154.605 4.8699 156.031C4.43117 157.435 4.2118 159.146 4.2118 161.164C4.2118 163.16 4.43117 164.86 4.8699 166.264C5.30863 167.668 5.94479 168.743 6.77837 169.489C7.6339 170.213 8.68685 170.575 9.93723 170.575C11.2973 170.575 12.449 170.103 13.3922 169.16C14.3355 168.217 14.9716 166.813 15.3007 164.948L18.295 165.113C17.8782 167.679 16.935 169.697 15.4652 171.167C13.9955 172.615 12.1528 173.339 9.93723 173.339ZM29.6014 173.207C28 173.207 26.5961 172.834 25.3896 172.088C24.205 171.343 23.2837 170.29 22.6256 168.929C21.9675 167.548 21.6385 165.935 21.6385 164.093C21.6385 162.228 21.9675 160.616 22.6256 159.256C23.2837 157.895 24.205 156.842 25.3896 156.097C26.5961 155.351 28 154.978 29.6014 154.978C31.2028 154.978 32.5957 155.351 33.7803 156.097C34.9868 156.842 35.9191 157.895 36.5772 159.256C37.2353 160.616 37.5643 162.228 37.5643 164.093C37.5643 165.935 37.2353 167.548 36.5772 168.929C35.9191 170.29 34.9868 171.343 33.7803 172.088C32.5957 172.834 31.2028 173.207 29.6014 173.207ZM29.6014 170.575C31.2028 170.575 32.4422 170.004 33.3196 168.864C34.219 167.701 34.6687 166.111 34.6687 164.093C34.6687 162.074 34.219 160.495 33.3196 159.354C32.4422 158.192 31.2028 157.61 29.6014 157.61C28 157.61 26.7497 158.192 25.8503 159.354C24.9728 160.495 24.5341 162.074 24.5341 164.093C24.5341 166.111 24.9728 167.701 25.8503 168.864C26.7497 170.004 28 170.575 29.6014 170.575ZM40.7761 172.812V155.373H43.3098L43.4085 159.256L43.0795 159.19C43.2769 157.895 43.6937 156.875 44.3299 156.13C44.988 155.362 45.8215 154.978 46.8306 154.978C47.8616 154.978 48.6513 155.351 49.1998 156.097C49.7701 156.842 50.1211 157.939 50.2527 159.387H49.9237C50.1211 158.027 50.5598 156.952 51.2398 156.162C51.9418 155.373 52.8193 154.978 53.8722 154.978C55.2762 154.978 56.2962 155.46 56.9324 156.426C57.5685 157.391 57.8866 158.992 57.8866 161.23V172.812H55.1226V161.625C55.1226 160.067 54.9581 158.981 54.629 158.367C54.3 157.731 53.7845 157.413 53.0825 157.413C52.6218 157.413 52.216 157.566 51.865 157.874C51.5141 158.159 51.2289 158.619 51.0095 159.256C50.8121 159.892 50.7134 160.703 50.7134 161.69V172.812H47.9494V161.625C47.9494 160.133 47.7849 159.058 47.4558 158.4C47.1487 157.742 46.6332 157.413 45.9093 157.413C45.4486 157.413 45.0428 157.566 44.6918 157.874C44.3408 158.159 44.0556 158.619 43.8363 159.256C43.6389 159.892 43.5401 160.703 43.5401 161.69V172.812H40.7761ZM60.5061 172.812V155.373H63.0398L63.1385 159.256L62.8095 159.19C63.0069 157.895 63.4237 156.875 64.0598 156.13C64.7179 155.362 65.5515 154.978 66.5606 154.978C67.5916 154.978 68.3813 155.351 68.9297 156.097C69.5001 156.842 69.8511 157.939 69.9827 159.387H69.6536C69.8511 158.027 70.2898 156.952 70.9698 156.162C71.6718 155.373 72.5493 154.978 73.6022 154.978C75.0061 154.978 76.0262 155.46 76.6623 156.426C77.2985 157.391 77.6166 158.992 77.6166 161.23V172.812H74.8526V161.625C74.8526 160.067 74.6881 158.981 74.359 158.367C74.03 157.731 73.5145 157.413 72.8125 157.413C72.3518 157.413 71.946 157.566 71.595 157.874C71.244 158.159 70.9589 158.619 70.7395 159.256C70.5421 159.892 70.4433 160.703 70.4433 161.69V172.812H67.6794V161.625C67.6794 160.133 67.5148 159.058 67.1858 158.4C66.8787 157.742 66.3632 157.413 65.6393 157.413C65.1786 157.413 64.7728 157.566 64.4218 157.874C64.0708 158.159 63.7856 158.619 63.5663 159.256C63.3688 159.892 63.2701 160.703 63.2701 161.69V172.812H60.5061ZM89.0875 173.207C87.4422 173.207 86.0164 172.834 84.8099 172.088C83.6253 171.343 82.704 170.29 82.0459 168.929C81.4097 167.548 81.0916 165.935 81.0916 164.093C81.0916 162.25 81.4097 160.648 82.0459 159.288C82.704 157.928 83.6143 156.875 84.777 156.13C85.9615 155.362 87.3545 154.978 88.9559 154.978C90.4695 154.978 91.8076 155.34 92.9702 156.064C94.1329 156.766 95.0432 157.797 95.7013 159.157C96.3594 160.517 96.6885 162.173 96.6885 164.125V164.948H83.9872C84.0969 166.813 84.5905 168.217 85.468 169.16C86.3673 170.103 87.5739 170.575 89.0875 170.575C90.2282 170.575 91.1605 170.311 91.8844 169.785C92.6302 169.237 93.1457 168.524 93.4309 167.646L96.3923 167.877C95.9317 169.434 95.0542 170.717 93.7599 171.726C92.4876 172.714 90.9301 173.207 89.0875 173.207ZM83.9872 162.513H93.6612C93.5296 160.824 93.036 159.585 92.1805 158.795C91.325 158.005 90.2501 157.61 88.9559 157.61C87.6177 157.61 86.5099 158.027 85.6325 158.861C84.777 159.672 84.2285 160.89 83.9872 162.513ZM106.152 172.812V155.373H108.456L108.719 159.782L108.456 159.716C108.675 158.224 109.147 157.128 109.87 156.426C110.616 155.724 111.603 155.373 112.832 155.373H116.418V157.874H112.865C112.009 157.874 111.285 158.049 110.693 158.4C110.123 158.729 109.684 159.223 109.377 159.881C109.07 160.517 108.916 161.318 108.916 162.283V172.812H106.152ZM101.611 172.812V170.377H114.444V172.812H101.611ZM101.611 157.808V155.373H107.666V157.808H101.611ZM128.712 173.207C127.089 173.207 125.674 172.834 124.467 172.088C123.261 171.343 122.328 170.29 121.67 168.929C121.012 167.548 120.683 165.935 120.683 164.093C120.683 162.25 121.012 160.648 121.67 159.288C122.328 157.928 123.261 156.875 124.467 156.13C125.674 155.362 127.089 154.978 128.712 154.978C130.006 154.978 131.158 155.219 132.167 155.702C133.176 156.162 134.01 156.842 134.668 157.742C135.326 158.641 135.775 159.738 136.017 161.032L133.121 161.23C132.858 160.067 132.331 159.179 131.542 158.565C130.774 157.928 129.831 157.61 128.712 157.61C127.111 157.61 125.849 158.192 124.928 159.354C124.029 160.495 123.579 162.074 123.579 164.093C123.579 166.111 124.029 167.701 124.928 168.864C125.849 170.004 127.111 170.575 128.712 170.575C129.831 170.575 130.796 170.246 131.608 169.588C132.441 168.929 132.99 167.942 133.253 166.626L136.148 166.824C135.907 168.118 135.446 169.248 134.766 170.213C134.086 171.156 133.231 171.891 132.2 172.417C131.169 172.944 130.006 173.207 128.712 173.207ZM147.751 172.812V155.373H150.515V172.812H147.751ZM140.742 172.812V170.377H156.536V172.812H140.742ZM141.071 157.808V155.373H150.515V157.808H141.071ZM147.488 152.642V149.417H150.383V152.642H147.488ZM165.408 173.207C164.311 173.207 163.324 173.01 162.446 172.615C161.569 172.22 160.878 171.672 160.373 170.97C159.869 170.246 159.617 169.412 159.617 168.469C159.617 166.977 160.055 165.825 160.933 165.014C161.832 164.18 163.236 163.577 165.145 163.204L171.002 162.02C171.002 160.528 170.662 159.42 169.982 158.696C169.324 157.972 168.369 157.61 167.119 157.61C165.912 157.61 164.969 157.884 164.289 158.433C163.609 158.959 163.137 159.727 162.874 160.736L159.946 160.506C160.275 158.861 161.054 157.533 162.282 156.524C163.532 155.493 165.145 154.978 167.119 154.978C169.225 154.978 170.859 155.614 172.022 156.886C173.184 158.137 173.766 159.87 173.766 162.085V169.324C173.766 169.719 173.853 169.993 174.029 170.147C174.204 170.301 174.468 170.377 174.819 170.377H175.937V172.812C175.806 172.834 175.597 172.845 175.312 172.845C175.027 172.867 174.753 172.878 174.49 172.878C173.744 172.878 173.108 172.757 172.581 172.516C172.077 172.275 171.693 171.891 171.429 171.364C171.166 170.816 171.024 170.114 171.002 169.259H171.528C171.375 170.004 171.002 170.684 170.409 171.299C169.839 171.891 169.115 172.363 168.238 172.714C167.36 173.043 166.417 173.207 165.408 173.207ZM165.671 170.772C166.856 170.772 167.843 170.575 168.633 170.18C169.422 169.763 170.015 169.193 170.409 168.469C170.804 167.723 171.002 166.867 171.002 165.902V164.389L165.671 165.442C164.487 165.661 163.664 166.001 163.203 166.462C162.743 166.9 162.512 167.482 162.512 168.206C162.512 169.017 162.787 169.653 163.335 170.114C163.905 170.553 164.684 170.772 165.671 170.772ZM186.553 172.812V154.122C186.553 153.42 186.355 152.872 185.961 152.477C185.566 152.082 185.017 151.885 184.315 151.885H180.202V149.45H184.447C186.048 149.45 187.255 149.867 188.066 150.7C188.9 151.512 189.317 152.718 189.317 154.32V172.812H186.553ZM179.544 172.812V170.377H195.338V172.812H179.544ZM226.079 173.339C224.543 173.339 223.205 173.01 222.064 172.352C220.923 171.693 220.024 170.761 219.366 169.555C218.73 168.326 218.39 166.889 218.346 165.244L221.11 164.981C221.176 166.867 221.614 168.271 222.426 169.193C223.238 170.114 224.455 170.575 226.079 170.575C227.702 170.575 228.919 170.114 229.731 169.193C230.565 168.249 230.981 166.846 230.981 164.981V149.45H233.811V164.981C233.811 167.569 233.12 169.61 231.738 171.101C230.356 172.593 228.47 173.339 226.079 173.339ZM246.927 173.207C245.282 173.207 243.856 172.834 242.65 172.088C241.465 171.343 240.544 170.29 239.886 168.929C239.25 167.548 238.931 165.935 238.931 164.093C238.931 162.25 239.25 160.648 239.886 159.288C240.544 157.928 241.454 156.875 242.617 156.13C243.801 155.362 245.194 154.978 246.796 154.978C248.309 154.978 249.647 155.34 250.81 156.064C251.973 156.766 252.883 157.797 253.541 159.157C254.199 160.517 254.528 162.173 254.528 164.125V164.948H241.827C241.937 166.813 242.43 168.217 243.308 169.16C244.207 170.103 245.414 170.575 246.927 170.575C248.068 170.575 249 170.311 249.724 169.785C250.47 169.237 250.986 168.524 251.271 167.646L254.232 167.877C253.771 169.434 252.894 170.717 251.6 171.726C250.327 172.714 248.77 173.207 246.927 173.207ZM241.827 162.513H251.501C251.369 160.824 250.876 159.585 250.02 158.795C249.165 158.005 248.09 157.61 246.796 157.61C245.458 157.61 244.35 158.027 243.472 158.861C242.617 159.672 242.068 160.89 241.827 162.513ZM268.928 172.812C267.239 172.812 265.977 172.417 265.144 171.628C264.31 170.838 263.893 169.631 263.893 168.008V151.293H266.657V168.008C266.657 168.82 266.844 169.423 267.217 169.818C267.59 170.191 268.16 170.377 268.928 170.377H273.6V172.812H268.928ZM258.135 157.808V155.373H273.6V157.808H258.135Z" fill="#121212"/>
<path d="M553.735 169.456L562.948 152.675L565.58 152.806L556.367 169.588L553.735 169.456ZM559.657 173.339C557.968 173.339 556.498 172.845 555.248 171.858C554.02 170.871 553.076 169.467 552.418 167.646C551.76 165.825 551.431 163.665 551.431 161.164C551.431 158.641 551.76 156.47 552.418 154.649C553.076 152.828 554.02 151.424 555.248 150.437C556.498 149.428 557.968 148.923 559.657 148.923C561.368 148.923 562.838 149.428 564.067 150.437C565.295 151.424 566.238 152.828 566.896 154.649C567.554 156.47 567.884 158.641 567.884 161.164C567.884 163.665 567.554 165.825 566.896 167.646C566.238 169.467 565.295 170.871 564.067 171.858C562.838 172.845 561.368 173.339 559.657 173.339ZM559.657 170.575C560.754 170.575 561.686 170.191 562.454 169.423C563.244 168.655 563.847 167.569 564.264 166.166C564.703 164.74 564.922 163.072 564.922 161.164C564.922 159.212 564.703 157.533 564.264 156.13C563.847 154.704 563.244 153.607 562.454 152.839C561.686 152.071 560.754 151.687 559.657 151.687C558.582 151.687 557.65 152.071 556.86 152.839C556.071 153.607 555.457 154.704 555.018 156.13C554.601 157.533 554.393 159.212 554.393 161.164C554.393 163.072 554.601 164.74 555.018 166.166C555.457 167.569 556.071 168.655 556.86 169.423C557.65 170.191 558.582 170.575 559.657 170.575ZM577.347 172.812V168.798H581.427V172.812H577.347ZM590.891 172.812C590.891 171.167 591.143 169.686 591.648 168.37C592.174 167.032 593.085 165.76 594.379 164.553C595.695 163.347 597.516 162.129 599.841 160.901C600.916 160.33 601.783 159.804 602.441 159.321C603.099 158.839 603.581 158.323 603.888 157.775C604.196 157.226 604.349 156.557 604.349 155.768C604.349 154.956 604.174 154.254 603.823 153.662C603.472 153.047 602.945 152.565 602.243 152.214C601.563 151.863 600.708 151.687 599.677 151.687C598.031 151.687 596.726 152.115 595.761 152.971C594.818 153.826 594.225 155.044 593.984 156.623L591.023 156.426C591.286 154.144 592.163 152.324 593.655 150.964C595.147 149.603 597.154 148.923 599.677 148.923C601.278 148.923 602.649 149.209 603.79 149.779C604.93 150.349 605.797 151.15 606.389 152.181C607.003 153.19 607.311 154.364 607.311 155.702C607.311 156.886 607.113 157.917 606.718 158.795C606.323 159.65 605.654 160.451 604.711 161.197C603.79 161.943 602.517 162.743 600.894 163.599C599.49 164.345 598.306 165.102 597.34 165.869C596.397 166.637 595.673 167.383 595.169 168.107C594.686 168.809 594.423 169.456 594.379 170.048H607.343V172.812H590.891ZM618.781 173.339C617.268 173.339 615.941 173.065 614.8 172.516C613.681 171.968 612.782 171.2 612.102 170.213C611.444 169.226 611.06 168.085 610.95 166.791L613.912 166.593C614.087 167.909 614.603 168.908 615.458 169.588C616.336 170.246 617.443 170.575 618.781 170.575C620.295 170.575 621.502 170.114 622.401 169.193C623.322 168.249 623.783 166.955 623.783 165.31C623.783 164.213 623.586 163.27 623.191 162.48C622.796 161.669 622.225 161.054 621.48 160.638C620.756 160.199 619.878 159.979 618.847 159.979C617.926 159.979 617.038 160.21 616.182 160.67C615.348 161.109 614.745 161.745 614.372 162.579H611.345L612.892 149.45H625.33V152.214H615.491L614.438 160.835L613.912 160.308C614.263 159.628 614.723 159.069 615.294 158.63C615.864 158.192 616.489 157.863 617.169 157.643C617.871 157.402 618.562 157.281 619.242 157.281C620.734 157.281 622.039 157.632 623.158 158.334C624.298 159.014 625.176 159.957 625.79 161.164C626.426 162.37 626.744 163.752 626.744 165.31C626.744 166.867 626.404 168.26 625.724 169.489C625.044 170.695 624.101 171.639 622.895 172.319C621.71 172.999 620.339 173.339 618.781 173.339ZM651.397 172.812V149.45H654.161V164.751L662.651 155.373H666.336L659.459 162.776L666.665 172.812H663.309L657.583 164.652L654.161 168.271V172.812H651.397ZM669.482 172.812V155.373H672.016L672.114 159.256L671.785 159.19C671.983 157.895 672.4 156.875 673.036 156.13C673.694 155.362 674.527 154.978 675.536 154.978C676.567 154.978 677.357 155.351 677.906 156.097C678.476 156.842 678.827 157.939 678.959 159.387H678.63C678.827 158.027 679.266 156.952 679.946 156.162C680.648 155.373 681.525 154.978 682.578 154.978C683.982 154.978 685.002 155.46 685.638 156.426C686.274 157.391 686.592 158.992 686.592 161.23V172.812H683.828V161.625C683.828 160.067 683.664 158.981 683.335 158.367C683.006 157.731 682.49 157.413 681.788 157.413C681.328 157.413 680.922 157.566 680.571 157.874C680.22 158.159 679.935 158.619 679.715 159.256C679.518 159.892 679.419 160.703 679.419 161.69V172.812H676.655V161.625C676.655 160.133 676.491 159.058 676.162 158.4C675.855 157.742 675.339 157.413 674.615 157.413C674.154 157.413 673.749 157.566 673.398 157.874C673.047 158.159 672.761 158.619 672.542 159.256C672.345 159.892 672.246 160.703 672.246 161.69V172.812H669.482ZM691.449 176.432L701.453 148.134H704.085L694.082 176.432H691.449ZM717.826 173.207C716.313 173.207 715.007 172.944 713.911 172.417C712.814 171.891 711.947 171.189 711.311 170.311C710.697 169.412 710.346 168.414 710.258 167.317L713.154 167.12C713.329 168.195 713.801 169.039 714.569 169.653C715.358 170.268 716.444 170.575 717.826 170.575C719.12 170.575 720.119 170.388 720.821 170.015C721.544 169.642 721.906 169.061 721.906 168.271C721.906 167.767 721.786 167.35 721.544 167.021C721.303 166.692 720.853 166.418 720.195 166.198C719.537 165.957 718.572 165.727 717.3 165.507C715.611 165.2 714.283 164.827 713.318 164.389C712.375 163.928 711.706 163.358 711.311 162.678C710.916 161.998 710.719 161.186 710.719 160.243C710.719 159.234 710.971 158.334 711.476 157.544C711.98 156.755 712.726 156.13 713.713 155.669C714.7 155.208 715.907 154.978 717.333 154.978C718.78 154.978 719.987 155.241 720.952 155.768C721.939 156.272 722.718 156.952 723.288 157.808C723.859 158.641 724.232 159.563 724.407 160.572L721.512 160.769C721.38 160.155 721.128 159.617 720.755 159.157C720.404 158.674 719.932 158.301 719.34 158.038C718.769 157.753 718.089 157.61 717.3 157.61C716.027 157.61 715.084 157.863 714.47 158.367C713.856 158.872 713.549 159.497 713.549 160.243C713.549 160.835 713.691 161.307 713.976 161.658C714.262 162.009 714.722 162.294 715.358 162.513C715.995 162.711 716.839 162.897 717.892 163.072C719.691 163.358 721.084 163.731 722.071 164.191C723.058 164.63 723.749 165.178 724.144 165.836C724.539 166.495 724.736 167.306 724.736 168.271C724.736 169.302 724.429 170.191 723.815 170.937C723.223 171.661 722.4 172.22 721.347 172.615C720.316 173.01 719.142 173.207 717.826 173.207Z" fill="#121212"/>
<path d="M0 214.931C0 209.416 4.47114 204.945 9.98658 204.945H76.6389V248H9.98657C4.47113 248 0 243.529 0 238.014V214.931Z" fill="url(#paint0_linear_162_416)"/>
<path d="M579.387 33.5265C577.852 33.5265 576.459 33.2632 575.208 32.7368C573.958 32.2103 572.971 31.4315 572.247 30.4005C571.523 29.3695 571.161 28.0972 571.161 26.5836C571.161 24.8945 571.666 23.5015 572.675 22.4047C573.684 21.2859 575.022 20.5291 576.689 20.1343L576.755 20.7923C575.417 20.4194 574.331 19.8162 573.497 18.9826C572.686 18.1271 572.28 16.9754 572.28 15.5276C572.28 14.2992 572.587 13.2023 573.201 12.2371C573.815 11.2719 574.649 10.5151 575.702 9.96669C576.777 9.39635 578.005 9.11117 579.387 9.11117C580.769 9.11117 581.998 9.39635 583.073 9.96669C584.148 10.5151 584.981 11.2719 585.573 12.2371C586.188 13.2023 586.495 14.2992 586.495 15.5276C586.495 16.9754 586.089 18.1271 585.277 18.9826C584.466 19.8162 583.38 20.4194 582.02 20.7923L582.086 20.1343C583.775 20.5291 585.113 21.2859 586.1 22.4047C587.109 23.5015 587.614 24.8945 587.614 26.5836C587.614 28.0972 587.252 29.3695 586.528 30.4005C585.804 31.4315 584.817 32.2103 583.566 32.7368C582.338 33.2632 580.945 33.5265 579.387 33.5265ZM579.387 30.7625C580.923 30.7625 582.184 30.4115 583.171 29.7095C584.159 28.9856 584.652 27.8888 584.652 26.4191C584.652 25.059 584.213 23.9731 583.336 23.1615C582.458 22.3279 581.142 21.9111 579.387 21.9111C577.654 21.9111 576.338 22.3279 575.439 23.1615C574.561 23.9731 574.123 25.059 574.123 26.4191C574.123 27.8888 574.616 28.9856 575.603 29.7095C576.59 30.4115 577.852 30.7625 579.387 30.7625ZM579.387 19.2787C580.638 19.2787 581.636 18.9716 582.382 18.3574C583.149 17.7212 583.533 16.778 583.533 15.5276C583.533 14.4088 583.16 13.5204 582.415 12.8623C581.691 12.2042 580.682 11.8752 579.387 11.8752C578.115 11.8752 577.106 12.2042 576.36 12.8623C575.614 13.5204 575.241 14.4088 575.241 15.5276C575.241 16.778 575.614 17.7212 576.36 18.3574C577.128 18.9716 578.137 19.2787 579.387 19.2787ZM599.183 33.5265C597.428 33.5265 595.926 33.1316 594.675 32.3419C593.447 31.5303 592.503 30.3457 591.845 28.7882C591.209 27.2307 590.891 25.3442 590.891 23.1286C590.891 21.1982 591.045 19.3884 591.352 17.6993C591.681 16.0102 592.196 14.5295 592.898 13.2572C593.622 11.9629 594.565 10.9538 595.728 10.2299C596.913 9.48409 598.371 9.11117 600.104 9.11117C601.486 9.11117 602.66 9.34151 603.625 9.80217C604.59 10.2628 605.369 10.91 605.961 11.7435C606.576 12.5771 607.036 13.5423 607.343 14.6392L604.382 14.9024C604.119 13.9811 603.658 13.2462 603 12.6978C602.364 12.1494 601.399 11.8752 600.104 11.8752C598.81 11.8752 597.702 12.2481 596.781 12.9939C595.86 13.7178 595.136 14.8147 594.609 16.2844C594.105 17.7541 593.831 19.5968 593.787 21.8124L593.194 21.6808C593.436 20.8911 593.853 20.1672 594.445 19.5091C595.059 18.829 595.805 18.2916 596.682 17.8967C597.582 17.4799 598.591 17.2715 599.71 17.2715C601.245 17.2715 602.583 17.6006 603.724 18.2587C604.865 18.9168 605.753 19.8491 606.389 21.0556C607.025 22.2402 607.343 23.6331 607.343 25.2345C607.343 26.9455 606.993 28.4262 606.291 29.6766C605.611 30.9051 604.656 31.8593 603.428 32.5393C602.221 33.1974 600.806 33.5265 599.183 33.5265ZM599.249 30.7625C600.784 30.7625 602.024 30.2799 602.967 29.3147C603.91 28.3275 604.382 26.9675 604.382 25.2345C604.382 23.6112 603.932 22.3279 603.033 21.3846C602.156 20.4414 600.982 19.9697 599.512 19.9697C598.459 19.9697 597.516 20.1891 596.682 20.6278C595.849 21.0446 595.191 21.6479 594.708 22.4376C594.225 23.2273 593.984 24.1596 593.984 25.2345C593.984 26.3094 594.193 27.2636 594.609 28.0972C595.048 28.9308 595.662 29.5889 596.452 30.0715C597.242 30.5321 598.174 30.7625 599.249 30.7625ZM618.847 33.5265C617.312 33.5265 615.919 33.2632 614.668 32.7368C613.418 32.2103 612.431 31.4315 611.707 30.4005C610.983 29.3695 610.621 28.0972 610.621 26.5836C610.621 24.8945 611.126 23.5015 612.135 22.4047C613.144 21.2859 614.482 20.5291 616.149 20.1343L616.215 20.7923C614.877 20.4194 613.791 19.8162 612.957 18.9826C612.146 18.1271 611.74 16.9754 611.74 15.5276C611.74 14.2992 612.047 13.2023 612.661 12.2371C613.275 11.2719 614.109 10.5151 615.162 9.96669C616.237 9.39635 617.465 9.11117 618.847 9.11117C620.229 9.11117 621.458 9.39635 622.533 9.96669C623.608 10.5151 624.441 11.2719 625.033 12.2371C625.648 13.2023 625.955 14.2992 625.955 15.5276C625.955 16.9754 625.549 18.1271 624.737 18.9826C623.926 19.8162 622.84 20.4194 621.48 20.7923L621.545 20.1343C623.235 20.5291 624.573 21.2859 625.56 22.4047C626.569 23.5015 627.073 24.8945 627.073 26.5836C627.073 28.0972 626.712 29.3695 625.988 30.4005C625.264 31.4315 624.277 32.2103 623.026 32.7368C621.798 33.2632 620.405 33.5265 618.847 33.5265ZM618.847 30.7625C620.383 30.7625 621.644 30.4115 622.631 29.7095C623.618 28.9856 624.112 27.8888 624.112 26.4191C624.112 25.059 623.673 23.9731 622.796 23.1615C621.918 22.3279 620.602 21.9111 618.847 21.9111C617.114 21.9111 615.798 22.3279 614.899 23.1615C614.021 23.9731 613.583 25.059 613.583 26.4191C613.583 27.8888 614.076 28.9856 615.063 29.7095C616.05 30.4115 617.312 30.7625 618.847 30.7625ZM618.847 19.2787C620.098 19.2787 621.096 18.9716 621.842 18.3574C622.609 17.7212 622.993 16.778 622.993 15.5276C622.993 14.4088 622.62 13.5204 621.875 12.8623C621.151 12.2042 620.142 11.8752 618.847 11.8752C617.575 11.8752 616.566 12.2042 615.82 12.8623C615.074 13.5204 614.701 14.4088 614.701 15.5276C614.701 16.778 615.074 17.7212 615.82 18.3574C616.588 18.9716 617.597 19.2787 618.847 19.2787ZM651.397 33V9.63765H654.161V24.9383L662.651 15.5605H666.336L659.459 22.9641L666.665 33H663.309L657.583 24.8396L654.161 28.4591V33H651.397ZM669.482 33V15.5605H672.016L672.114 19.4433L671.785 19.3774C671.983 18.0832 672.4 17.0631 673.036 16.3173C673.694 15.5495 674.527 15.1656 675.536 15.1656C676.567 15.1656 677.357 15.5386 677.906 16.2844C678.476 17.0302 678.827 18.1271 678.959 19.5749H678.63C678.827 18.2148 679.266 17.1399 679.946 16.3502C680.648 15.5605 681.525 15.1656 682.578 15.1656C683.982 15.1656 685.002 15.6482 685.638 16.6134C686.274 17.5787 686.592 19.18 686.592 21.4175V33H683.828V21.8124C683.828 20.2549 683.664 19.169 683.335 18.5548C683.006 17.9187 682.49 17.6006 681.788 17.6006C681.328 17.6006 680.922 17.7541 680.571 18.0613C680.22 18.3464 679.935 18.8071 679.715 19.4433C679.518 20.0794 679.419 20.8911 679.419 21.8782V33H676.655V21.8124C676.655 20.3207 676.491 19.2458 676.162 18.5877C675.855 17.9296 675.339 17.6006 674.615 17.6006C674.154 17.6006 673.749 17.7541 673.398 18.0613C673.047 18.3464 672.761 18.8071 672.542 19.4433C672.345 20.0794 672.246 20.8911 672.246 21.8782V33H669.482ZM691.449 36.6195L701.453 8.32146H704.085L694.082 36.6195H691.449ZM717.826 33.3949C716.313 33.3949 715.007 33.1316 713.911 32.6051C712.814 32.0787 711.947 31.3767 711.311 30.4992C710.697 29.5998 710.346 28.6017 710.258 27.5049L713.154 27.3075C713.329 28.3824 713.801 29.2269 714.569 29.8411C715.358 30.4554 716.444 30.7625 717.826 30.7625C719.12 30.7625 720.119 30.576 720.821 30.2031C721.544 29.8302 721.906 29.2489 721.906 28.4591C721.906 27.9546 721.786 27.5378 721.544 27.2088C721.303 26.8797 720.853 26.6055 720.195 26.3862C719.537 26.1448 718.572 25.9145 717.3 25.6952C715.611 25.388 714.283 25.0151 713.318 24.5764C712.375 24.1157 711.706 23.5454 711.311 22.8653C710.916 22.1853 710.719 21.3737 710.719 20.4304C710.719 19.4213 710.971 18.5219 711.476 17.7322C711.98 16.9425 712.726 16.3173 713.713 15.8566C714.7 15.396 715.907 15.1656 717.333 15.1656C718.78 15.1656 719.987 15.4289 720.952 15.9554C721.939 16.4599 722.718 17.1399 723.288 17.9954C723.859 18.829 724.232 19.7504 724.407 20.7594L721.512 20.9569C721.38 20.3427 721.128 19.8052 720.755 19.3445C720.404 18.8619 719.932 18.489 719.34 18.2258C718.769 17.9406 718.089 17.798 717.3 17.798C716.027 17.798 715.084 18.0503 714.47 18.5548C713.856 19.0594 713.549 19.6846 713.549 20.4304C713.549 21.0227 713.691 21.4943 713.976 21.8453C714.262 22.1963 714.722 22.4815 715.358 22.7008C715.995 22.8983 716.839 23.0847 717.892 23.2602C719.691 23.5454 721.084 23.9183 722.071 24.379C723.058 24.8177 723.749 25.3661 724.144 26.0242C724.539 26.6823 724.736 27.4939 724.736 28.4591C724.736 29.4902 724.429 30.3786 723.815 31.1244C723.223 31.8483 722.4 32.4077 721.347 32.8026C720.316 33.1974 719.142 33.3949 717.826 33.3949Z" fill="#121212"/>
<path d="M10.2334 33.5265C8.58813 33.5265 7.12936 33.1865 5.85704 32.5064C4.58472 31.8264 3.56468 30.8941 2.7969 29.7095C2.02912 28.503 1.57943 27.1101 1.44781 25.5306L4.40923 25.3332C4.56279 26.4958 4.89184 27.483 5.39637 28.2946C5.92285 29.1063 6.59191 29.7205 7.40356 30.1373C8.23715 30.5541 9.20235 30.7625 10.2992 30.7625C11.396 30.7625 12.3173 30.6309 13.0632 30.3676C13.809 30.0824 14.3684 29.6766 14.7413 29.1501C15.1362 28.6017 15.3336 27.9546 15.3336 27.2088C15.3336 26.4629 15.1581 25.8158 14.8071 25.2674C14.4781 24.697 13.8419 24.1706 12.8987 23.688C11.9773 23.2054 10.6063 22.7118 8.78556 22.2073C7.16226 21.7466 5.84607 21.242 4.83699 20.6936C3.84985 20.1452 3.12595 19.4762 2.66528 18.6864C2.22655 17.8967 2.00719 16.9206 2.00719 15.7579C2.00719 14.4417 2.3143 13.2901 2.92852 12.3029C3.56468 11.2939 4.46407 10.5151 5.62671 9.96669C6.78934 9.39635 8.17134 9.11117 9.7727 9.11117C11.3741 9.11117 12.7451 9.44022 13.8858 10.0983C15.0265 10.7345 15.9259 11.6119 16.584 12.7307C17.264 13.8495 17.6918 15.1218 17.8673 16.5476L14.9058 16.7451C14.7742 15.8018 14.5 14.9682 14.0832 14.2443C13.6664 13.4985 13.0961 12.9172 12.3722 12.5004C11.6483 12.0836 10.7598 11.8752 9.70689 11.8752C8.25909 11.8752 7.10742 12.2262 6.2519 12.9281C5.39637 13.6082 4.96861 14.5075 4.96861 15.6263C4.96861 16.3502 5.12217 16.9535 5.42928 17.4361C5.75833 17.8967 6.32867 18.3135 7.14032 18.6864C7.95197 19.0374 9.09267 19.4213 10.5624 19.8381C12.4709 20.3646 13.9845 20.9569 15.1033 21.615C16.244 22.2731 17.0556 23.0628 17.5382 23.9841C18.0428 24.8835 18.295 25.9803 18.295 27.2746C18.295 28.503 17.955 29.5889 17.275 30.5321C16.5949 31.4754 15.6517 32.2103 14.4452 32.7368C13.2387 33.2632 11.8347 33.5265 10.2334 33.5265ZM32.168 33C30.4789 33 29.2175 32.6051 28.3839 31.8154C27.5503 31.0257 27.1335 29.8192 27.1335 28.1959V11.4803H29.8975V28.1959C29.8975 29.0076 30.084 29.6108 30.4569 30.0057C30.8298 30.3786 31.4002 30.5651 32.168 30.5651H36.8404V33H32.168ZM21.3752 17.9954V15.5605H36.8404V17.9954H21.3752ZM47.028 33.3949C45.9312 33.3949 44.9441 33.1974 44.0666 32.8026C43.1892 32.4077 42.4982 31.8593 41.9936 31.1573C41.4891 30.4334 41.2368 29.5998 41.2368 28.6566C41.2368 27.1649 41.6755 26.0132 42.553 25.2016C43.4524 24.368 44.8563 23.7647 46.7648 23.3918L52.6218 22.2073C52.6218 20.7156 52.2818 19.6078 51.6018 18.8839C50.9437 18.16 49.9895 17.798 48.7391 17.798C47.5326 17.798 46.5893 18.0722 45.9093 18.6206C45.2293 19.1471 44.7576 19.9149 44.4944 20.924L41.5659 20.6936C41.8949 19.0484 42.6737 17.7212 43.9021 16.7122C45.1525 15.6811 46.7648 15.1656 48.7391 15.1656C50.845 15.1656 52.4793 15.8018 53.6419 17.0741C54.8045 18.3245 55.3858 20.0575 55.3858 22.2731V29.5121C55.3858 29.907 55.4736 30.1812 55.6491 30.3347C55.8246 30.4883 56.0878 30.5651 56.4388 30.5651H57.5576V33C57.4259 33.0219 57.2175 33.0329 56.9324 33.0329C56.6472 33.0548 56.373 33.0658 56.1097 33.0658C55.3639 33.0658 54.7277 32.9452 54.2013 32.7039C53.6967 32.4626 53.3128 32.0787 53.0496 31.5522C52.7864 31.0038 52.6438 30.3018 52.6218 29.4463H53.1483C52.9948 30.1921 52.6218 30.8722 52.0296 31.4864C51.4592 32.0787 50.7353 32.5503 49.8578 32.9013C48.9804 33.2303 48.0371 33.3949 47.028 33.3949ZM47.2913 30.9599C48.4759 30.9599 49.463 30.7625 50.2527 30.3676C51.0424 29.9508 51.6347 29.3805 52.0296 28.6566C52.4244 27.9107 52.6218 27.0552 52.6218 26.09V24.5764L47.2913 25.6293C46.1067 25.8487 45.2841 26.1887 44.8234 26.6494C44.3628 27.0881 44.1324 27.6694 44.1324 28.3933C44.1324 29.205 44.4066 29.8411 44.955 30.3018C45.5254 30.7405 46.3041 30.9599 47.2913 30.9599ZM66.6922 33V15.5605H68.9955L69.2588 19.9697L68.9955 19.9039C69.2149 18.4122 69.6865 17.3154 70.4104 16.6134C71.1563 15.9115 72.1434 15.5605 73.3719 15.5605H76.9585V18.0613H73.4048C72.5493 18.0613 71.8253 18.2367 71.2331 18.5877C70.6627 18.9168 70.224 19.4104 69.9169 20.0684C69.6098 20.7046 69.4562 21.5053 69.4562 22.4705V33H66.6922ZM62.1514 33V30.5651H74.9842V33H62.1514ZM62.1514 17.9954V15.5605H68.2058V17.9954H62.1514ZM87.9029 33V14.3101C87.9029 13.6082 87.7055 13.0597 87.3106 12.6649C86.9158 12.27 86.3673 12.0726 85.6654 12.0726H81.5523V9.63765H85.797C87.3984 9.63765 88.6049 10.0544 89.4165 10.888C90.2501 11.6997 90.6669 12.9062 90.6669 14.5075V33H87.9029ZM80.8942 33V30.5651H96.6885V33H80.8942ZM108.291 33V15.5605H111.055V33H108.291ZM101.282 33V30.5651H117.077V33H101.282ZM101.611 17.9954V15.5605H111.055V17.9954H101.611ZM108.028 12.8294V9.60474H110.923V12.8294H108.028ZM121.144 33V15.5605H123.678L123.776 20.0026L123.447 19.7065C123.667 18.6755 124.061 17.8309 124.632 17.1728C125.224 16.4928 125.926 15.9883 126.738 15.6592C127.549 15.3302 128.405 15.1656 129.304 15.1656C130.642 15.1656 131.75 15.4618 132.628 16.0541C133.527 16.6464 134.207 17.447 134.668 18.4561C135.128 19.4433 135.359 20.551 135.359 21.7795V33H132.595V22.5692C132.595 20.9459 132.277 19.7175 131.64 18.8839C131.004 18.0284 130.028 17.6006 128.712 17.6006C127.813 17.6006 127.001 17.798 126.277 18.1929C125.553 18.5658 124.972 19.1252 124.533 19.871C124.116 20.5949 123.908 21.4943 123.908 22.5692V33H121.144ZM148.277 33.3949C146.632 33.3949 145.206 33.0219 144 32.2761C142.815 31.5303 141.894 30.4773 141.236 29.1172C140.6 27.7352 140.282 26.1229 140.282 24.2802C140.282 22.4376 140.6 20.8362 141.236 19.4762C141.894 18.1161 142.804 17.0631 143.967 16.3173C145.151 15.5495 146.544 15.1656 148.146 15.1656C149.659 15.1656 150.998 15.5276 152.16 16.2515C153.323 16.9535 154.233 17.9845 154.891 19.3445C155.549 20.7046 155.878 22.3608 155.878 24.3132V25.1358H143.177C143.287 27.0004 143.78 28.4043 144.658 29.3476C145.557 30.2908 146.764 30.7625 148.277 30.7625C149.418 30.7625 150.35 30.4992 151.074 29.9728C151.82 29.4244 152.336 28.7114 152.621 27.834L155.582 28.0643C155.122 29.6218 154.244 30.9051 152.95 31.9141C151.678 32.9013 150.12 33.3949 148.277 33.3949ZM143.177 22.7008H152.851C152.72 21.0117 152.226 19.7723 151.37 18.9826C150.515 18.1929 149.44 17.798 148.146 17.798C146.808 17.798 145.7 18.2148 144.822 19.0484C143.967 19.86 143.418 21.0775 143.177 22.7008ZM165.342 33V15.5605H167.645L167.909 19.9697L167.645 19.9039C167.865 18.4122 168.336 17.3154 169.06 16.6134C169.806 15.9115 170.793 15.5605 172.022 15.5605H175.608V18.0613H172.055C171.199 18.0613 170.475 18.2367 169.883 18.5877C169.313 18.9168 168.874 19.4104 168.567 20.0684C168.26 20.7046 168.106 21.5053 168.106 22.4705V33H165.342ZM160.801 33V30.5651H173.634V33H160.801ZM160.801 17.9954V15.5605H166.856V17.9954H160.801ZM205.329 33L198.287 9.63765H201.314L207.566 31.1573H206.776L213.028 9.63765H216.055L209.014 33H205.329ZM227.197 33.3949C225.552 33.3949 224.126 33.0219 222.92 32.2761C221.735 31.5303 220.814 30.4773 220.156 29.1172C219.52 27.7352 219.201 26.1229 219.201 24.2802C219.201 22.4376 219.52 20.8362 220.156 19.4762C220.814 18.1161 221.724 17.0631 222.887 16.3173C224.071 15.5495 225.464 15.1656 227.066 15.1656C228.579 15.1656 229.917 15.5276 231.08 16.2515C232.243 16.9535 233.153 17.9845 233.811 19.3445C234.469 20.7046 234.798 22.3608 234.798 24.3132V25.1358H222.097C222.207 27.0004 222.7 28.4043 223.578 29.3476C224.477 30.2908 225.684 30.7625 227.197 30.7625C228.338 30.7625 229.27 30.4992 229.994 29.9728C230.74 29.4244 231.256 28.7114 231.541 27.834L234.502 28.0643C234.042 29.6218 233.164 30.9051 231.87 31.9141C230.597 32.9013 229.04 33.3949 227.197 33.3949ZM222.097 22.7008H231.771C231.639 21.0117 231.146 19.7723 230.29 18.9826C229.435 18.1929 228.36 17.798 227.066 17.798C225.728 17.798 224.62 18.2148 223.742 19.0484C222.887 19.86 222.338 21.0775 222.097 22.7008ZM246.532 38.3306C245.282 38.3306 244.152 38.1222 243.143 37.7054C242.134 37.2886 241.29 36.6963 240.61 35.9285C239.93 35.1607 239.469 34.2723 239.228 33.2632L242.123 33.0658C242.386 33.8775 242.847 34.5136 243.505 34.9743C244.185 35.4569 245.194 35.6982 246.532 35.6982C248.112 35.6982 249.318 35.3801 250.152 34.744C251.007 34.1078 251.435 33.1536 251.435 31.8812V29.0514C251.018 29.9728 250.349 30.7076 249.428 31.256C248.507 31.8045 247.476 32.0787 246.335 32.0787C244.865 32.0787 243.549 31.7167 242.386 30.9928C241.246 30.2689 240.346 29.2708 239.688 27.9985C239.052 26.7262 238.734 25.2674 238.734 23.6222C238.734 21.955 239.052 20.4962 239.688 19.2458C240.324 17.9735 241.202 16.9754 242.321 16.2515C243.461 15.5276 244.756 15.1656 246.203 15.1656C247.432 15.1656 248.529 15.4508 249.494 16.0212C250.481 16.5915 251.172 17.3593 251.567 18.3245V15.5605H254.199V31.8154C254.199 33.1755 253.892 34.3381 253.278 35.3033C252.664 36.2905 251.786 37.0363 250.646 37.5409C249.505 38.0673 248.134 38.3306 246.532 38.3306ZM246.467 29.4463C247.958 29.4463 249.154 28.9308 250.053 27.8998C250.953 26.8468 251.413 25.4209 251.435 23.6222C251.457 22.4156 251.26 21.3846 250.843 20.5291C250.448 19.6517 249.867 18.9826 249.099 18.5219C248.353 18.0393 247.476 17.798 246.467 17.798C244.931 17.798 243.736 18.3245 242.88 19.3774C242.046 20.4085 241.63 21.8234 241.63 23.6222C241.63 25.4209 242.057 26.8468 242.913 27.8998C243.79 28.9308 244.975 29.4463 246.467 29.4463ZM264.058 33.3949C262.961 33.3949 261.974 33.1974 261.096 32.8026C260.219 32.4077 259.528 31.8593 259.023 31.1573C258.519 30.4334 258.267 29.5998 258.267 28.6566C258.267 27.1649 258.705 26.0132 259.583 25.2016C260.482 24.368 261.886 23.7647 263.795 23.3918L269.652 22.2073C269.652 20.7156 269.312 19.6078 268.632 18.8839C267.973 18.16 267.019 17.798 265.769 17.798C264.562 17.798 263.619 18.0722 262.939 18.6206C262.259 19.1471 261.787 19.9149 261.524 20.924L258.596 20.6936C258.925 19.0484 259.703 17.7212 260.932 16.7122C262.182 15.6811 263.795 15.1656 265.769 15.1656C267.875 15.1656 269.509 15.8018 270.672 17.0741C271.834 18.3245 272.416 20.0575 272.416 22.2731V29.5121C272.416 29.907 272.503 30.1812 272.679 30.3347C272.854 30.4883 273.118 30.5651 273.469 30.5651H274.587V33C274.456 33.0219 274.247 33.0329 273.962 33.0329C273.677 33.0548 273.403 33.0658 273.14 33.0658C272.394 33.0658 271.758 32.9452 271.231 32.7039C270.726 32.4626 270.343 32.0787 270.079 31.5522C269.816 31.0038 269.674 30.3018 269.652 29.4463H270.178C270.025 30.1921 269.652 30.8722 269.059 31.4864C268.489 32.0787 267.765 32.5503 266.888 32.9013C266.01 33.2303 265.067 33.3949 264.058 33.3949ZM264.321 30.9599C265.506 30.9599 266.493 30.7625 267.282 30.3676C268.072 29.9508 268.664 29.3805 269.059 28.6566C269.454 27.9107 269.652 27.0552 269.652 26.09V24.5764L264.321 25.6293C263.136 25.8487 262.314 26.1887 261.853 26.6494C261.393 27.0881 261.162 27.6694 261.162 28.3933C261.162 29.205 261.436 29.8411 261.985 30.3018C262.555 30.7405 263.334 30.9599 264.321 30.9599ZM298.582 33V30.236H304.406V12.4016H298.582V9.63765H313.06V12.4016H307.236V30.236H313.06V33H298.582ZM317.325 33L323.774 21.253L317.457 9.63765H320.747L325.584 19.0155L330.421 9.63765H333.646L327.328 21.2859L333.777 33H330.487L325.518 23.4905L320.55 33H317.325Z" fill="#121212"/>
<rect y="61.584" width="727.356" height="43.2752" rx="9.98658" fill="#5A5A59"/>
<defs>
<linearGradient id="paint0_linear_162_416" x1="724.194" y1="226.472" x2="0" y2="226.472" gradientUnits="userSpaceOnUse">
<stop stop-color="#D9D9D9"/>
<stop offset="1" stop-color="#535352"/>
</linearGradient>
</defs>
</svg>
