<svg width="627" height="167" viewBox="0 0 627 167" fill="none" xmlns="http://www.w3.org/2000/svg">
<path d="M117.781 35.0938C114.5 35.0938 111.875 32.4688 111.875 29.2812C111.875 26.0469 114.5 23.4219 117.781 23.4219C121.109 23.4219 123.688 26.0469 123.688 29.2812C123.688 32.4688 121.109 35.0938 117.781 35.0938ZM112.719 92V42.6875H122.844V92H112.719ZM134.516 92V24.3594H159.688C172.953 24.3594 182.141 33.2656 182.141 46.5312V46.625C182.141 59.8438 172.953 68.8906 159.688 68.8906H145.016V92H134.516ZM157.062 33.2188H145.016V60.0781H157.062C166.203 60.0781 171.453 55.1562 171.453 46.6719V46.5781C171.453 38.1406 166.203 33.2188 157.062 33.2188ZM190.484 92V24.3594H200.609V50.7969H200.844C203.469 45.0781 208.766 41.75 216.125 41.75C226.672 41.75 233.609 49.625 233.609 61.5312V92H223.484V63.4531C223.484 55.2969 219.359 50.4219 212.234 50.4219C205.25 50.4219 200.609 55.7656 200.609 63.4531V92H190.484ZM264.641 92.9844C250.484 92.9844 241.25 83.1875 241.25 67.3438V67.25C241.25 51.5 250.578 41.75 264.594 41.75C278.656 41.75 288.031 51.4531 288.031 67.25V67.3438C288.031 83.2344 278.75 92.9844 264.641 92.9844ZM264.688 84.5C272.609 84.5 277.672 78.2188 277.672 67.3438V67.25C277.672 56.4688 272.516 50.2344 264.594 50.2344C256.812 50.2344 251.609 56.4688 251.609 67.25V67.3438C251.609 78.2656 256.766 84.5 264.688 84.5ZM295.859 92V42.6875H305.984V50.1406H306.219C308.797 45.125 313.859 41.75 321.312 41.75C332.141 41.75 338.375 48.7344 338.375 60.0781V92H328.203V62C328.203 54.5938 324.734 50.4219 317.703 50.4219C310.578 50.4219 305.984 55.5781 305.984 63.2656V92H295.859ZM369.219 92.9844C354.734 92.9844 345.969 83.0938 345.969 67.5312V67.4844C345.969 52.0625 354.875 41.75 368.703 41.75C382.531 41.75 391.016 51.6875 391.016 66.5V69.9219H356.094C356.281 79.25 361.391 84.6875 369.453 84.6875C375.453 84.6875 379.438 81.5938 380.703 77.8906L380.844 77.5156H390.453L390.359 78.0312C388.766 85.8594 381.172 92.9844 369.219 92.9844ZM368.75 50.0469C362.188 50.0469 357.125 54.5 356.234 62.75H380.984C380.141 54.2188 375.359 50.0469 368.75 50.0469ZM435.734 92V34.7656H435.5L417.828 46.9531V37.0156L435.641 24.3594H446V92H435.734ZM487.953 93.125C474.125 93.125 461.375 83.5156 461.375 59.1875V59.0938C461.375 36.5469 471.453 23.2344 488.375 23.2344C500.422 23.2344 509.469 30.125 511.625 40.2031L511.766 40.7656H501.219L501.078 40.2969C499.156 35.2344 494.75 32.0469 488.281 32.0469C476.656 32.0469 471.922 43.25 471.5 56.6562C471.453 57.2656 471.453 57.875 471.453 58.4844H471.688C474.359 52.3906 481.203 47.6094 490.391 47.6094C503.328 47.6094 512.656 57.0312 512.656 69.8281V69.9219C512.656 83.4219 502.203 93.125 487.953 93.125ZM473.516 69.9688C473.516 77.9844 479.797 84.3125 487.812 84.3125C495.828 84.3125 502.203 78.0781 502.203 70.2031V70.1094C502.203 61.9531 496.203 56.1406 487.953 56.1406C479.75 56.1406 473.516 61.9062 473.516 69.9219V69.9688Z" fill="url(#paint0_linear_84_918)"/>
<path d="M118.781 71.0938C115.5 71.0938 112.875 68.4688 112.875 65.2812C112.875 62.0469 115.5 59.4219 118.781 59.4219C122.109 59.4219 124.688 62.0469 124.688 65.2812C124.688 68.4688 122.109 71.0938 118.781 71.0938ZM113.719 128V78.6875H123.844V128H113.719ZM135.516 128V60.3594H160.688C173.953 60.3594 183.141 69.2656 183.141 82.5312V82.625C183.141 95.8438 173.953 104.891 160.688 104.891H146.016V128H135.516ZM158.062 69.2188H146.016V96.0781H158.062C167.203 96.0781 172.453 91.1562 172.453 82.6719V82.5781C172.453 74.1406 167.203 69.2188 158.062 69.2188ZM191.484 128V60.3594H201.609V86.7969H201.844C204.469 81.0781 209.766 77.75 217.125 77.75C227.672 77.75 234.609 85.625 234.609 97.5312V128H224.484V99.4531C224.484 91.2969 220.359 86.4219 213.234 86.4219C206.25 86.4219 201.609 91.7656 201.609 99.4531V128H191.484ZM265.641 128.984C251.484 128.984 242.25 119.188 242.25 103.344V103.25C242.25 87.5 251.578 77.75 265.594 77.75C279.656 77.75 289.031 87.4531 289.031 103.25V103.344C289.031 119.234 279.75 128.984 265.641 128.984ZM265.688 120.5C273.609 120.5 278.672 114.219 278.672 103.344V103.25C278.672 92.4688 273.516 86.2344 265.594 86.2344C257.812 86.2344 252.609 92.4688 252.609 103.25V103.344C252.609 114.266 257.766 120.5 265.688 120.5ZM296.859 128V78.6875H306.984V86.1406H307.219C309.797 81.125 314.859 77.75 322.312 77.75C333.141 77.75 339.375 84.7344 339.375 96.0781V128H329.203V98C329.203 90.5938 325.734 86.4219 318.703 86.4219C311.578 86.4219 306.984 91.5781 306.984 99.2656V128H296.859ZM370.219 128.984C355.734 128.984 346.969 119.094 346.969 103.531V103.484C346.969 88.0625 355.875 77.75 369.703 77.75C383.531 77.75 392.016 87.6875 392.016 102.5V105.922H357.094C357.281 115.25 362.391 120.688 370.453 120.688C376.453 120.688 380.438 117.594 381.703 113.891L381.844 113.516H391.453L391.359 114.031C389.766 121.859 382.172 128.984 370.219 128.984ZM369.75 86.0469C363.188 86.0469 358.125 90.5 357.234 98.75H381.984C381.141 90.2188 376.359 86.0469 369.75 86.0469ZM436.734 128V70.7656H436.5L418.828 82.9531V73.0156L436.641 60.3594H447V128H436.734ZM488.953 129.125C475.125 129.125 462.375 119.516 462.375 95.1875V95.0938C462.375 72.5469 472.453 59.2344 489.375 59.2344C501.422 59.2344 510.469 66.125 512.625 76.2031L512.766 76.7656H502.219L502.078 76.2969C500.156 71.2344 495.75 68.0469 489.281 68.0469C477.656 68.0469 472.922 79.25 472.5 92.6562C472.453 93.2656 472.453 93.875 472.453 94.4844H472.688C475.359 88.3906 482.203 83.6094 491.391 83.6094C504.328 83.6094 513.656 93.0312 513.656 105.828V105.922C513.656 119.422 503.203 129.125 488.953 129.125ZM474.516 105.969C474.516 113.984 480.797 120.312 488.812 120.312C496.828 120.312 503.203 114.078 503.203 106.203V106.109C503.203 97.9531 497.203 92.1406 488.953 92.1406C480.75 92.1406 474.516 97.9062 474.516 105.922V105.969Z" fill="black"/>
<path d="M118.781 100.094C115.5 100.094 112.875 97.4688 112.875 94.2812C112.875 91.0469 115.5 88.4219 118.781 88.4219C122.109 88.4219 124.688 91.0469 124.688 94.2812C124.688 97.4688 122.109 100.094 118.781 100.094ZM113.719 157V107.688H123.844V157H113.719ZM135.516 157V89.3594H160.688C173.953 89.3594 183.141 98.2656 183.141 111.531V111.625C183.141 124.844 173.953 133.891 160.688 133.891H146.016V157H135.516ZM158.062 98.2188H146.016V125.078H158.062C167.203 125.078 172.453 120.156 172.453 111.672V111.578C172.453 103.141 167.203 98.2188 158.062 98.2188ZM191.484 157V89.3594H201.609V115.797H201.844C204.469 110.078 209.766 106.75 217.125 106.75C227.672 106.75 234.609 114.625 234.609 126.531V157H224.484V128.453C224.484 120.297 220.359 115.422 213.234 115.422C206.25 115.422 201.609 120.766 201.609 128.453V157H191.484ZM265.641 157.984C251.484 157.984 242.25 148.188 242.25 132.344V132.25C242.25 116.5 251.578 106.75 265.594 106.75C279.656 106.75 289.031 116.453 289.031 132.25V132.344C289.031 148.234 279.75 157.984 265.641 157.984ZM265.688 149.5C273.609 149.5 278.672 143.219 278.672 132.344V132.25C278.672 121.469 273.516 115.234 265.594 115.234C257.812 115.234 252.609 121.469 252.609 132.25V132.344C252.609 143.266 257.766 149.5 265.688 149.5ZM296.859 157V107.688H306.984V115.141H307.219C309.797 110.125 314.859 106.75 322.312 106.75C333.141 106.75 339.375 113.734 339.375 125.078V157H329.203V127C329.203 119.594 325.734 115.422 318.703 115.422C311.578 115.422 306.984 120.578 306.984 128.266V157H296.859ZM370.219 157.984C355.734 157.984 346.969 148.094 346.969 132.531V132.484C346.969 117.062 355.875 106.75 369.703 106.75C383.531 106.75 392.016 116.688 392.016 131.5V134.922H357.094C357.281 144.25 362.391 149.688 370.453 149.688C376.453 149.688 380.438 146.594 381.703 142.891L381.844 142.516H391.453L391.359 143.031C389.766 150.859 382.172 157.984 370.219 157.984ZM369.75 115.047C363.188 115.047 358.125 119.5 357.234 127.75H381.984C381.141 119.219 376.359 115.047 369.75 115.047ZM436.734 157V99.7656H436.5L418.828 111.953V102.016L436.641 89.3594H447V157H436.734ZM488.953 158.125C475.125 158.125 462.375 148.516 462.375 124.188V124.094C462.375 101.547 472.453 88.2344 489.375 88.2344C501.422 88.2344 510.469 95.125 512.625 105.203L512.766 105.766H502.219L502.078 105.297C500.156 100.234 495.75 97.0469 489.281 97.0469C477.656 97.0469 472.922 108.25 472.5 121.656C472.453 122.266 472.453 122.875 472.453 123.484H472.688C475.359 117.391 482.203 112.609 491.391 112.609C504.328 112.609 513.656 122.031 513.656 134.828V134.922C513.656 148.422 503.203 158.125 488.953 158.125ZM474.516 134.969C474.516 142.984 480.797 149.312 488.812 149.312C496.828 149.312 503.203 143.078 503.203 135.203V135.109C503.203 126.953 497.203 121.141 488.953 121.141C480.75 121.141 474.516 126.906 474.516 134.922V134.969Z" fill="black" fill-opacity="0.15"/>
<defs>
<linearGradient id="paint0_linear_84_918" x1="68" y1="65.5" x2="557" y2="65.5" gradientUnits="userSpaceOnUse">
<stop offset="0.244614" stop-color="#E30000" stop-opacity="0.31"/>
<stop offset="0.400764" stop-color="#D99000" stop-opacity="0.31"/>
<stop offset="0.532258" stop-color="#F40075" stop-opacity="0.31"/>
<stop offset="0.686353" stop-color="#F500FA" stop-opacity="0.31"/>
</linearGradient>
</defs>
</svg>
